<?xml version="1.0" encoding="utf-8" ?>
<svg baseProfile="full" height="100" version="1.1" width="1143.64328" xmlns="http://www.w3.org/2000/svg" xmlns:ev="http://www.w3.org/2001/xml-events" xmlns:xlink="http://www.w3.org/1999/xlink"><defs><linearGradient id="grad_gpos25" x1="0%" x2="0%" y1="0%" y2="100%"><stop offset="0.0" stop-color="#C8C8C8" /><stop offset="0.4" stop-color="#DCDCDC" /><stop offset="0.5" stop-color="#DCDCDC" /><stop offset="0.6" stop-color="#DCDCDC" /><stop offset="1.0" stop-color="#C8C8C8" /></linearGradient><linearGradient id="grad_gpos50" x1="0%" x2="0%" y1="0%" y2="100%"><stop offset="0.0" stop-color="#C8C8C8" /><stop offset="0.4" stop-color="#DCDCDC" /><stop offset="0.5" stop-color="#DCDCDC" /><stop offset="0.6" stop-color="#DCDCDC" /><stop offset="1.0" stop-color="#C8C8C8" /></linearGradient><linearGradient id="grad_gpos75" x1="0%" x2="0%" y1="0%" y2="100%"><stop offset="0.0" stop-color="#828282" /><stop offset="0.4" stop-color="#C6C6C6" /><stop offset="0.5" stop-color="#C6C6C6" /><stop offset="0.6" stop-color="#C6C6C6" /><stop offset="1.0" stop-color="#828282" /></linearGradient><linearGradient id="grad_gpos100" x1="0%" x2="0%" y1="0%" y2="100%"><stop offset="0.0" stop-color="#000000" /><stop offset="0.4" stop-color="#444444" /><stop offset="0.5" stop-color="#444444" /><stop offset="0.6" stop-color="#444444" /><stop offset="1.0" stop-color="#000000" /></linearGradient><linearGradient id="grad_gneg" x1="0%" x2="0%" y1="0%" y2="100%"><stop offset="0.0" stop-color="#FFFFFF" /><stop offset="0.4" stop-color="#FFFFFF" /><stop offset="0.5" stop-color="#FFFFFF" /><stop offset="0.6" stop-color="#FFFFFF" /><stop offset="1.0" stop-color="#FFFFFF" /></linearGradient><linearGradient id="grad_acen" x1="0%" x2="0%" y1="0%" y2="100%"><stop offset="0.0" stop-color="#D92F27" /><stop offset="0.4" stop-color="#F7574F" /><stop offset="0.5" stop-color="#F7574F" /><stop offset="0.6" stop-color="#F7574F" /><stop offset="1.0" stop-color="#D92F27" /></linearGradient><linearGradient id="grad_gvar" x1="0%" x2="0%" y1="0%" y2="100%"><stop offset="0.0" stop-color="#AAAAFF" /><stop offset="0.4" stop-color="#CCCCFF" /><stop offset="0.5" stop-color="#CCCCFF" /><stop offset="0.6" stop-color="#CCCCFF" /><stop offset="1.0" stop-color="#AAAAFF" /></linearGradient><linearGradient id="grad_stalk" x1="0%" x2="0%" y1="0%" y2="100%"><stop offset="0.0" stop-color="#647FA4" /><stop offset="0.4" stop-color="#647FA4" /><stop offset="0.5" stop-color="#647FA4" /><stop offset="0.6" stop-color="#647FA4" /><stop offset="1.0" stop-color="#647FA4" /></linearGradient><clipPath id="rounded_clip_p13"><rect fill="none" height="100" rx="30" ry="30" stroke="black" stroke-width="2" width="177.0" x="0.0" y="0" /></clipPath><clipPath id="rounded_clip_p12"><rect fill="none" height="100" rx="30" ry="30" stroke="black" stroke-width="2" width="177.0" x="0.0" y="0" /></clipPath><clipPath id="rounded_clip_p11.2"><rect fill="none" height="100" rx="30" ry="30" stroke="black" stroke-width="2" width="177.0" x="0.0" y="0" /></clipPath><clipPath id="rounded_clip_p11.1"><rect fill="none" height="100" rx="30" ry="30" stroke="black" stroke-width="2" width="177.0" x="0.0" y="0" /></clipPath><clipPath id="rounded_clip_q11"><rect fill="none" height="100" rx="30" ry="30" stroke="black" stroke-width="2" width="966.64328" x="177.0" y="0" /></clipPath><clipPath id="rounded_clip_q12.11"><rect fill="none" height="100" rx="30" ry="30" stroke="black" stroke-width="2" width="966.64328" x="177.0" y="0" /></clipPath><clipPath id="rounded_clip_q12.12"><rect fill="none" height="100" rx="30" ry="30" stroke="black" stroke-width="2" width="966.64328" x="177.0" y="0" /></clipPath><clipPath id="rounded_clip_q12.13"><rect fill="none" height="100" rx="30" ry="30" stroke="black" stroke-width="2" width="966.64328" x="177.0" y="0" /></clipPath><clipPath id="rounded_clip_q12.2"><rect fill="none" height="100" rx="30" ry="30" stroke="black" stroke-width="2" width="966.64328" x="177.0" y="0" /></clipPath><clipPath id="rounded_clip_q12.3"><rect fill="none" height="100" rx="30" ry="30" stroke="black" stroke-width="2" width="966.64328" x="177.0" y="0" /></clipPath><clipPath id="rounded_clip_q13.1"><rect fill="none" height="100" rx="30" ry="30" stroke="black" stroke-width="2" width="966.64328" x="177.0" y="0" /></clipPath><clipPath id="rounded_clip_q13.2"><rect fill="none" height="100" rx="30" ry="30" stroke="black" stroke-width="2" width="966.64328" x="177.0" y="0" /></clipPath><clipPath id="rounded_clip_q13.3"><rect fill="none" height="100" rx="30" ry="30" stroke="black" stroke-width="2" width="966.64328" x="177.0" y="0" /></clipPath><clipPath id="rounded_clip_q14.11"><rect fill="none" height="100" rx="30" ry="30" stroke="black" stroke-width="2" width="966.64328" x="177.0" y="0" /></clipPath><clipPath id="rounded_clip_q14.12"><rect fill="none" height="100" rx="30" ry="30" stroke="black" stroke-width="2" width="966.64328" x="177.0" y="0" /></clipPath><clipPath id="rounded_clip_q14.13"><rect fill="none" height="100" rx="30" ry="30" stroke="black" stroke-width="2" width="966.64328" x="177.0" y="0" /></clipPath><clipPath id="rounded_clip_q14.2"><rect fill="none" height="100" rx="30" ry="30" stroke="black" stroke-width="2" width="966.64328" x="177.0" y="0" /></clipPath><clipPath id="rounded_clip_q14.3"><rect fill="none" height="100" rx="30" ry="30" stroke="black" stroke-width="2" width="966.64328" x="177.0" y="0" /></clipPath><clipPath id="rounded_clip_q21.1"><rect fill="none" height="100" rx="30" ry="30" stroke="black" stroke-width="2" width="966.64328" x="177.0" y="0" /></clipPath><clipPath id="rounded_clip_q21.2"><rect fill="none" height="100" rx="30" ry="30" stroke="black" stroke-width="2" width="966.64328" x="177.0" y="0" /></clipPath><clipPath id="rounded_clip_q21.31"><rect fill="none" height="100" rx="30" ry="30" stroke="black" stroke-width="2" width="966.64328" x="177.0" y="0" /></clipPath><clipPath id="rounded_clip_q21.32"><rect fill="none" height="100" rx="30" ry="30" stroke="black" stroke-width="2" width="966.64328" x="177.0" y="0" /></clipPath><clipPath id="rounded_clip_q21.33"><rect fill="none" height="100" rx="30" ry="30" stroke="black" stroke-width="2" width="966.64328" x="177.0" y="0" /></clipPath><clipPath id="rounded_clip_q22.1"><rect fill="none" height="100" rx="30" ry="30" stroke="black" stroke-width="2" width="966.64328" x="177.0" y="0" /></clipPath><clipPath id="rounded_clip_q22.2"><rect fill="none" height="100" rx="30" ry="30" stroke="black" stroke-width="2" width="966.64328" x="177.0" y="0" /></clipPath><clipPath id="rounded_clip_q22.3"><rect fill="none" height="100" rx="30" ry="30" stroke="black" stroke-width="2" width="966.64328" x="177.0" y="0" /></clipPath><clipPath id="rounded_clip_q31.1"><rect fill="none" height="100" rx="30" ry="30" stroke="black" stroke-width="2" width="966.64328" x="177.0" y="0" /></clipPath><clipPath id="rounded_clip_q31.2"><rect fill="none" height="100" rx="30" ry="30" stroke="black" stroke-width="2" width="966.64328" x="177.0" y="0" /></clipPath><clipPath id="rounded_clip_q31.3"><rect fill="none" height="100" rx="30" ry="30" stroke="black" stroke-width="2" width="966.64328" x="177.0" y="0" /></clipPath><clipPath id="rounded_clip_q32.1"><rect fill="none" height="100" rx="30" ry="30" stroke="black" stroke-width="2" width="966.64328" x="177.0" y="0" /></clipPath><clipPath id="rounded_clip_q32.2"><rect fill="none" height="100" rx="30" ry="30" stroke="black" stroke-width="2" width="966.64328" x="177.0" y="0" /></clipPath><clipPath id="rounded_clip_q32.3"><rect fill="none" height="100" rx="30" ry="30" stroke="black" stroke-width="2" width="966.64328" x="177.0" y="0" /></clipPath><clipPath id="rounded_clip_q33.1"><rect fill="none" height="100" rx="30" ry="30" stroke="black" stroke-width="2" width="966.64328" x="177.0" y="0" /></clipPath><clipPath id="rounded_clip_q33.2"><rect fill="none" height="100" rx="30" ry="30" stroke="black" stroke-width="2" width="966.64328" x="177.0" y="0" /></clipPath><clipPath id="rounded_clip_q33.3"><rect fill="none" height="100" rx="30" ry="30" stroke="black" stroke-width="2" width="966.64328" x="177.0" y="0" /></clipPath><clipPath id="rounded_clip_q34"><rect fill="none" height="100" rx="30" ry="30" stroke="black" stroke-width="2" width="966.64328" x="177.0" y="0" /></clipPath></defs><rect clip-path="url(#rounded_clip_p13)" fill="url(#grad_gvar)" height="100" id="p13" width="46.0" x="0.0" y="0" /><rect clip-path="url(#rounded_clip_p12)" fill="url(#grad_stalk)" height="100" id="p12" width="55.0" x="46.0" y="0" /><rect clip-path="url(#rounded_clip_p11.2)" fill="url(#grad_gvar)" height="100" id="p11.2" width="64.0" x="101.0" y="0" /><rect clip-path="url(#rounded_clip_p11.1)" fill="url(#grad_acen)" height="100" id="p11.1" width="12.0" x="165.0" y="0" /><rect clip-path="url(#rounded_clip_q11)" fill="url(#grad_acen)" height="100" id="q11" width="12.0" x="177.0" y="0" /><rect clip-path="url(#rounded_clip_q12.11)" fill="url(#grad_gneg)" height="100" id="q12.11" width="37.0" x="189.0" y="0" /><rect clip-path="url(#rounded_clip_q12.12)" fill="url(#grad_gpos25)" height="100" id="q12.12" width="23.0" x="226.0" y="0" /><rect clip-path="url(#rounded_clip_q12.13)" fill="url(#grad_gneg)" height="100" id="q12.13" width="23.0" x="249.0" y="0" /><rect clip-path="url(#rounded_clip_q12.2)" fill="url(#grad_gpos25)" height="100" id="q12.2" width="11.0" x="272.0" y="0" /><rect clip-path="url(#rounded_clip_q12.3)" fill="url(#grad_gneg)" height="100" id="q12.3" width="33.0" x="283.0" y="0" /><rect clip-path="url(#rounded_clip_q13.1)" fill="url(#grad_gpos50)" height="100" id="q13.1" width="18.0" x="316.0" y="0" /><rect clip-path="url(#rounded_clip_q13.2)" fill="url(#grad_gneg)" height="100" id="q13.2" width="15.0" x="334.0" y="0" /><rect clip-path="url(#rounded_clip_q13.3)" fill="url(#grad_gpos75)" height="100" id="q13.3" width="46.0" x="349.0" y="0" /><rect clip-path="url(#rounded_clip_q14.11)" fill="url(#grad_gneg)" height="100" id="q14.11" width="51.0" x="395.0" y="0" /><rect clip-path="url(#rounded_clip_q14.12)" fill="url(#grad_gpos25)" height="100" id="q14.12" width="6.0" x="446.0" y="0" /><rect clip-path="url(#rounded_clip_q14.13)" fill="url(#grad_gneg)" height="100" id="q14.13" width="15.0" x="452.0" y="0" /><rect clip-path="url(#rounded_clip_q14.2)" fill="url(#grad_gpos50)" height="100" id="q14.2" width="36.0" x="467.0" y="0" /><rect clip-path="url(#rounded_clip_q14.3)" fill="url(#grad_gneg)" height="100" id="q14.3" width="44.0" x="503.0" y="0" /><rect clip-path="url(#rounded_clip_q21.1)" fill="url(#grad_gpos100)" height="100" id="q21.1" width="43.0" x="547.0" y="0" /><rect clip-path="url(#rounded_clip_q21.2)" fill="url(#grad_gneg)" height="100" id="q21.2" width="28.0" x="590.0" y="0" /><rect clip-path="url(#rounded_clip_q21.31)" fill="url(#grad_gpos75)" height="100" id="q21.31" width="34.0" x="618.0" y="0" /><rect clip-path="url(#rounded_clip_q21.32)" fill="url(#grad_gneg)" height="100" id="q21.32" width="29.0" x="652.0" y="0" /><rect clip-path="url(#rounded_clip_q21.33)" fill="url(#grad_gpos100)" height="100" id="q21.33" width="47.0" x="681.0" y="0" /><rect clip-path="url(#rounded_clip_q22.1)" fill="url(#grad_gneg)" height="100" id="q22.1" width="21.0" x="728.0" y="0" /><rect clip-path="url(#rounded_clip_q22.2)" fill="url(#grad_gpos50)" height="100" id="q22.2" width="18.0" x="749.0" y="0" /><rect clip-path="url(#rounded_clip_q22.3)" fill="url(#grad_gneg)" height="100" id="q22.3" width="18.0" x="767.0" y="0" /><rect clip-path="url(#rounded_clip_q31.1)" fill="url(#grad_gpos100)" height="100" id="q31.1" width="86.0" x="785.0" y="0" /><rect clip-path="url(#rounded_clip_q31.2)" fill="url(#grad_gneg)" height="100" id="q31.2" width="23.0" x="871.0" y="0" /><rect clip-path="url(#rounded_clip_q31.3)" fill="url(#grad_gpos100)" height="100" id="q31.3" width="50.0" x="894.0" y="0" /><rect clip-path="url(#rounded_clip_q32.1)" fill="url(#grad_gneg)" height="100" id="q32.1" width="31.0" x="944.0" y="0" /><rect clip-path="url(#rounded_clip_q32.2)" fill="url(#grad_gpos25)" height="100" id="q32.2" width="12.0" x="975.0" y="0" /><rect clip-path="url(#rounded_clip_q32.3)" fill="url(#grad_gneg)" height="100" id="q32.3" width="24.0" x="987.0" y="0" /><rect clip-path="url(#rounded_clip_q33.1)" fill="url(#grad_gpos100)" height="100" id="q33.1" width="31.0" x="1011.0" y="0" /><rect clip-path="url(#rounded_clip_q33.2)" fill="url(#grad_gneg)" height="100" id="q33.2" width="22.0" x="1042.0" y="0" /><rect clip-path="url(#rounded_clip_q33.3)" fill="url(#grad_gpos100)" height="100" id="q33.3" width="32.0" x="1064.0" y="0" /><rect clip-path="url(#rounded_clip_q34)" fill="url(#grad_gneg)" height="100" id="q34" width="47.64328" x="1096.0" y="0" /><rect fill="none" height="100" rx="30" ry="30" stroke="black" stroke-width="2" width="177.0" x="0.0" y="0" /><rect fill="none" height="100" rx="30" ry="30" stroke="black" stroke-width="2" width="966.64328" x="177.0" y="0" /></svg>
