<?xml version="1.0" encoding="utf-8" ?>
<svg baseProfile="full" height="100" version="1.1" width="1070.43718" xmlns="http://www.w3.org/2000/svg" xmlns:ev="http://www.w3.org/2001/xml-events" xmlns:xlink="http://www.w3.org/1999/xlink"><defs><linearGradient id="grad_gpos25" x1="0%" x2="0%" y1="0%" y2="100%"><stop offset="0.0" stop-color="#C8C8C8" /><stop offset="0.4" stop-color="#DCDCDC" /><stop offset="0.5" stop-color="#DCDCDC" /><stop offset="0.6" stop-color="#DCDCDC" /><stop offset="1.0" stop-color="#C8C8C8" /></linearGradient><linearGradient id="grad_gpos50" x1="0%" x2="0%" y1="0%" y2="100%"><stop offset="0.0" stop-color="#C8C8C8" /><stop offset="0.4" stop-color="#DCDCDC" /><stop offset="0.5" stop-color="#DCDCDC" /><stop offset="0.6" stop-color="#DCDCDC" /><stop offset="1.0" stop-color="#C8C8C8" /></linearGradient><linearGradient id="grad_gpos75" x1="0%" x2="0%" y1="0%" y2="100%"><stop offset="0.0" stop-color="#828282" /><stop offset="0.4" stop-color="#C6C6C6" /><stop offset="0.5" stop-color="#C6C6C6" /><stop offset="0.6" stop-color="#C6C6C6" /><stop offset="1.0" stop-color="#828282" /></linearGradient><linearGradient id="grad_gpos100" x1="0%" x2="0%" y1="0%" y2="100%"><stop offset="0.0" stop-color="#000000" /><stop offset="0.4" stop-color="#444444" /><stop offset="0.5" stop-color="#444444" /><stop offset="0.6" stop-color="#444444" /><stop offset="1.0" stop-color="#000000" /></linearGradient><linearGradient id="grad_gneg" x1="0%" x2="0%" y1="0%" y2="100%"><stop offset="0.0" stop-color="#FFFFFF" /><stop offset="0.4" stop-color="#FFFFFF" /><stop offset="0.5" stop-color="#FFFFFF" /><stop offset="0.6" stop-color="#FFFFFF" /><stop offset="1.0" stop-color="#FFFFFF" /></linearGradient><linearGradient id="grad_acen" x1="0%" x2="0%" y1="0%" y2="100%"><stop offset="0.0" stop-color="#D92F27" /><stop offset="0.4" stop-color="#F7574F" /><stop offset="0.5" stop-color="#F7574F" /><stop offset="0.6" stop-color="#F7574F" /><stop offset="1.0" stop-color="#D92F27" /></linearGradient><linearGradient id="grad_gvar" x1="0%" x2="0%" y1="0%" y2="100%"><stop offset="0.0" stop-color="#AAAAFF" /><stop offset="0.4" stop-color="#CCCCFF" /><stop offset="0.5" stop-color="#CCCCFF" /><stop offset="0.6" stop-color="#CCCCFF" /><stop offset="1.0" stop-color="#AAAAFF" /></linearGradient><linearGradient id="grad_stalk" x1="0%" x2="0%" y1="0%" y2="100%"><stop offset="0.0" stop-color="#647FA4" /><stop offset="0.4" stop-color="#647FA4" /><stop offset="0.5" stop-color="#647FA4" /><stop offset="0.6" stop-color="#647FA4" /><stop offset="1.0" stop-color="#647FA4" /></linearGradient><clipPath id="rounded_clip_p13"><rect fill="none" height="100" rx="30" ry="30" stroke="black" stroke-width="2" width="172.0" x="0.0" y="0" /></clipPath><clipPath id="rounded_clip_p12"><rect fill="none" height="100" rx="30" ry="30" stroke="black" stroke-width="2" width="172.0" x="0.0" y="0" /></clipPath><clipPath id="rounded_clip_p11.2"><rect fill="none" height="100" rx="30" ry="30" stroke="black" stroke-width="2" width="172.0" x="0.0" y="0" /></clipPath><clipPath id="rounded_clip_p11.1"><rect fill="none" height="100" rx="30" ry="30" stroke="black" stroke-width="2" width="172.0" x="0.0" y="0" /></clipPath><clipPath id="rounded_clip_q11.1"><rect fill="none" height="100" rx="30" ry="30" stroke="black" stroke-width="2" width="898.43718" x="172.0" y="0" /></clipPath><clipPath id="rounded_clip_q11.2"><rect fill="none" height="100" rx="30" ry="30" stroke="black" stroke-width="2" width="898.43718" x="172.0" y="0" /></clipPath><clipPath id="rounded_clip_q12"><rect fill="none" height="100" rx="30" ry="30" stroke="black" stroke-width="2" width="898.43718" x="172.0" y="0" /></clipPath><clipPath id="rounded_clip_q13.1"><rect fill="none" height="100" rx="30" ry="30" stroke="black" stroke-width="2" width="898.43718" x="172.0" y="0" /></clipPath><clipPath id="rounded_clip_q13.2"><rect fill="none" height="100" rx="30" ry="30" stroke="black" stroke-width="2" width="898.43718" x="172.0" y="0" /></clipPath><clipPath id="rounded_clip_q13.3"><rect fill="none" height="100" rx="30" ry="30" stroke="black" stroke-width="2" width="898.43718" x="172.0" y="0" /></clipPath><clipPath id="rounded_clip_q21.1"><rect fill="none" height="100" rx="30" ry="30" stroke="black" stroke-width="2" width="898.43718" x="172.0" y="0" /></clipPath><clipPath id="rounded_clip_q21.2"><rect fill="none" height="100" rx="30" ry="30" stroke="black" stroke-width="2" width="898.43718" x="172.0" y="0" /></clipPath><clipPath id="rounded_clip_q21.3"><rect fill="none" height="100" rx="30" ry="30" stroke="black" stroke-width="2" width="898.43718" x="172.0" y="0" /></clipPath><clipPath id="rounded_clip_q22.1"><rect fill="none" height="100" rx="30" ry="30" stroke="black" stroke-width="2" width="898.43718" x="172.0" y="0" /></clipPath><clipPath id="rounded_clip_q22.2"><rect fill="none" height="100" rx="30" ry="30" stroke="black" stroke-width="2" width="898.43718" x="172.0" y="0" /></clipPath><clipPath id="rounded_clip_q22.3"><rect fill="none" height="100" rx="30" ry="30" stroke="black" stroke-width="2" width="898.43718" x="172.0" y="0" /></clipPath><clipPath id="rounded_clip_q23.1"><rect fill="none" height="100" rx="30" ry="30" stroke="black" stroke-width="2" width="898.43718" x="172.0" y="0" /></clipPath><clipPath id="rounded_clip_q23.2"><rect fill="none" height="100" rx="30" ry="30" stroke="black" stroke-width="2" width="898.43718" x="172.0" y="0" /></clipPath><clipPath id="rounded_clip_q23.3"><rect fill="none" height="100" rx="30" ry="30" stroke="black" stroke-width="2" width="898.43718" x="172.0" y="0" /></clipPath><clipPath id="rounded_clip_q24.1"><rect fill="none" height="100" rx="30" ry="30" stroke="black" stroke-width="2" width="898.43718" x="172.0" y="0" /></clipPath><clipPath id="rounded_clip_q24.2"><rect fill="none" height="100" rx="30" ry="30" stroke="black" stroke-width="2" width="898.43718" x="172.0" y="0" /></clipPath><clipPath id="rounded_clip_q24.3"><rect fill="none" height="100" rx="30" ry="30" stroke="black" stroke-width="2" width="898.43718" x="172.0" y="0" /></clipPath><clipPath id="rounded_clip_q31.1"><rect fill="none" height="100" rx="30" ry="30" stroke="black" stroke-width="2" width="898.43718" x="172.0" y="0" /></clipPath><clipPath id="rounded_clip_q31.2"><rect fill="none" height="100" rx="30" ry="30" stroke="black" stroke-width="2" width="898.43718" x="172.0" y="0" /></clipPath><clipPath id="rounded_clip_q31.3"><rect fill="none" height="100" rx="30" ry="30" stroke="black" stroke-width="2" width="898.43718" x="172.0" y="0" /></clipPath><clipPath id="rounded_clip_q32.11"><rect fill="none" height="100" rx="30" ry="30" stroke="black" stroke-width="2" width="898.43718" x="172.0" y="0" /></clipPath><clipPath id="rounded_clip_q32.12"><rect fill="none" height="100" rx="30" ry="30" stroke="black" stroke-width="2" width="898.43718" x="172.0" y="0" /></clipPath><clipPath id="rounded_clip_q32.13"><rect fill="none" height="100" rx="30" ry="30" stroke="black" stroke-width="2" width="898.43718" x="172.0" y="0" /></clipPath><clipPath id="rounded_clip_q32.2"><rect fill="none" height="100" rx="30" ry="30" stroke="black" stroke-width="2" width="898.43718" x="172.0" y="0" /></clipPath><clipPath id="rounded_clip_q32.31"><rect fill="none" height="100" rx="30" ry="30" stroke="black" stroke-width="2" width="898.43718" x="172.0" y="0" /></clipPath><clipPath id="rounded_clip_q32.32"><rect fill="none" height="100" rx="30" ry="30" stroke="black" stroke-width="2" width="898.43718" x="172.0" y="0" /></clipPath><clipPath id="rounded_clip_q32.33"><rect fill="none" height="100" rx="30" ry="30" stroke="black" stroke-width="2" width="898.43718" x="172.0" y="0" /></clipPath></defs><rect clip-path="url(#rounded_clip_p13)" fill="url(#grad_gvar)" height="100" id="p13" width="36.0" x="0.0" y="0" /><rect clip-path="url(#rounded_clip_p12)" fill="url(#grad_stalk)" height="100" id="p12" width="44.0" x="36.0" y="0" /><rect clip-path="url(#rounded_clip_p11.2)" fill="url(#grad_gvar)" height="100" id="p11.2" width="81.0" x="80.0" y="0" /><rect clip-path="url(#rounded_clip_p11.1)" fill="url(#grad_acen)" height="100" id="p11.1" width="11.0" x="161.0" y="0" /><rect clip-path="url(#rounded_clip_q11.1)" fill="url(#grad_acen)" height="100" id="q11.1" width="10.0" x="172.0" y="0" /><rect clip-path="url(#rounded_clip_q11.2)" fill="url(#grad_gneg)" height="100" id="q11.2" width="59.0" x="182.0" y="0" /><rect clip-path="url(#rounded_clip_q12)" fill="url(#grad_gpos100)" height="100" id="q12" width="88.0" x="241.0" y="0" /><rect clip-path="url(#rounded_clip_q13.1)" fill="url(#grad_gneg)" height="100" id="q13.1" width="19.0" x="329.0" y="0" /><rect clip-path="url(#rounded_clip_q13.2)" fill="url(#grad_gpos50)" height="100" id="q13.2" width="13.0" x="348.0" y="0" /><rect clip-path="url(#rounded_clip_q13.3)" fill="url(#grad_gneg)" height="100" id="q13.3" width="13.0" x="361.0" y="0" /><rect clip-path="url(#rounded_clip_q21.1)" fill="url(#grad_gpos100)" height="100" id="q21.1" width="56.0" x="374.0" y="0" /><rect clip-path="url(#rounded_clip_q21.2)" fill="url(#grad_gneg)" height="100" id="q21.2" width="37.0" x="430.0" y="0" /><rect clip-path="url(#rounded_clip_q21.3)" fill="url(#grad_gpos100)" height="100" id="q21.3" width="37.0" x="467.0" y="0" /><rect clip-path="url(#rounded_clip_q22.1)" fill="url(#grad_gneg)" height="100" id="q22.1" width="32.0" x="504.0" y="0" /><rect clip-path="url(#rounded_clip_q22.2)" fill="url(#grad_gpos25)" height="100" id="q22.2" width="14.0" x="536.0" y="0" /><rect clip-path="url(#rounded_clip_q22.3)" fill="url(#grad_gneg)" height="100" id="q22.3" width="26.0" x="550.0" y="0" /><rect clip-path="url(#rounded_clip_q23.1)" fill="url(#grad_gpos75)" height="100" id="q23.1" width="40.0" x="576.0" y="0" /><rect clip-path="url(#rounded_clip_q23.2)" fill="url(#grad_gneg)" height="100" id="q23.2" width="27.0" x="616.0" y="0" /><rect clip-path="url(#rounded_clip_q23.3)" fill="url(#grad_gpos50)" height="100" id="q23.3" width="31.0" x="643.0" y="0" /><rect clip-path="url(#rounded_clip_q24.1)" fill="url(#grad_gneg)" height="100" id="q24.1" width="24.0" x="674.0" y="0" /><rect clip-path="url(#rounded_clip_q24.2)" fill="url(#grad_gpos50)" height="100" id="q24.2" width="35.0" x="698.0" y="0" /><rect clip-path="url(#rounded_clip_q24.3)" fill="url(#grad_gneg)" height="100" id="q24.3" width="55.0" x="733.0" y="0" /><rect clip-path="url(#rounded_clip_q31.1)" fill="url(#grad_gpos100)" height="100" id="q31.1" width="43.0" x="788.0" y="0" /><rect clip-path="url(#rounded_clip_q31.2)" fill="url(#grad_gneg)" height="100" id="q31.2" width="13.0" x="831.0" y="0" /><rect clip-path="url(#rounded_clip_q31.3)" fill="url(#grad_gpos100)" height="100" id="q31.3" width="49.0" x="844.0" y="0" /><rect clip-path="url(#rounded_clip_q32.11)" fill="url(#grad_gneg)" height="100" id="q32.11" width="21.0" x="893.0" y="0" /><rect clip-path="url(#rounded_clip_q32.12)" fill="url(#grad_gpos25)" height="100" id="q32.12" width="28.0" x="914.0" y="0" /><rect clip-path="url(#rounded_clip_q32.13)" fill="url(#grad_gneg)" height="100" id="q32.13" width="16.0" x="942.0" y="0" /><rect clip-path="url(#rounded_clip_q32.2)" fill="url(#grad_gpos50)" height="100" id="q32.2" width="51.0" x="958.0" y="0" /><rect clip-path="url(#rounded_clip_q32.31)" fill="url(#grad_gneg)" height="100" id="q32.31" width="18.0" x="1009.0" y="0" /><rect clip-path="url(#rounded_clip_q32.32)" fill="url(#grad_gpos50)" height="100" id="q32.32" width="8.0" x="1027.0" y="0" /><rect clip-path="url(#rounded_clip_q32.33)" fill="url(#grad_gneg)" height="100" id="q32.33" width="35.43718" x="1035.0" y="0" /><rect fill="none" height="100" rx="30" ry="30" stroke="black" stroke-width="2" width="172.0" x="0.0" y="0" /><rect fill="none" height="100" rx="30" ry="30" stroke="black" stroke-width="2" width="898.43718" x="172.0" y="0" /></svg>
