<?xml version="1.0" encoding="utf-8" ?>
<svg baseProfile="full" height="100" version="1.1" width="1350.86622" xmlns="http://www.w3.org/2000/svg" xmlns:ev="http://www.w3.org/2001/xml-events" xmlns:xlink="http://www.w3.org/1999/xlink"><defs><linearGradient id="grad_gpos25" x1="0%" x2="0%" y1="0%" y2="100%"><stop offset="0.0" stop-color="#C8C8C8" /><stop offset="0.4" stop-color="#DCDCDC" /><stop offset="0.5" stop-color="#DCDCDC" /><stop offset="0.6" stop-color="#DCDCDC" /><stop offset="1.0" stop-color="#C8C8C8" /></linearGradient><linearGradient id="grad_gpos50" x1="0%" x2="0%" y1="0%" y2="100%"><stop offset="0.0" stop-color="#C8C8C8" /><stop offset="0.4" stop-color="#DCDCDC" /><stop offset="0.5" stop-color="#DCDCDC" /><stop offset="0.6" stop-color="#DCDCDC" /><stop offset="1.0" stop-color="#C8C8C8" /></linearGradient><linearGradient id="grad_gpos75" x1="0%" x2="0%" y1="0%" y2="100%"><stop offset="0.0" stop-color="#828282" /><stop offset="0.4" stop-color="#C6C6C6" /><stop offset="0.5" stop-color="#C6C6C6" /><stop offset="0.6" stop-color="#C6C6C6" /><stop offset="1.0" stop-color="#828282" /></linearGradient><linearGradient id="grad_gpos100" x1="0%" x2="0%" y1="0%" y2="100%"><stop offset="0.0" stop-color="#000000" /><stop offset="0.4" stop-color="#444444" /><stop offset="0.5" stop-color="#444444" /><stop offset="0.6" stop-color="#444444" /><stop offset="1.0" stop-color="#000000" /></linearGradient><linearGradient id="grad_gneg" x1="0%" x2="0%" y1="0%" y2="100%"><stop offset="0.0" stop-color="#FFFFFF" /><stop offset="0.4" stop-color="#FFFFFF" /><stop offset="0.5" stop-color="#FFFFFF" /><stop offset="0.6" stop-color="#FFFFFF" /><stop offset="1.0" stop-color="#FFFFFF" /></linearGradient><linearGradient id="grad_acen" x1="0%" x2="0%" y1="0%" y2="100%"><stop offset="0.0" stop-color="#D92F27" /><stop offset="0.4" stop-color="#F7574F" /><stop offset="0.5" stop-color="#F7574F" /><stop offset="0.6" stop-color="#F7574F" /><stop offset="1.0" stop-color="#D92F27" /></linearGradient><linearGradient id="grad_gvar" x1="0%" x2="0%" y1="0%" y2="100%"><stop offset="0.0" stop-color="#AAAAFF" /><stop offset="0.4" stop-color="#CCCCFF" /><stop offset="0.5" stop-color="#CCCCFF" /><stop offset="0.6" stop-color="#CCCCFF" /><stop offset="1.0" stop-color="#AAAAFF" /></linearGradient><linearGradient id="grad_stalk" x1="0%" x2="0%" y1="0%" y2="100%"><stop offset="0.0" stop-color="#647FA4" /><stop offset="0.4" stop-color="#647FA4" /><stop offset="0.5" stop-color="#647FA4" /><stop offset="0.6" stop-color="#647FA4" /><stop offset="1.0" stop-color="#647FA4" /></linearGradient><clipPath id="rounded_clip_p15.5"><rect fill="none" height="100" rx="30" ry="30" stroke="black" stroke-width="2" width="534.0" x="0.0" y="0" /></clipPath><clipPath id="rounded_clip_p15.4"><rect fill="none" height="100" rx="30" ry="30" stroke="black" stroke-width="2" width="534.0" x="0.0" y="0" /></clipPath><clipPath id="rounded_clip_p15.3"><rect fill="none" height="100" rx="30" ry="30" stroke="black" stroke-width="2" width="534.0" x="0.0" y="0" /></clipPath><clipPath id="rounded_clip_p15.2"><rect fill="none" height="100" rx="30" ry="30" stroke="black" stroke-width="2" width="534.0" x="0.0" y="0" /></clipPath><clipPath id="rounded_clip_p15.1"><rect fill="none" height="100" rx="30" ry="30" stroke="black" stroke-width="2" width="534.0" x="0.0" y="0" /></clipPath><clipPath id="rounded_clip_p14.3"><rect fill="none" height="100" rx="30" ry="30" stroke="black" stroke-width="2" width="534.0" x="0.0" y="0" /></clipPath><clipPath id="rounded_clip_p14.2"><rect fill="none" height="100" rx="30" ry="30" stroke="black" stroke-width="2" width="534.0" x="0.0" y="0" /></clipPath><clipPath id="rounded_clip_p14.1"><rect fill="none" height="100" rx="30" ry="30" stroke="black" stroke-width="2" width="534.0" x="0.0" y="0" /></clipPath><clipPath id="rounded_clip_p13"><rect fill="none" height="100" rx="30" ry="30" stroke="black" stroke-width="2" width="534.0" x="0.0" y="0" /></clipPath><clipPath id="rounded_clip_p12"><rect fill="none" height="100" rx="30" ry="30" stroke="black" stroke-width="2" width="534.0" x="0.0" y="0" /></clipPath><clipPath id="rounded_clip_p11.2"><rect fill="none" height="100" rx="30" ry="30" stroke="black" stroke-width="2" width="534.0" x="0.0" y="0" /></clipPath><clipPath id="rounded_clip_p11.12"><rect fill="none" height="100" rx="30" ry="30" stroke="black" stroke-width="2" width="534.0" x="0.0" y="0" /></clipPath><clipPath id="rounded_clip_p11.11"><rect fill="none" height="100" rx="30" ry="30" stroke="black" stroke-width="2" width="534.0" x="0.0" y="0" /></clipPath><clipPath id="rounded_clip_q11"><rect fill="none" height="100" rx="30" ry="30" stroke="black" stroke-width="2" width="816.86622" x="534.0" y="0" /></clipPath><clipPath id="rounded_clip_q12.1"><rect fill="none" height="100" rx="30" ry="30" stroke="black" stroke-width="2" width="816.86622" x="534.0" y="0" /></clipPath><clipPath id="rounded_clip_q12.2"><rect fill="none" height="100" rx="30" ry="30" stroke="black" stroke-width="2" width="816.86622" x="534.0" y="0" /></clipPath><clipPath id="rounded_clip_q12.3"><rect fill="none" height="100" rx="30" ry="30" stroke="black" stroke-width="2" width="816.86622" x="534.0" y="0" /></clipPath><clipPath id="rounded_clip_q13.1"><rect fill="none" height="100" rx="30" ry="30" stroke="black" stroke-width="2" width="816.86622" x="534.0" y="0" /></clipPath><clipPath id="rounded_clip_q13.2"><rect fill="none" height="100" rx="30" ry="30" stroke="black" stroke-width="2" width="816.86622" x="534.0" y="0" /></clipPath><clipPath id="rounded_clip_q13.3"><rect fill="none" height="100" rx="30" ry="30" stroke="black" stroke-width="2" width="816.86622" x="534.0" y="0" /></clipPath><clipPath id="rounded_clip_q13.4"><rect fill="none" height="100" rx="30" ry="30" stroke="black" stroke-width="2" width="816.86622" x="534.0" y="0" /></clipPath><clipPath id="rounded_clip_q13.5"><rect fill="none" height="100" rx="30" ry="30" stroke="black" stroke-width="2" width="816.86622" x="534.0" y="0" /></clipPath><clipPath id="rounded_clip_q14.1"><rect fill="none" height="100" rx="30" ry="30" stroke="black" stroke-width="2" width="816.86622" x="534.0" y="0" /></clipPath><clipPath id="rounded_clip_q14.2"><rect fill="none" height="100" rx="30" ry="30" stroke="black" stroke-width="2" width="816.86622" x="534.0" y="0" /></clipPath><clipPath id="rounded_clip_q14.3"><rect fill="none" height="100" rx="30" ry="30" stroke="black" stroke-width="2" width="816.86622" x="534.0" y="0" /></clipPath><clipPath id="rounded_clip_q21"><rect fill="none" height="100" rx="30" ry="30" stroke="black" stroke-width="2" width="816.86622" x="534.0" y="0" /></clipPath><clipPath id="rounded_clip_q22.1"><rect fill="none" height="100" rx="30" ry="30" stroke="black" stroke-width="2" width="816.86622" x="534.0" y="0" /></clipPath><clipPath id="rounded_clip_q22.2"><rect fill="none" height="100" rx="30" ry="30" stroke="black" stroke-width="2" width="816.86622" x="534.0" y="0" /></clipPath><clipPath id="rounded_clip_q22.3"><rect fill="none" height="100" rx="30" ry="30" stroke="black" stroke-width="2" width="816.86622" x="534.0" y="0" /></clipPath><clipPath id="rounded_clip_q23.1"><rect fill="none" height="100" rx="30" ry="30" stroke="black" stroke-width="2" width="816.86622" x="534.0" y="0" /></clipPath><clipPath id="rounded_clip_q23.2"><rect fill="none" height="100" rx="30" ry="30" stroke="black" stroke-width="2" width="816.86622" x="534.0" y="0" /></clipPath><clipPath id="rounded_clip_q23.3"><rect fill="none" height="100" rx="30" ry="30" stroke="black" stroke-width="2" width="816.86622" x="534.0" y="0" /></clipPath><clipPath id="rounded_clip_q24.1"><rect fill="none" height="100" rx="30" ry="30" stroke="black" stroke-width="2" width="816.86622" x="534.0" y="0" /></clipPath><clipPath id="rounded_clip_q24.2"><rect fill="none" height="100" rx="30" ry="30" stroke="black" stroke-width="2" width="816.86622" x="534.0" y="0" /></clipPath><clipPath id="rounded_clip_q24.3"><rect fill="none" height="100" rx="30" ry="30" stroke="black" stroke-width="2" width="816.86622" x="534.0" y="0" /></clipPath><clipPath id="rounded_clip_q25"><rect fill="none" height="100" rx="30" ry="30" stroke="black" stroke-width="2" width="816.86622" x="534.0" y="0" /></clipPath></defs><rect clip-path="url(#rounded_clip_p15.5)" fill="url(#grad_gneg)" height="100" id="p15.5" width="28.0" x="0.0" y="0" /><rect clip-path="url(#rounded_clip_p15.4)" fill="url(#grad_gpos50)" height="100" id="p15.4" width="89.0" x="28.0" y="0" /><rect clip-path="url(#rounded_clip_p15.3)" fill="url(#grad_gneg)" height="100" id="p15.3" width="21.0" x="117.0" y="0" /><rect clip-path="url(#rounded_clip_p15.2)" fill="url(#grad_gpos50)" height="100" id="p15.2" width="31.0" x="138.0" y="0" /><rect clip-path="url(#rounded_clip_p15.1)" fill="url(#grad_gneg)" height="100" id="p15.1" width="51.0" x="169.0" y="0" /><rect clip-path="url(#rounded_clip_p14.3)" fill="url(#grad_gpos100)" height="100" id="p14.3" width="42.0" x="220.0" y="0" /><rect clip-path="url(#rounded_clip_p14.2)" fill="url(#grad_gneg)" height="100" id="p14.2" width="10.0" x="262.0" y="0" /><rect clip-path="url(#rounded_clip_p14.1)" fill="url(#grad_gpos75)" height="100" id="p14.1" width="38.0" x="272.0" y="0" /><rect clip-path="url(#rounded_clip_p13)" fill="url(#grad_gneg)" height="100" id="p13" width="54.0" x="310.0" y="0" /><rect clip-path="url(#rounded_clip_p12)" fill="url(#grad_gpos100)" height="100" id="p12" width="70.0" x="364.0" y="0" /><rect clip-path="url(#rounded_clip_p11.2)" fill="url(#grad_gneg)" height="100" id="p11.2" width="54.0" x="434.0" y="0" /><rect clip-path="url(#rounded_clip_p11.12)" fill="url(#grad_gpos75)" height="100" id="p11.12" width="22.0" x="488.0" y="0" /><rect clip-path="url(#rounded_clip_p11.11)" fill="url(#grad_acen)" height="100" id="p11.11" width="24.0" x="510.0" y="0" /><rect clip-path="url(#rounded_clip_q11)" fill="url(#grad_acen)" height="100" id="q11" width="24.0" x="534.0" y="0" /><rect clip-path="url(#rounded_clip_q12.1)" fill="url(#grad_gpos75)" height="100" id="q12.1" width="43.0" x="558.0" y="0" /><rect clip-path="url(#rounded_clip_q12.2)" fill="url(#grad_gneg)" height="100" id="q12.2" width="18.0" x="601.0" y="0" /><rect clip-path="url(#rounded_clip_q12.3)" fill="url(#grad_gpos25)" height="100" id="q12.3" width="17.0" x="619.0" y="0" /><rect clip-path="url(#rounded_clip_q13.1)" fill="url(#grad_gneg)" height="100" id="q13.1" width="25.0" x="636.0" y="0" /><rect clip-path="url(#rounded_clip_q13.2)" fill="url(#grad_gpos25)" height="100" id="q13.2" width="26.0" x="661.0" y="0" /><rect clip-path="url(#rounded_clip_q13.3)" fill="url(#grad_gneg)" height="100" id="q13.3" width="18.0" x="687.0" y="0" /><rect clip-path="url(#rounded_clip_q13.4)" fill="url(#grad_gpos50)" height="100" id="q13.4" width="50.0" x="705.0" y="0" /><rect clip-path="url(#rounded_clip_q13.5)" fill="url(#grad_gneg)" height="100" id="q13.5" width="19.0" x="755.0" y="0" /><rect clip-path="url(#rounded_clip_q14.1)" fill="url(#grad_gpos100)" height="100" id="q14.1" width="85.0" x="774.0" y="0" /><rect clip-path="url(#rounded_clip_q14.2)" fill="url(#grad_gneg)" height="100" id="q14.2" width="27.0" x="859.0" y="0" /><rect clip-path="url(#rounded_clip_q14.3)" fill="url(#grad_gpos100)" height="100" id="q14.3" width="44.0" x="886.0" y="0" /><rect clip-path="url(#rounded_clip_q21)" fill="url(#grad_gneg)" height="100" id="q21" width="44.0" x="930.0" y="0" /><rect clip-path="url(#rounded_clip_q22.1)" fill="url(#grad_gpos100)" height="100" id="q22.1" width="49.0" x="974.0" y="0" /><rect clip-path="url(#rounded_clip_q22.2)" fill="url(#grad_gneg)" height="100" id="q22.2" width="7.0" x="1023.0" y="0" /><rect clip-path="url(#rounded_clip_q22.3)" fill="url(#grad_gpos100)" height="100" id="q22.3" width="76.0" x="1030.0" y="0" /><rect clip-path="url(#rounded_clip_q23.1)" fill="url(#grad_gneg)" height="100" id="q23.1" width="21.0" x="1106.0" y="0" /><rect clip-path="url(#rounded_clip_q23.2)" fill="url(#grad_gpos50)" height="100" id="q23.2" width="19.0" x="1127.0" y="0" /><rect clip-path="url(#rounded_clip_q23.3)" fill="url(#grad_gneg)" height="100" id="q23.3" width="67.0" x="1146.0" y="0" /><rect clip-path="url(#rounded_clip_q24.1)" fill="url(#grad_gpos50)" height="100" id="q24.1" width="27.0" x="1213.0" y="0" /><rect clip-path="url(#rounded_clip_q24.2)" fill="url(#grad_gneg)" height="100" id="q24.2" width="39.0" x="1240.0" y="0" /><rect clip-path="url(#rounded_clip_q24.3)" fill="url(#grad_gpos50)" height="100" id="q24.3" width="30.0" x="1279.0" y="0" /><rect clip-path="url(#rounded_clip_q25)" fill="url(#grad_gneg)" height="100" id="q25" width="41.86622" x="1309.0" y="0" /><rect fill="none" height="100" rx="30" ry="30" stroke="black" stroke-width="2" width="534.0" x="0.0" y="0" /><rect fill="none" height="100" rx="30" ry="30" stroke="black" stroke-width="2" width="816.86622" x="534.0" y="0" /></svg>
