<?xml version="1.0" encoding="utf-8" ?>
<svg baseProfile="full" height="100" version="1.1" width="803.73285" xmlns="http://www.w3.org/2000/svg" xmlns:ev="http://www.w3.org/2001/xml-events" xmlns:xlink="http://www.w3.org/1999/xlink"><defs><linearGradient id="grad_gpos25" x1="0%" x2="0%" y1="0%" y2="100%"><stop offset="0.0" stop-color="#C8C8C8" /><stop offset="0.4" stop-color="#DCDCDC" /><stop offset="0.5" stop-color="#DCDCDC" /><stop offset="0.6" stop-color="#DCDCDC" /><stop offset="1.0" stop-color="#C8C8C8" /></linearGradient><linearGradient id="grad_gpos50" x1="0%" x2="0%" y1="0%" y2="100%"><stop offset="0.0" stop-color="#C8C8C8" /><stop offset="0.4" stop-color="#DCDCDC" /><stop offset="0.5" stop-color="#DCDCDC" /><stop offset="0.6" stop-color="#DCDCDC" /><stop offset="1.0" stop-color="#C8C8C8" /></linearGradient><linearGradient id="grad_gpos75" x1="0%" x2="0%" y1="0%" y2="100%"><stop offset="0.0" stop-color="#828282" /><stop offset="0.4" stop-color="#C6C6C6" /><stop offset="0.5" stop-color="#C6C6C6" /><stop offset="0.6" stop-color="#C6C6C6" /><stop offset="1.0" stop-color="#828282" /></linearGradient><linearGradient id="grad_gpos100" x1="0%" x2="0%" y1="0%" y2="100%"><stop offset="0.0" stop-color="#000000" /><stop offset="0.4" stop-color="#444444" /><stop offset="0.5" stop-color="#444444" /><stop offset="0.6" stop-color="#444444" /><stop offset="1.0" stop-color="#000000" /></linearGradient><linearGradient id="grad_gneg" x1="0%" x2="0%" y1="0%" y2="100%"><stop offset="0.0" stop-color="#FFFFFF" /><stop offset="0.4" stop-color="#FFFFFF" /><stop offset="0.5" stop-color="#FFFFFF" /><stop offset="0.6" stop-color="#FFFFFF" /><stop offset="1.0" stop-color="#FFFFFF" /></linearGradient><linearGradient id="grad_acen" x1="0%" x2="0%" y1="0%" y2="100%"><stop offset="0.0" stop-color="#D92F27" /><stop offset="0.4" stop-color="#F7574F" /><stop offset="0.5" stop-color="#F7574F" /><stop offset="0.6" stop-color="#F7574F" /><stop offset="1.0" stop-color="#D92F27" /></linearGradient><linearGradient id="grad_gvar" x1="0%" x2="0%" y1="0%" y2="100%"><stop offset="0.0" stop-color="#AAAAFF" /><stop offset="0.4" stop-color="#CCCCFF" /><stop offset="0.5" stop-color="#CCCCFF" /><stop offset="0.6" stop-color="#CCCCFF" /><stop offset="1.0" stop-color="#AAAAFF" /></linearGradient><linearGradient id="grad_stalk" x1="0%" x2="0%" y1="0%" y2="100%"><stop offset="0.0" stop-color="#647FA4" /><stop offset="0.4" stop-color="#647FA4" /><stop offset="0.5" stop-color="#647FA4" /><stop offset="0.6" stop-color="#647FA4" /><stop offset="1.0" stop-color="#647FA4" /></linearGradient><clipPath id="rounded_clip_p11.32"><rect fill="none" height="100" rx="30" ry="30" stroke="black" stroke-width="2" width="185.0" x="0.0" y="0" /></clipPath><clipPath id="rounded_clip_p11.31"><rect fill="none" height="100" rx="30" ry="30" stroke="black" stroke-width="2" width="185.0" x="0.0" y="0" /></clipPath><clipPath id="rounded_clip_p11.23"><rect fill="none" height="100" rx="30" ry="30" stroke="black" stroke-width="2" width="185.0" x="0.0" y="0" /></clipPath><clipPath id="rounded_clip_p11.22"><rect fill="none" height="100" rx="30" ry="30" stroke="black" stroke-width="2" width="185.0" x="0.0" y="0" /></clipPath><clipPath id="rounded_clip_p11.21"><rect fill="none" height="100" rx="30" ry="30" stroke="black" stroke-width="2" width="185.0" x="0.0" y="0" /></clipPath><clipPath id="rounded_clip_p11.1"><rect fill="none" height="100" rx="30" ry="30" stroke="black" stroke-width="2" width="185.0" x="0.0" y="0" /></clipPath><clipPath id="rounded_clip_q11.1"><rect fill="none" height="100" rx="30" ry="30" stroke="black" stroke-width="2" width="618.73285" x="185.0" y="0" /></clipPath><clipPath id="rounded_clip_q11.2"><rect fill="none" height="100" rx="30" ry="30" stroke="black" stroke-width="2" width="618.73285" x="185.0" y="0" /></clipPath><clipPath id="rounded_clip_q12.1"><rect fill="none" height="100" rx="30" ry="30" stroke="black" stroke-width="2" width="618.73285" x="185.0" y="0" /></clipPath><clipPath id="rounded_clip_q12.2"><rect fill="none" height="100" rx="30" ry="30" stroke="black" stroke-width="2" width="618.73285" x="185.0" y="0" /></clipPath><clipPath id="rounded_clip_q12.3"><rect fill="none" height="100" rx="30" ry="30" stroke="black" stroke-width="2" width="618.73285" x="185.0" y="0" /></clipPath><clipPath id="rounded_clip_q21.1"><rect fill="none" height="100" rx="30" ry="30" stroke="black" stroke-width="2" width="618.73285" x="185.0" y="0" /></clipPath><clipPath id="rounded_clip_q21.2"><rect fill="none" height="100" rx="30" ry="30" stroke="black" stroke-width="2" width="618.73285" x="185.0" y="0" /></clipPath><clipPath id="rounded_clip_q21.31"><rect fill="none" height="100" rx="30" ry="30" stroke="black" stroke-width="2" width="618.73285" x="185.0" y="0" /></clipPath><clipPath id="rounded_clip_q21.32"><rect fill="none" height="100" rx="30" ry="30" stroke="black" stroke-width="2" width="618.73285" x="185.0" y="0" /></clipPath><clipPath id="rounded_clip_q21.33"><rect fill="none" height="100" rx="30" ry="30" stroke="black" stroke-width="2" width="618.73285" x="185.0" y="0" /></clipPath><clipPath id="rounded_clip_q22.1"><rect fill="none" height="100" rx="30" ry="30" stroke="black" stroke-width="2" width="618.73285" x="185.0" y="0" /></clipPath><clipPath id="rounded_clip_q22.2"><rect fill="none" height="100" rx="30" ry="30" stroke="black" stroke-width="2" width="618.73285" x="185.0" y="0" /></clipPath><clipPath id="rounded_clip_q22.3"><rect fill="none" height="100" rx="30" ry="30" stroke="black" stroke-width="2" width="618.73285" x="185.0" y="0" /></clipPath><clipPath id="rounded_clip_q23"><rect fill="none" height="100" rx="30" ry="30" stroke="black" stroke-width="2" width="618.73285" x="185.0" y="0" /></clipPath></defs><rect clip-path="url(#rounded_clip_p11.32)" fill="url(#grad_gneg)" height="100" id="p11.32" width="29.0" x="0.0" y="0" /><rect clip-path="url(#rounded_clip_p11.31)" fill="url(#grad_gpos50)" height="100" id="p11.31" width="43.0" x="29.0" y="0" /><rect clip-path="url(#rounded_clip_p11.23)" fill="url(#grad_gneg)" height="100" id="p11.23" width="13.0" x="72.0" y="0" /><rect clip-path="url(#rounded_clip_p11.22)" fill="url(#grad_gpos25)" height="100" id="p11.22" width="24.0" x="85.0" y="0" /><rect clip-path="url(#rounded_clip_p11.21)" fill="url(#grad_gneg)" height="100" id="p11.21" width="45.0" x="109.0" y="0" /><rect clip-path="url(#rounded_clip_p11.1)" fill="url(#grad_acen)" height="100" id="p11.1" width="31.0" x="154.0" y="0" /><rect clip-path="url(#rounded_clip_q11.1)" fill="url(#grad_acen)" height="100" id="q11.1" width="30.0" x="185.0" y="0" /><rect clip-path="url(#rounded_clip_q11.2)" fill="url(#grad_gneg)" height="100" id="q11.2" width="60.0" x="215.0" y="0" /><rect clip-path="url(#rounded_clip_q12.1)" fill="url(#grad_gpos100)" height="100" id="q12.1" width="76.0" x="275.0" y="0" /><rect clip-path="url(#rounded_clip_q12.2)" fill="url(#grad_gneg)" height="100" id="q12.2" width="44.0" x="351.0" y="0" /><rect clip-path="url(#rounded_clip_q12.3)" fill="url(#grad_gpos75)" height="100" id="q12.3" width="64.0" x="395.0" y="0" /><rect clip-path="url(#rounded_clip_q21.1)" fill="url(#grad_gneg)" height="100" id="q21.1" width="48.0" x="459.0" y="0" /><rect clip-path="url(#rounded_clip_q21.2)" fill="url(#grad_gpos75)" height="100" id="q21.2" width="55.0" x="507.0" y="0" /><rect clip-path="url(#rounded_clip_q21.31)" fill="url(#grad_gneg)" height="100" id="q21.31" width="24.0" x="562.0" y="0" /><rect clip-path="url(#rounded_clip_q21.32)" fill="url(#grad_gpos50)" height="100" id="q21.32" width="27.0" x="586.0" y="0" /><rect clip-path="url(#rounded_clip_q21.33)" fill="url(#grad_gneg)" height="100" id="q21.33" width="26.0" x="613.0" y="0" /><rect clip-path="url(#rounded_clip_q22.1)" fill="url(#grad_gpos100)" height="100" id="q22.1" width="52.0" x="639.0" y="0" /><rect clip-path="url(#rounded_clip_q22.2)" fill="url(#grad_gneg)" height="100" id="q22.2" width="19.0" x="691.0" y="0" /><rect clip-path="url(#rounded_clip_q22.3)" fill="url(#grad_gpos25)" height="100" id="q22.3" width="44.0" x="710.0" y="0" /><rect clip-path="url(#rounded_clip_q23)" fill="url(#grad_gneg)" height="100" id="q23" width="49.73285" x="754.0" y="0" /><rect fill="none" height="100" rx="30" ry="30" stroke="black" stroke-width="2" width="185.0" x="0.0" y="0" /><rect fill="none" height="100" rx="30" ry="30" stroke="black" stroke-width="2" width="618.73285" x="185.0" y="0" /></svg>
