<?xml version="1.0" encoding="utf-8" ?>
<svg baseProfile="full" height="100" version="1.1" width="832.57441" xmlns="http://www.w3.org/2000/svg" xmlns:ev="http://www.w3.org/2001/xml-events" xmlns:xlink="http://www.w3.org/1999/xlink"><defs><linearGradient id="grad_gpos25" x1="0%" x2="0%" y1="0%" y2="100%"><stop offset="0.0" stop-color="#C8C8C8" /><stop offset="0.4" stop-color="#DCDCDC" /><stop offset="0.5" stop-color="#DCDCDC" /><stop offset="0.6" stop-color="#DCDCDC" /><stop offset="1.0" stop-color="#C8C8C8" /></linearGradient><linearGradient id="grad_gpos50" x1="0%" x2="0%" y1="0%" y2="100%"><stop offset="0.0" stop-color="#C8C8C8" /><stop offset="0.4" stop-color="#DCDCDC" /><stop offset="0.5" stop-color="#DCDCDC" /><stop offset="0.6" stop-color="#DCDCDC" /><stop offset="1.0" stop-color="#C8C8C8" /></linearGradient><linearGradient id="grad_gpos75" x1="0%" x2="0%" y1="0%" y2="100%"><stop offset="0.0" stop-color="#828282" /><stop offset="0.4" stop-color="#C6C6C6" /><stop offset="0.5" stop-color="#C6C6C6" /><stop offset="0.6" stop-color="#C6C6C6" /><stop offset="1.0" stop-color="#828282" /></linearGradient><linearGradient id="grad_gpos100" x1="0%" x2="0%" y1="0%" y2="100%"><stop offset="0.0" stop-color="#000000" /><stop offset="0.4" stop-color="#444444" /><stop offset="0.5" stop-color="#444444" /><stop offset="0.6" stop-color="#444444" /><stop offset="1.0" stop-color="#000000" /></linearGradient><linearGradient id="grad_gneg" x1="0%" x2="0%" y1="0%" y2="100%"><stop offset="0.0" stop-color="#FFFFFF" /><stop offset="0.4" stop-color="#FFFFFF" /><stop offset="0.5" stop-color="#FFFFFF" /><stop offset="0.6" stop-color="#FFFFFF" /><stop offset="1.0" stop-color="#FFFFFF" /></linearGradient><linearGradient id="grad_acen" x1="0%" x2="0%" y1="0%" y2="100%"><stop offset="0.0" stop-color="#D92F27" /><stop offset="0.4" stop-color="#F7574F" /><stop offset="0.5" stop-color="#F7574F" /><stop offset="0.6" stop-color="#F7574F" /><stop offset="1.0" stop-color="#D92F27" /></linearGradient><linearGradient id="grad_gvar" x1="0%" x2="0%" y1="0%" y2="100%"><stop offset="0.0" stop-color="#AAAAFF" /><stop offset="0.4" stop-color="#CCCCFF" /><stop offset="0.5" stop-color="#CCCCFF" /><stop offset="0.6" stop-color="#CCCCFF" /><stop offset="1.0" stop-color="#AAAAFF" /></linearGradient><linearGradient id="grad_stalk" x1="0%" x2="0%" y1="0%" y2="100%"><stop offset="0.0" stop-color="#647FA4" /><stop offset="0.4" stop-color="#647FA4" /><stop offset="0.5" stop-color="#647FA4" /><stop offset="0.6" stop-color="#647FA4" /><stop offset="1.0" stop-color="#647FA4" /></linearGradient><clipPath id="rounded_clip_p13.3"><rect fill="none" height="100" rx="30" ry="30" stroke="black" stroke-width="2" width="251.0" x="0.0" y="0" /></clipPath><clipPath id="rounded_clip_p13.2"><rect fill="none" height="100" rx="30" ry="30" stroke="black" stroke-width="2" width="251.0" x="0.0" y="0" /></clipPath><clipPath id="rounded_clip_p13.1"><rect fill="none" height="100" rx="30" ry="30" stroke="black" stroke-width="2" width="251.0" x="0.0" y="0" /></clipPath><clipPath id="rounded_clip_p12"><rect fill="none" height="100" rx="30" ry="30" stroke="black" stroke-width="2" width="251.0" x="0.0" y="0" /></clipPath><clipPath id="rounded_clip_p11.2"><rect fill="none" height="100" rx="30" ry="30" stroke="black" stroke-width="2" width="251.0" x="0.0" y="0" /></clipPath><clipPath id="rounded_clip_p11.1"><rect fill="none" height="100" rx="30" ry="30" stroke="black" stroke-width="2" width="251.0" x="0.0" y="0" /></clipPath><clipPath id="rounded_clip_q11.1"><rect fill="none" height="100" rx="30" ry="30" stroke="black" stroke-width="2" width="581.57441" x="251.0" y="0" /></clipPath><clipPath id="rounded_clip_q11.2"><rect fill="none" height="100" rx="30" ry="30" stroke="black" stroke-width="2" width="581.57441" x="251.0" y="0" /></clipPath><clipPath id="rounded_clip_q12"><rect fill="none" height="100" rx="30" ry="30" stroke="black" stroke-width="2" width="581.57441" x="251.0" y="0" /></clipPath><clipPath id="rounded_clip_q21.1"><rect fill="none" height="100" rx="30" ry="30" stroke="black" stroke-width="2" width="581.57441" x="251.0" y="0" /></clipPath><clipPath id="rounded_clip_q21.2"><rect fill="none" height="100" rx="30" ry="30" stroke="black" stroke-width="2" width="581.57441" x="251.0" y="0" /></clipPath><clipPath id="rounded_clip_q21.31"><rect fill="none" height="100" rx="30" ry="30" stroke="black" stroke-width="2" width="581.57441" x="251.0" y="0" /></clipPath><clipPath id="rounded_clip_q21.32"><rect fill="none" height="100" rx="30" ry="30" stroke="black" stroke-width="2" width="581.57441" x="251.0" y="0" /></clipPath><clipPath id="rounded_clip_q21.33"><rect fill="none" height="100" rx="30" ry="30" stroke="black" stroke-width="2" width="581.57441" x="251.0" y="0" /></clipPath><clipPath id="rounded_clip_q22"><rect fill="none" height="100" rx="30" ry="30" stroke="black" stroke-width="2" width="581.57441" x="251.0" y="0" /></clipPath><clipPath id="rounded_clip_q23.1"><rect fill="none" height="100" rx="30" ry="30" stroke="black" stroke-width="2" width="581.57441" x="251.0" y="0" /></clipPath><clipPath id="rounded_clip_q23.2"><rect fill="none" height="100" rx="30" ry="30" stroke="black" stroke-width="2" width="581.57441" x="251.0" y="0" /></clipPath><clipPath id="rounded_clip_q23.3"><rect fill="none" height="100" rx="30" ry="30" stroke="black" stroke-width="2" width="581.57441" x="251.0" y="0" /></clipPath><clipPath id="rounded_clip_q24.1"><rect fill="none" height="100" rx="30" ry="30" stroke="black" stroke-width="2" width="581.57441" x="251.0" y="0" /></clipPath><clipPath id="rounded_clip_q24.2"><rect fill="none" height="100" rx="30" ry="30" stroke="black" stroke-width="2" width="581.57441" x="251.0" y="0" /></clipPath><clipPath id="rounded_clip_q24.3"><rect fill="none" height="100" rx="30" ry="30" stroke="black" stroke-width="2" width="581.57441" x="251.0" y="0" /></clipPath><clipPath id="rounded_clip_q25.1"><rect fill="none" height="100" rx="30" ry="30" stroke="black" stroke-width="2" width="581.57441" x="251.0" y="0" /></clipPath><clipPath id="rounded_clip_q25.2"><rect fill="none" height="100" rx="30" ry="30" stroke="black" stroke-width="2" width="581.57441" x="251.0" y="0" /></clipPath><clipPath id="rounded_clip_q25.3"><rect fill="none" height="100" rx="30" ry="30" stroke="black" stroke-width="2" width="581.57441" x="251.0" y="0" /></clipPath></defs><rect clip-path="url(#rounded_clip_p13.3)" fill="url(#grad_gneg)" height="100" id="p13.3" width="34.0" x="0.0" y="0" /><rect clip-path="url(#rounded_clip_p13.2)" fill="url(#grad_gpos50)" height="100" id="p13.2" width="31.0" x="34.0" y="0" /><rect clip-path="url(#rounded_clip_p13.1)" fill="url(#grad_gneg)" height="100" id="p13.1" width="43.0" x="65.0" y="0" /><rect clip-path="url(#rounded_clip_p12)" fill="url(#grad_gpos75)" height="100" id="p12" width="53.0" x="108.0" y="0" /><rect clip-path="url(#rounded_clip_p11.2)" fill="url(#grad_gneg)" height="100" id="p11.2" width="66.0" x="161.0" y="0" /><rect clip-path="url(#rounded_clip_p11.1)" fill="url(#grad_acen)" height="100" id="p11.1" width="24.0" x="227.0" y="0" /><rect clip-path="url(#rounded_clip_q11.1)" fill="url(#grad_acen)" height="100" id="q11.1" width="23.0" x="251.0" y="0" /><rect clip-path="url(#rounded_clip_q11.2)" fill="url(#grad_gneg)" height="100" id="q11.2" width="61.0" x="274.0" y="0" /><rect clip-path="url(#rounded_clip_q12)" fill="url(#grad_gpos50)" height="100" id="q12" width="63.0" x="335.0" y="0" /><rect clip-path="url(#rounded_clip_q21.1)" fill="url(#grad_gneg)" height="100" id="q21.1" width="4.0" x="398.0" y="0" /><rect clip-path="url(#rounded_clip_q21.2)" fill="url(#grad_gpos25)" height="100" id="q21.2" width="26.0" x="402.0" y="0" /><rect clip-path="url(#rounded_clip_q21.31)" fill="url(#grad_gneg)" height="100" id="q21.31" width="40.0" x="428.0" y="0" /><rect clip-path="url(#rounded_clip_q21.32)" fill="url(#grad_gpos25)" height="100" id="q21.32" width="25.0" x="468.0" y="0" /><rect clip-path="url(#rounded_clip_q21.33)" fill="url(#grad_gneg)" height="100" id="q21.33" width="28.0" x="493.0" y="0" /><rect clip-path="url(#rounded_clip_q22)" fill="url(#grad_gpos75)" height="100" id="q22" width="74.0" x="521.0" y="0" /><rect clip-path="url(#rounded_clip_q23.1)" fill="url(#grad_gneg)" height="100" id="q23.1" width="7.0" x="595.0" y="0" /><rect clip-path="url(#rounded_clip_q23.2)" fill="url(#grad_gpos75)" height="100" id="q23.2" width="29.0" x="602.0" y="0" /><rect clip-path="url(#rounded_clip_q23.3)" fill="url(#grad_gneg)" height="100" id="q23.3" width="15.0" x="631.0" y="0" /><rect clip-path="url(#rounded_clip_q24.1)" fill="url(#grad_gpos50)" height="100" id="q24.1" width="16.0" x="646.0" y="0" /><rect clip-path="url(#rounded_clip_q24.2)" fill="url(#grad_gneg)" height="100" id="q24.2" width="29.0" x="662.0" y="0" /><rect clip-path="url(#rounded_clip_q24.3)" fill="url(#grad_gpos75)" height="100" id="q24.3" width="38.0" x="691.0" y="0" /><rect clip-path="url(#rounded_clip_q25.1)" fill="url(#grad_gneg)" height="100" id="q25.1" width="39.0" x="729.0" y="0" /><rect clip-path="url(#rounded_clip_q25.2)" fill="url(#grad_gpos25)" height="100" id="q25.2" width="4.0" x="768.0" y="0" /><rect clip-path="url(#rounded_clip_q25.3)" fill="url(#grad_gneg)" height="100" id="q25.3" width="60.57441" x="772.0" y="0" /><rect fill="none" height="100" rx="30" ry="30" stroke="black" stroke-width="2" width="251.0" x="0.0" y="0" /><rect fill="none" height="100" rx="30" ry="30" stroke="black" stroke-width="2" width="581.57441" x="251.0" y="0" /></svg>
