<?xml version="1.0" encoding="utf-8" ?>
<svg baseProfile="full" height="100" version="1.1" width="644.44167" xmlns="http://www.w3.org/2000/svg" xmlns:ev="http://www.w3.org/2001/xml-events" xmlns:xlink="http://www.w3.org/1999/xlink"><defs><linearGradient id="grad_gpos25" x1="0%" x2="0%" y1="0%" y2="100%"><stop offset="0.0" stop-color="#C8C8C8" /><stop offset="0.4" stop-color="#DCDCDC" /><stop offset="0.5" stop-color="#DCDCDC" /><stop offset="0.6" stop-color="#DCDCDC" /><stop offset="1.0" stop-color="#C8C8C8" /></linearGradient><linearGradient id="grad_gpos50" x1="0%" x2="0%" y1="0%" y2="100%"><stop offset="0.0" stop-color="#C8C8C8" /><stop offset="0.4" stop-color="#DCDCDC" /><stop offset="0.5" stop-color="#DCDCDC" /><stop offset="0.6" stop-color="#DCDCDC" /><stop offset="1.0" stop-color="#C8C8C8" /></linearGradient><linearGradient id="grad_gpos75" x1="0%" x2="0%" y1="0%" y2="100%"><stop offset="0.0" stop-color="#828282" /><stop offset="0.4" stop-color="#C6C6C6" /><stop offset="0.5" stop-color="#C6C6C6" /><stop offset="0.6" stop-color="#C6C6C6" /><stop offset="1.0" stop-color="#828282" /></linearGradient><linearGradient id="grad_gpos100" x1="0%" x2="0%" y1="0%" y2="100%"><stop offset="0.0" stop-color="#000000" /><stop offset="0.4" stop-color="#444444" /><stop offset="0.5" stop-color="#444444" /><stop offset="0.6" stop-color="#444444" /><stop offset="1.0" stop-color="#000000" /></linearGradient><linearGradient id="grad_gneg" x1="0%" x2="0%" y1="0%" y2="100%"><stop offset="0.0" stop-color="#FFFFFF" /><stop offset="0.4" stop-color="#FFFFFF" /><stop offset="0.5" stop-color="#FFFFFF" /><stop offset="0.6" stop-color="#FFFFFF" /><stop offset="1.0" stop-color="#FFFFFF" /></linearGradient><linearGradient id="grad_acen" x1="0%" x2="0%" y1="0%" y2="100%"><stop offset="0.0" stop-color="#D92F27" /><stop offset="0.4" stop-color="#F7574F" /><stop offset="0.5" stop-color="#F7574F" /><stop offset="0.6" stop-color="#F7574F" /><stop offset="1.0" stop-color="#D92F27" /></linearGradient><linearGradient id="grad_gvar" x1="0%" x2="0%" y1="0%" y2="100%"><stop offset="0.0" stop-color="#AAAAFF" /><stop offset="0.4" stop-color="#CCCCFF" /><stop offset="0.5" stop-color="#CCCCFF" /><stop offset="0.6" stop-color="#CCCCFF" /><stop offset="1.0" stop-color="#AAAAFF" /></linearGradient><linearGradient id="grad_stalk" x1="0%" x2="0%" y1="0%" y2="100%"><stop offset="0.0" stop-color="#647FA4" /><stop offset="0.4" stop-color="#647FA4" /><stop offset="0.5" stop-color="#647FA4" /><stop offset="0.6" stop-color="#647FA4" /><stop offset="1.0" stop-color="#647FA4" /></linearGradient><clipPath id="rounded_clip_p13"><rect fill="none" height="100" rx="30" ry="30" stroke="black" stroke-width="2" width="281.0" x="0.0" y="0" /></clipPath><clipPath id="rounded_clip_p12.3"><rect fill="none" height="100" rx="30" ry="30" stroke="black" stroke-width="2" width="281.0" x="0.0" y="0" /></clipPath><clipPath id="rounded_clip_p12.2"><rect fill="none" height="100" rx="30" ry="30" stroke="black" stroke-width="2" width="281.0" x="0.0" y="0" /></clipPath><clipPath id="rounded_clip_p12.1"><rect fill="none" height="100" rx="30" ry="30" stroke="black" stroke-width="2" width="281.0" x="0.0" y="0" /></clipPath><clipPath id="rounded_clip_p11.23"><rect fill="none" height="100" rx="30" ry="30" stroke="black" stroke-width="2" width="281.0" x="0.0" y="0" /></clipPath><clipPath id="rounded_clip_p11.22"><rect fill="none" height="100" rx="30" ry="30" stroke="black" stroke-width="2" width="281.0" x="0.0" y="0" /></clipPath><clipPath id="rounded_clip_p11.21"><rect fill="none" height="100" rx="30" ry="30" stroke="black" stroke-width="2" width="281.0" x="0.0" y="0" /></clipPath><clipPath id="rounded_clip_p11.1"><rect fill="none" height="100" rx="30" ry="30" stroke="black" stroke-width="2" width="281.0" x="0.0" y="0" /></clipPath><clipPath id="rounded_clip_q11.1"><rect fill="none" height="100" rx="30" ry="30" stroke="black" stroke-width="2" width="363.44167" x="281.0" y="0" /></clipPath><clipPath id="rounded_clip_q11.21"><rect fill="none" height="100" rx="30" ry="30" stroke="black" stroke-width="2" width="363.44167" x="281.0" y="0" /></clipPath><clipPath id="rounded_clip_q11.22"><rect fill="none" height="100" rx="30" ry="30" stroke="black" stroke-width="2" width="363.44167" x="281.0" y="0" /></clipPath><clipPath id="rounded_clip_q11.23"><rect fill="none" height="100" rx="30" ry="30" stroke="black" stroke-width="2" width="363.44167" x="281.0" y="0" /></clipPath><clipPath id="rounded_clip_q12"><rect fill="none" height="100" rx="30" ry="30" stroke="black" stroke-width="2" width="363.44167" x="281.0" y="0" /></clipPath><clipPath id="rounded_clip_q13.11"><rect fill="none" height="100" rx="30" ry="30" stroke="black" stroke-width="2" width="363.44167" x="281.0" y="0" /></clipPath><clipPath id="rounded_clip_q13.12"><rect fill="none" height="100" rx="30" ry="30" stroke="black" stroke-width="2" width="363.44167" x="281.0" y="0" /></clipPath><clipPath id="rounded_clip_q13.13"><rect fill="none" height="100" rx="30" ry="30" stroke="black" stroke-width="2" width="363.44167" x="281.0" y="0" /></clipPath><clipPath id="rounded_clip_q13.2"><rect fill="none" height="100" rx="30" ry="30" stroke="black" stroke-width="2" width="363.44167" x="281.0" y="0" /></clipPath><clipPath id="rounded_clip_q13.31"><rect fill="none" height="100" rx="30" ry="30" stroke="black" stroke-width="2" width="363.44167" x="281.0" y="0" /></clipPath><clipPath id="rounded_clip_q13.32"><rect fill="none" height="100" rx="30" ry="30" stroke="black" stroke-width="2" width="363.44167" x="281.0" y="0" /></clipPath><clipPath id="rounded_clip_q13.33"><rect fill="none" height="100" rx="30" ry="30" stroke="black" stroke-width="2" width="363.44167" x="281.0" y="0" /></clipPath></defs><rect clip-path="url(#rounded_clip_p13)" fill="url(#grad_gneg)" height="100" id="p13" width="51.0" x="0.0" y="0" /><rect clip-path="url(#rounded_clip_p12.3)" fill="url(#grad_gpos75)" height="100" id="p12.3" width="41.0" x="51.0" y="0" /><rect clip-path="url(#rounded_clip_p12.2)" fill="url(#grad_gneg)" height="100" id="p12.2" width="28.0" x="92.0" y="0" /><rect clip-path="url(#rounded_clip_p12.1)" fill="url(#grad_gpos75)" height="100" id="p12.1" width="59.0" x="120.0" y="0" /><rect clip-path="url(#rounded_clip_p11.23)" fill="url(#grad_gneg)" height="100" id="p11.23" width="34.0" x="179.0" y="0" /><rect clip-path="url(#rounded_clip_p11.22)" fill="url(#grad_gpos25)" height="100" id="p11.22" width="10.0" x="213.0" y="0" /><rect clip-path="url(#rounded_clip_p11.21)" fill="url(#grad_gneg)" height="100" id="p11.21" width="34.0" x="223.0" y="0" /><rect clip-path="url(#rounded_clip_p11.1)" fill="url(#grad_acen)" height="100" id="p11.1" width="24.0" x="257.0" y="0" /><rect clip-path="url(#rounded_clip_q11.1)" fill="url(#grad_acen)" height="100" id="q11.1" width="23.0" x="281.0" y="0" /><rect clip-path="url(#rounded_clip_q11.21)" fill="url(#grad_gneg)" height="100" id="q11.21" width="31.0" x="304.0" y="0" /><rect clip-path="url(#rounded_clip_q11.22)" fill="url(#grad_gpos25)" height="100" id="q11.22" width="23.0" x="335.0" y="0" /><rect clip-path="url(#rounded_clip_q11.23)" fill="url(#grad_gneg)" height="100" id="q11.23" width="32.0" x="358.0" y="0" /><rect clip-path="url(#rounded_clip_q12)" fill="url(#grad_gpos75)" height="100" id="q12" width="41.0" x="390.0" y="0" /><rect clip-path="url(#rounded_clip_q13.11)" fill="url(#grad_gneg)" height="100" id="q13.11" width="4.0" x="431.0" y="0" /><rect clip-path="url(#rounded_clip_q13.12)" fill="url(#grad_gpos25)" height="100" id="q13.12" width="43.0" x="435.0" y="0" /><rect clip-path="url(#rounded_clip_q13.13)" fill="url(#grad_gneg)" height="100" id="q13.13" width="34.0" x="478.0" y="0" /><rect clip-path="url(#rounded_clip_q13.2)" fill="url(#grad_gpos75)" height="100" id="q13.2" width="52.0" x="512.0" y="0" /><rect clip-path="url(#rounded_clip_q13.31)" fill="url(#grad_gneg)" height="100" id="q13.31" width="14.0" x="564.0" y="0" /><rect clip-path="url(#rounded_clip_q13.32)" fill="url(#grad_gpos50)" height="100" id="q13.32" width="19.0" x="578.0" y="0" /><rect clip-path="url(#rounded_clip_q13.33)" fill="url(#grad_gneg)" height="100" id="q13.33" width="47.44167" x="597.0" y="0" /><rect fill="none" height="100" rx="30" ry="30" stroke="black" stroke-width="2" width="281.0" x="0.0" y="0" /><rect fill="none" height="100" rx="30" ry="30" stroke="black" stroke-width="2" width="363.44167" x="281.0" y="0" /></svg>
