<?xml version="1.0" encoding="utf-8" ?>
<svg baseProfile="full" height="100" version="1.1" width="508.18468" xmlns="http://www.w3.org/2000/svg" xmlns:ev="http://www.w3.org/2001/xml-events" xmlns:xlink="http://www.w3.org/1999/xlink"><defs><linearGradient id="grad_gpos25" x1="0%" x2="0%" y1="0%" y2="100%"><stop offset="0.0" stop-color="#C8C8C8" /><stop offset="0.4" stop-color="#DCDCDC" /><stop offset="0.5" stop-color="#DCDCDC" /><stop offset="0.6" stop-color="#DCDCDC" /><stop offset="1.0" stop-color="#C8C8C8" /></linearGradient><linearGradient id="grad_gpos50" x1="0%" x2="0%" y1="0%" y2="100%"><stop offset="0.0" stop-color="#C8C8C8" /><stop offset="0.4" stop-color="#DCDCDC" /><stop offset="0.5" stop-color="#DCDCDC" /><stop offset="0.6" stop-color="#DCDCDC" /><stop offset="1.0" stop-color="#C8C8C8" /></linearGradient><linearGradient id="grad_gpos75" x1="0%" x2="0%" y1="0%" y2="100%"><stop offset="0.0" stop-color="#828282" /><stop offset="0.4" stop-color="#C6C6C6" /><stop offset="0.5" stop-color="#C6C6C6" /><stop offset="0.6" stop-color="#C6C6C6" /><stop offset="1.0" stop-color="#828282" /></linearGradient><linearGradient id="grad_gpos100" x1="0%" x2="0%" y1="0%" y2="100%"><stop offset="0.0" stop-color="#000000" /><stop offset="0.4" stop-color="#444444" /><stop offset="0.5" stop-color="#444444" /><stop offset="0.6" stop-color="#444444" /><stop offset="1.0" stop-color="#000000" /></linearGradient><linearGradient id="grad_gneg" x1="0%" x2="0%" y1="0%" y2="100%"><stop offset="0.0" stop-color="#FFFFFF" /><stop offset="0.4" stop-color="#FFFFFF" /><stop offset="0.5" stop-color="#FFFFFF" /><stop offset="0.6" stop-color="#FFFFFF" /><stop offset="1.0" stop-color="#FFFFFF" /></linearGradient><linearGradient id="grad_acen" x1="0%" x2="0%" y1="0%" y2="100%"><stop offset="0.0" stop-color="#D92F27" /><stop offset="0.4" stop-color="#F7574F" /><stop offset="0.5" stop-color="#F7574F" /><stop offset="0.6" stop-color="#F7574F" /><stop offset="1.0" stop-color="#D92F27" /></linearGradient><linearGradient id="grad_gvar" x1="0%" x2="0%" y1="0%" y2="100%"><stop offset="0.0" stop-color="#AAAAFF" /><stop offset="0.4" stop-color="#CCCCFF" /><stop offset="0.5" stop-color="#CCCCFF" /><stop offset="0.6" stop-color="#CCCCFF" /><stop offset="1.0" stop-color="#AAAAFF" /></linearGradient><linearGradient id="grad_stalk" x1="0%" x2="0%" y1="0%" y2="100%"><stop offset="0.0" stop-color="#647FA4" /><stop offset="0.4" stop-color="#647FA4" /><stop offset="0.5" stop-color="#647FA4" /><stop offset="0.6" stop-color="#647FA4" /><stop offset="1.0" stop-color="#647FA4" /></linearGradient><clipPath id="rounded_clip_p13"><rect fill="none" height="100" rx="30" ry="30" stroke="black" stroke-width="2" width="150.0" x="0.0" y="0" /></clipPath><clipPath id="rounded_clip_p12"><rect fill="none" height="100" rx="30" ry="30" stroke="black" stroke-width="2" width="150.0" x="0.0" y="0" /></clipPath><clipPath id="rounded_clip_p11.2"><rect fill="none" height="100" rx="30" ry="30" stroke="black" stroke-width="2" width="150.0" x="0.0" y="0" /></clipPath><clipPath id="rounded_clip_p11.1"><rect fill="none" height="100" rx="30" ry="30" stroke="black" stroke-width="2" width="150.0" x="0.0" y="0" /></clipPath><clipPath id="rounded_clip_q11.1"><rect fill="none" height="100" rx="30" ry="30" stroke="black" stroke-width="2" width="358.18468" x="150.0" y="0" /></clipPath><clipPath id="rounded_clip_q11.21"><rect fill="none" height="100" rx="30" ry="30" stroke="black" stroke-width="2" width="358.18468" x="150.0" y="0" /></clipPath><clipPath id="rounded_clip_q11.22"><rect fill="none" height="100" rx="30" ry="30" stroke="black" stroke-width="2" width="358.18468" x="150.0" y="0" /></clipPath><clipPath id="rounded_clip_q11.23"><rect fill="none" height="100" rx="30" ry="30" stroke="black" stroke-width="2" width="358.18468" x="150.0" y="0" /></clipPath><clipPath id="rounded_clip_q12.1"><rect fill="none" height="100" rx="30" ry="30" stroke="black" stroke-width="2" width="358.18468" x="150.0" y="0" /></clipPath><clipPath id="rounded_clip_q12.2"><rect fill="none" height="100" rx="30" ry="30" stroke="black" stroke-width="2" width="358.18468" x="150.0" y="0" /></clipPath><clipPath id="rounded_clip_q12.3"><rect fill="none" height="100" rx="30" ry="30" stroke="black" stroke-width="2" width="358.18468" x="150.0" y="0" /></clipPath><clipPath id="rounded_clip_q13.1"><rect fill="none" height="100" rx="30" ry="30" stroke="black" stroke-width="2" width="358.18468" x="150.0" y="0" /></clipPath><clipPath id="rounded_clip_q13.2"><rect fill="none" height="100" rx="30" ry="30" stroke="black" stroke-width="2" width="358.18468" x="150.0" y="0" /></clipPath><clipPath id="rounded_clip_q13.31"><rect fill="none" height="100" rx="30" ry="30" stroke="black" stroke-width="2" width="358.18468" x="150.0" y="0" /></clipPath><clipPath id="rounded_clip_q13.32"><rect fill="none" height="100" rx="30" ry="30" stroke="black" stroke-width="2" width="358.18468" x="150.0" y="0" /></clipPath><clipPath id="rounded_clip_q13.33"><rect fill="none" height="100" rx="30" ry="30" stroke="black" stroke-width="2" width="358.18468" x="150.0" y="0" /></clipPath></defs><rect clip-path="url(#rounded_clip_p13)" fill="url(#grad_gvar)" height="100" id="p13" width="43.0" x="0.0" y="0" /><rect clip-path="url(#rounded_clip_p12)" fill="url(#grad_stalk)" height="100" id="p12" width="51.0" x="43.0" y="0" /><rect clip-path="url(#rounded_clip_p11.2)" fill="url(#grad_gvar)" height="100" id="p11.2" width="43.0" x="94.0" y="0" /><rect clip-path="url(#rounded_clip_p11.1)" fill="url(#grad_acen)" height="100" id="p11.1" width="13.0" x="137.0" y="0" /><rect clip-path="url(#rounded_clip_q11.1)" fill="url(#grad_acen)" height="100" id="q11.1" width="24.0" x="150.0" y="0" /><rect clip-path="url(#rounded_clip_q11.21)" fill="url(#grad_gneg)" height="100" id="q11.21" width="43.0" x="174.0" y="0" /><rect clip-path="url(#rounded_clip_q11.22)" fill="url(#grad_gpos25)" height="100" id="q11.22" width="14.0" x="217.0" y="0" /><rect clip-path="url(#rounded_clip_q11.23)" fill="url(#grad_gneg)" height="100" id="q11.23" width="24.0" x="231.0" y="0" /><rect clip-path="url(#rounded_clip_q12.1)" fill="url(#grad_gpos50)" height="100" id="q12.1" width="37.0" x="255.0" y="0" /><rect clip-path="url(#rounded_clip_q12.2)" fill="url(#grad_gneg)" height="100" id="q12.2" width="26.0" x="292.0" y="0" /><rect clip-path="url(#rounded_clip_q12.3)" fill="url(#grad_gpos50)" height="100" id="q12.3" width="54.0" x="318.0" y="0" /><rect clip-path="url(#rounded_clip_q13.1)" fill="url(#grad_gneg)" height="100" id="q13.1" width="34.0" x="372.0" y="0" /><rect clip-path="url(#rounded_clip_q13.2)" fill="url(#grad_gpos50)" height="100" id="q13.2" width="32.0" x="406.0" y="0" /><rect clip-path="url(#rounded_clip_q13.31)" fill="url(#grad_gneg)" height="100" id="q13.31" width="43.0" x="438.0" y="0" /><rect clip-path="url(#rounded_clip_q13.32)" fill="url(#grad_gpos50)" height="100" id="q13.32" width="10.0" x="481.0" y="0" /><rect clip-path="url(#rounded_clip_q13.33)" fill="url(#grad_gneg)" height="100" id="q13.33" width="17.18468" x="491.0" y="0" /><rect fill="none" height="100" rx="30" ry="30" stroke="black" stroke-width="2" width="150.0" x="0.0" y="0" /><rect fill="none" height="100" rx="30" ry="30" stroke="black" stroke-width="2" width="358.18468" x="150.0" y="0" /></svg>
