<?xml version="1.0" encoding="utf-8" ?>
<svg baseProfile="full" height="100" version="1.1" width="2421.93529" xmlns="http://www.w3.org/2000/svg" xmlns:ev="http://www.w3.org/2001/xml-events" xmlns:xlink="http://www.w3.org/1999/xlink"><defs><linearGradient id="grad_gpos25" x1="0%" x2="0%" y1="0%" y2="100%"><stop offset="0.0" stop-color="#C8C8C8" /><stop offset="0.4" stop-color="#DCDCDC" /><stop offset="0.5" stop-color="#DCDCDC" /><stop offset="0.6" stop-color="#DCDCDC" /><stop offset="1.0" stop-color="#C8C8C8" /></linearGradient><linearGradient id="grad_gpos50" x1="0%" x2="0%" y1="0%" y2="100%"><stop offset="0.0" stop-color="#C8C8C8" /><stop offset="0.4" stop-color="#DCDCDC" /><stop offset="0.5" stop-color="#DCDCDC" /><stop offset="0.6" stop-color="#DCDCDC" /><stop offset="1.0" stop-color="#C8C8C8" /></linearGradient><linearGradient id="grad_gpos75" x1="0%" x2="0%" y1="0%" y2="100%"><stop offset="0.0" stop-color="#828282" /><stop offset="0.4" stop-color="#C6C6C6" /><stop offset="0.5" stop-color="#C6C6C6" /><stop offset="0.6" stop-color="#C6C6C6" /><stop offset="1.0" stop-color="#828282" /></linearGradient><linearGradient id="grad_gpos100" x1="0%" x2="0%" y1="0%" y2="100%"><stop offset="0.0" stop-color="#000000" /><stop offset="0.4" stop-color="#444444" /><stop offset="0.5" stop-color="#444444" /><stop offset="0.6" stop-color="#444444" /><stop offset="1.0" stop-color="#000000" /></linearGradient><linearGradient id="grad_gneg" x1="0%" x2="0%" y1="0%" y2="100%"><stop offset="0.0" stop-color="#FFFFFF" /><stop offset="0.4" stop-color="#FFFFFF" /><stop offset="0.5" stop-color="#FFFFFF" /><stop offset="0.6" stop-color="#FFFFFF" /><stop offset="1.0" stop-color="#FFFFFF" /></linearGradient><linearGradient id="grad_acen" x1="0%" x2="0%" y1="0%" y2="100%"><stop offset="0.0" stop-color="#D92F27" /><stop offset="0.4" stop-color="#F7574F" /><stop offset="0.5" stop-color="#F7574F" /><stop offset="0.6" stop-color="#F7574F" /><stop offset="1.0" stop-color="#D92F27" /></linearGradient><linearGradient id="grad_gvar" x1="0%" x2="0%" y1="0%" y2="100%"><stop offset="0.0" stop-color="#AAAAFF" /><stop offset="0.4" stop-color="#CCCCFF" /><stop offset="0.5" stop-color="#CCCCFF" /><stop offset="0.6" stop-color="#CCCCFF" /><stop offset="1.0" stop-color="#AAAAFF" /></linearGradient><linearGradient id="grad_stalk" x1="0%" x2="0%" y1="0%" y2="100%"><stop offset="0.0" stop-color="#647FA4" /><stop offset="0.4" stop-color="#647FA4" /><stop offset="0.5" stop-color="#647FA4" /><stop offset="0.6" stop-color="#647FA4" /><stop offset="1.0" stop-color="#647FA4" /></linearGradient><clipPath id="rounded_clip_p25.3"><rect fill="none" height="100" rx="30" ry="30" stroke="black" stroke-width="2" width="939.0" x="0.0" y="0" /></clipPath><clipPath id="rounded_clip_p25.2"><rect fill="none" height="100" rx="30" ry="30" stroke="black" stroke-width="2" width="939.0" x="0.0" y="0" /></clipPath><clipPath id="rounded_clip_p25.1"><rect fill="none" height="100" rx="30" ry="30" stroke="black" stroke-width="2" width="939.0" x="0.0" y="0" /></clipPath><clipPath id="rounded_clip_p24.3"><rect fill="none" height="100" rx="30" ry="30" stroke="black" stroke-width="2" width="939.0" x="0.0" y="0" /></clipPath><clipPath id="rounded_clip_p24.2"><rect fill="none" height="100" rx="30" ry="30" stroke="black" stroke-width="2" width="939.0" x="0.0" y="0" /></clipPath><clipPath id="rounded_clip_p24.1"><rect fill="none" height="100" rx="30" ry="30" stroke="black" stroke-width="2" width="939.0" x="0.0" y="0" /></clipPath><clipPath id="rounded_clip_p23.3"><rect fill="none" height="100" rx="30" ry="30" stroke="black" stroke-width="2" width="939.0" x="0.0" y="0" /></clipPath><clipPath id="rounded_clip_p23.2"><rect fill="none" height="100" rx="30" ry="30" stroke="black" stroke-width="2" width="939.0" x="0.0" y="0" /></clipPath><clipPath id="rounded_clip_p23.1"><rect fill="none" height="100" rx="30" ry="30" stroke="black" stroke-width="2" width="939.0" x="0.0" y="0" /></clipPath><clipPath id="rounded_clip_p22.3"><rect fill="none" height="100" rx="30" ry="30" stroke="black" stroke-width="2" width="939.0" x="0.0" y="0" /></clipPath><clipPath id="rounded_clip_p22.2"><rect fill="none" height="100" rx="30" ry="30" stroke="black" stroke-width="2" width="939.0" x="0.0" y="0" /></clipPath><clipPath id="rounded_clip_p22.1"><rect fill="none" height="100" rx="30" ry="30" stroke="black" stroke-width="2" width="939.0" x="0.0" y="0" /></clipPath><clipPath id="rounded_clip_p21"><rect fill="none" height="100" rx="30" ry="30" stroke="black" stroke-width="2" width="939.0" x="0.0" y="0" /></clipPath><clipPath id="rounded_clip_p16.3"><rect fill="none" height="100" rx="30" ry="30" stroke="black" stroke-width="2" width="939.0" x="0.0" y="0" /></clipPath><clipPath id="rounded_clip_p16.2"><rect fill="none" height="100" rx="30" ry="30" stroke="black" stroke-width="2" width="939.0" x="0.0" y="0" /></clipPath><clipPath id="rounded_clip_p16.1"><rect fill="none" height="100" rx="30" ry="30" stroke="black" stroke-width="2" width="939.0" x="0.0" y="0" /></clipPath><clipPath id="rounded_clip_p15"><rect fill="none" height="100" rx="30" ry="30" stroke="black" stroke-width="2" width="939.0" x="0.0" y="0" /></clipPath><clipPath id="rounded_clip_p14"><rect fill="none" height="100" rx="30" ry="30" stroke="black" stroke-width="2" width="939.0" x="0.0" y="0" /></clipPath><clipPath id="rounded_clip_p13.3"><rect fill="none" height="100" rx="30" ry="30" stroke="black" stroke-width="2" width="939.0" x="0.0" y="0" /></clipPath><clipPath id="rounded_clip_p13.2"><rect fill="none" height="100" rx="30" ry="30" stroke="black" stroke-width="2" width="939.0" x="0.0" y="0" /></clipPath><clipPath id="rounded_clip_p13.1"><rect fill="none" height="100" rx="30" ry="30" stroke="black" stroke-width="2" width="939.0" x="0.0" y="0" /></clipPath><clipPath id="rounded_clip_p12"><rect fill="none" height="100" rx="30" ry="30" stroke="black" stroke-width="2" width="939.0" x="0.0" y="0" /></clipPath><clipPath id="rounded_clip_p11.2"><rect fill="none" height="100" rx="30" ry="30" stroke="black" stroke-width="2" width="939.0" x="0.0" y="0" /></clipPath><clipPath id="rounded_clip_p11.1"><rect fill="none" height="100" rx="30" ry="30" stroke="black" stroke-width="2" width="939.0" x="0.0" y="0" /></clipPath><clipPath id="rounded_clip_q11.1"><rect fill="none" height="100" rx="30" ry="30" stroke="black" stroke-width="2" width="1482.93529" x="939.0" y="0" /></clipPath><clipPath id="rounded_clip_q11.2"><rect fill="none" height="100" rx="30" ry="30" stroke="black" stroke-width="2" width="1482.93529" x="939.0" y="0" /></clipPath><clipPath id="rounded_clip_q12.1"><rect fill="none" height="100" rx="30" ry="30" stroke="black" stroke-width="2" width="1482.93529" x="939.0" y="0" /></clipPath><clipPath id="rounded_clip_q12.2"><rect fill="none" height="100" rx="30" ry="30" stroke="black" stroke-width="2" width="1482.93529" x="939.0" y="0" /></clipPath><clipPath id="rounded_clip_q12.3"><rect fill="none" height="100" rx="30" ry="30" stroke="black" stroke-width="2" width="1482.93529" x="939.0" y="0" /></clipPath><clipPath id="rounded_clip_q13"><rect fill="none" height="100" rx="30" ry="30" stroke="black" stroke-width="2" width="1482.93529" x="939.0" y="0" /></clipPath><clipPath id="rounded_clip_q14.1"><rect fill="none" height="100" rx="30" ry="30" stroke="black" stroke-width="2" width="1482.93529" x="939.0" y="0" /></clipPath><clipPath id="rounded_clip_q14.2"><rect fill="none" height="100" rx="30" ry="30" stroke="black" stroke-width="2" width="1482.93529" x="939.0" y="0" /></clipPath><clipPath id="rounded_clip_q14.3"><rect fill="none" height="100" rx="30" ry="30" stroke="black" stroke-width="2" width="1482.93529" x="939.0" y="0" /></clipPath><clipPath id="rounded_clip_q21.1"><rect fill="none" height="100" rx="30" ry="30" stroke="black" stroke-width="2" width="1482.93529" x="939.0" y="0" /></clipPath><clipPath id="rounded_clip_q21.2"><rect fill="none" height="100" rx="30" ry="30" stroke="black" stroke-width="2" width="1482.93529" x="939.0" y="0" /></clipPath><clipPath id="rounded_clip_q21.3"><rect fill="none" height="100" rx="30" ry="30" stroke="black" stroke-width="2" width="1482.93529" x="939.0" y="0" /></clipPath><clipPath id="rounded_clip_q22.1"><rect fill="none" height="100" rx="30" ry="30" stroke="black" stroke-width="2" width="1482.93529" x="939.0" y="0" /></clipPath><clipPath id="rounded_clip_q22.2"><rect fill="none" height="100" rx="30" ry="30" stroke="black" stroke-width="2" width="1482.93529" x="939.0" y="0" /></clipPath><clipPath id="rounded_clip_q22.3"><rect fill="none" height="100" rx="30" ry="30" stroke="black" stroke-width="2" width="1482.93529" x="939.0" y="0" /></clipPath><clipPath id="rounded_clip_q23.1"><rect fill="none" height="100" rx="30" ry="30" stroke="black" stroke-width="2" width="1482.93529" x="939.0" y="0" /></clipPath><clipPath id="rounded_clip_q23.2"><rect fill="none" height="100" rx="30" ry="30" stroke="black" stroke-width="2" width="1482.93529" x="939.0" y="0" /></clipPath><clipPath id="rounded_clip_q23.3"><rect fill="none" height="100" rx="30" ry="30" stroke="black" stroke-width="2" width="1482.93529" x="939.0" y="0" /></clipPath><clipPath id="rounded_clip_q24.1"><rect fill="none" height="100" rx="30" ry="30" stroke="black" stroke-width="2" width="1482.93529" x="939.0" y="0" /></clipPath><clipPath id="rounded_clip_q24.2"><rect fill="none" height="100" rx="30" ry="30" stroke="black" stroke-width="2" width="1482.93529" x="939.0" y="0" /></clipPath><clipPath id="rounded_clip_q24.3"><rect fill="none" height="100" rx="30" ry="30" stroke="black" stroke-width="2" width="1482.93529" x="939.0" y="0" /></clipPath><clipPath id="rounded_clip_q31.1"><rect fill="none" height="100" rx="30" ry="30" stroke="black" stroke-width="2" width="1482.93529" x="939.0" y="0" /></clipPath><clipPath id="rounded_clip_q31.2"><rect fill="none" height="100" rx="30" ry="30" stroke="black" stroke-width="2" width="1482.93529" x="939.0" y="0" /></clipPath><clipPath id="rounded_clip_q31.3"><rect fill="none" height="100" rx="30" ry="30" stroke="black" stroke-width="2" width="1482.93529" x="939.0" y="0" /></clipPath><clipPath id="rounded_clip_q32.1"><rect fill="none" height="100" rx="30" ry="30" stroke="black" stroke-width="2" width="1482.93529" x="939.0" y="0" /></clipPath><clipPath id="rounded_clip_q32.2"><rect fill="none" height="100" rx="30" ry="30" stroke="black" stroke-width="2" width="1482.93529" x="939.0" y="0" /></clipPath><clipPath id="rounded_clip_q32.3"><rect fill="none" height="100" rx="30" ry="30" stroke="black" stroke-width="2" width="1482.93529" x="939.0" y="0" /></clipPath><clipPath id="rounded_clip_q33.1"><rect fill="none" height="100" rx="30" ry="30" stroke="black" stroke-width="2" width="1482.93529" x="939.0" y="0" /></clipPath><clipPath id="rounded_clip_q33.2"><rect fill="none" height="100" rx="30" ry="30" stroke="black" stroke-width="2" width="1482.93529" x="939.0" y="0" /></clipPath><clipPath id="rounded_clip_q33.3"><rect fill="none" height="100" rx="30" ry="30" stroke="black" stroke-width="2" width="1482.93529" x="939.0" y="0" /></clipPath><clipPath id="rounded_clip_q34"><rect fill="none" height="100" rx="30" ry="30" stroke="black" stroke-width="2" width="1482.93529" x="939.0" y="0" /></clipPath><clipPath id="rounded_clip_q35"><rect fill="none" height="100" rx="30" ry="30" stroke="black" stroke-width="2" width="1482.93529" x="939.0" y="0" /></clipPath><clipPath id="rounded_clip_q36.1"><rect fill="none" height="100" rx="30" ry="30" stroke="black" stroke-width="2" width="1482.93529" x="939.0" y="0" /></clipPath><clipPath id="rounded_clip_q36.2"><rect fill="none" height="100" rx="30" ry="30" stroke="black" stroke-width="2" width="1482.93529" x="939.0" y="0" /></clipPath><clipPath id="rounded_clip_q36.3"><rect fill="none" height="100" rx="30" ry="30" stroke="black" stroke-width="2" width="1482.93529" x="939.0" y="0" /></clipPath><clipPath id="rounded_clip_q37.1"><rect fill="none" height="100" rx="30" ry="30" stroke="black" stroke-width="2" width="1482.93529" x="939.0" y="0" /></clipPath><clipPath id="rounded_clip_q37.2"><rect fill="none" height="100" rx="30" ry="30" stroke="black" stroke-width="2" width="1482.93529" x="939.0" y="0" /></clipPath><clipPath id="rounded_clip_q37.3"><rect fill="none" height="100" rx="30" ry="30" stroke="black" stroke-width="2" width="1482.93529" x="939.0" y="0" /></clipPath></defs><rect clip-path="url(#rounded_clip_p25.3)" fill="url(#grad_gneg)" height="100" id="p25.3" width="44.0" x="0.0" y="0" /><rect clip-path="url(#rounded_clip_p25.2)" fill="url(#grad_gpos50)" height="100" id="p25.2" width="25.0" x="44.0" y="0" /><rect clip-path="url(#rounded_clip_p25.1)" fill="url(#grad_gneg)" height="100" id="p25.1" width="51.0" x="69.0" y="0" /><rect clip-path="url(#rounded_clip_p24.3)" fill="url(#grad_gpos75)" height="100" id="p24.3" width="45.0" x="120.0" y="0" /><rect clip-path="url(#rounded_clip_p24.2)" fill="url(#grad_gneg)" height="100" id="p24.2" width="25.0" x="165.0" y="0" /><rect clip-path="url(#rounded_clip_p24.1)" fill="url(#grad_gpos75)" height="100" id="p24.1" width="48.0" x="190.0" y="0" /><rect clip-path="url(#rounded_clip_p23.3)" fill="url(#grad_gneg)" height="100" id="p23.3" width="39.0" x="238.0" y="0" /><rect clip-path="url(#rounded_clip_p23.2)" fill="url(#grad_gpos25)" height="100" id="p23.2" width="21.0" x="277.0" y="0" /><rect clip-path="url(#rounded_clip_p23.1)" fill="url(#grad_gneg)" height="100" id="p23.1" width="20.0" x="298.0" y="0" /><rect clip-path="url(#rounded_clip_p22.3)" fill="url(#grad_gpos75)" height="100" id="p22.3" width="45.0" x="318.0" y="0" /><rect clip-path="url(#rounded_clip_p22.2)" fill="url(#grad_gneg)" height="100" id="p22.2" width="20.0" x="363.0" y="0" /><rect clip-path="url(#rounded_clip_p22.1)" fill="url(#grad_gpos50)" height="100" id="p22.1" width="32.0" x="383.0" y="0" /><rect clip-path="url(#rounded_clip_p21)" fill="url(#grad_gneg)" height="100" id="p21" width="60.0" x="415.0" y="0" /><rect clip-path="url(#rounded_clip_p16.3)" fill="url(#grad_gpos100)" height="100" id="p16.3" width="51.0" x="475.0" y="0" /><rect clip-path="url(#rounded_clip_p16.2)" fill="url(#grad_gneg)" height="100" id="p16.2" width="21.0" x="526.0" y="0" /><rect clip-path="url(#rounded_clip_p16.1)" fill="url(#grad_gpos100)" height="100" id="p16.1" width="63.0" x="547.0" y="0" /><rect clip-path="url(#rounded_clip_p15)" fill="url(#grad_gneg)" height="100" id="p15" width="29.0" x="610.0" y="0" /><rect clip-path="url(#rounded_clip_p14)" fill="url(#grad_gpos50)" height="100" id="p14" width="45.0" x="639.0" y="0" /><rect clip-path="url(#rounded_clip_p13.3)" fill="url(#grad_gneg)" height="100" id="p13.3" width="29.0" x="684.0" y="0" /><rect clip-path="url(#rounded_clip_p13.2)" fill="url(#grad_gpos50)" height="100" id="p13.2" width="20.0" x="713.0" y="0" /><rect clip-path="url(#rounded_clip_p13.1)" fill="url(#grad_gneg)" height="100" id="p13.1" width="15.0" x="733.0" y="0" /><rect clip-path="url(#rounded_clip_p12)" fill="url(#grad_gpos100)" height="100" id="p12" width="83.0" x="748.0" y="0" /><rect clip-path="url(#rounded_clip_p11.2)" fill="url(#grad_gneg)" height="100" id="p11.2" width="87.0" x="831.0" y="0" /><rect clip-path="url(#rounded_clip_p11.1)" fill="url(#grad_acen)" height="100" id="p11.1" width="21.0" x="918.0" y="0" /><rect clip-path="url(#rounded_clip_q11.1)" fill="url(#grad_acen)" height="100" id="q11.1" width="21.0" x="939.0" y="0" /><rect clip-path="url(#rounded_clip_q11.2)" fill="url(#grad_gneg)" height="100" id="q11.2" width="61.0" x="960.0" y="0" /><rect clip-path="url(#rounded_clip_q12.1)" fill="url(#grad_gpos50)" height="100" id="q12.1" width="32.0" x="1021.0" y="0" /><rect clip-path="url(#rounded_clip_q12.2)" fill="url(#grad_gneg)" height="100" id="q12.2" width="14.0" x="1053.0" y="0" /><rect clip-path="url(#rounded_clip_q12.3)" fill="url(#grad_gpos25)" height="100" id="q12.3" width="20.0" x="1067.0" y="0" /><rect clip-path="url(#rounded_clip_q13)" fill="url(#grad_gneg)" height="100" id="q13" width="35.0" x="1087.0" y="0" /><rect clip-path="url(#rounded_clip_q14.1)" fill="url(#grad_gpos50)" height="100" id="q14.1" width="59.0" x="1122.0" y="0" /><rect clip-path="url(#rounded_clip_q14.2)" fill="url(#grad_gneg)" height="100" id="q14.2" width="35.0" x="1181.0" y="0" /><rect clip-path="url(#rounded_clip_q14.3)" fill="url(#grad_gpos50)" height="100" id="q14.3" width="75.0" x="1216.0" y="0" /><rect clip-path="url(#rounded_clip_q21.1)" fill="url(#grad_gneg)" height="100" id="q21.1" width="26.0" x="1291.0" y="0" /><rect clip-path="url(#rounded_clip_q21.2)" fill="url(#grad_gpos25)" height="100" id="q21.2" width="26.0" x="1317.0" y="0" /><rect clip-path="url(#rounded_clip_q21.3)" fill="url(#grad_gneg)" height="100" id="q21.3" width="18.0" x="1343.0" y="0" /><rect clip-path="url(#rounded_clip_q22.1)" fill="url(#grad_gpos100)" height="100" id="q22.1" width="54.0" x="1361.0" y="0" /><rect clip-path="url(#rounded_clip_q22.2)" fill="url(#grad_gneg)" height="100" id="q22.2" width="19.0" x="1415.0" y="0" /><rect clip-path="url(#rounded_clip_q22.3)" fill="url(#grad_gpos100)" height="100" id="q22.3" width="45.0" x="1434.0" y="0" /><rect clip-path="url(#rounded_clip_q23.1)" fill="url(#grad_gneg)" height="100" id="q23.1" width="11.0" x="1479.0" y="0" /><rect clip-path="url(#rounded_clip_q23.2)" fill="url(#grad_gpos25)" height="100" id="q23.2" width="6.0" x="1490.0" y="0" /><rect clip-path="url(#rounded_clip_q23.3)" fill="url(#grad_gneg)" height="100" id="q23.3" width="44.0" x="1496.0" y="0" /><rect clip-path="url(#rounded_clip_q24.1)" fill="url(#grad_gpos75)" height="100" id="q24.1" width="49.0" x="1540.0" y="0" /><rect clip-path="url(#rounded_clip_q24.2)" fill="url(#grad_gneg)" height="100" id="q24.2" width="40.0" x="1589.0" y="0" /><rect clip-path="url(#rounded_clip_q24.3)" fill="url(#grad_gpos75)" height="100" id="q24.3" width="60.0" x="1629.0" y="0" /><rect clip-path="url(#rounded_clip_q31.1)" fill="url(#grad_gneg)" height="100" id="q31.1" width="82.0" x="1689.0" y="0" /><rect clip-path="url(#rounded_clip_q31.2)" fill="url(#grad_gpos50)" height="100" id="q31.2" width="26.0" x="1771.0" y="0" /><rect clip-path="url(#rounded_clip_q31.3)" fill="url(#grad_gneg)" height="100" id="q31.3" width="24.0" x="1797.0" y="0" /><rect clip-path="url(#rounded_clip_q32.1)" fill="url(#grad_gpos75)" height="100" id="q32.1" width="64.0" x="1821.0" y="0" /><rect clip-path="url(#rounded_clip_q32.2)" fill="url(#grad_gneg)" height="100" id="q32.2" width="26.0" x="1885.0" y="0" /><rect clip-path="url(#rounded_clip_q32.3)" fill="url(#grad_gpos75)" height="100" id="q32.3" width="55.0" x="1911.0" y="0" /><rect clip-path="url(#rounded_clip_q33.1)" fill="url(#grad_gneg)" height="100" id="q33.1" width="59.0" x="1966.0" y="0" /><rect clip-path="url(#rounded_clip_q33.2)" fill="url(#grad_gpos50)" height="100" id="q33.2" width="16.0" x="2025.0" y="0" /><rect clip-path="url(#rounded_clip_q33.3)" fill="url(#grad_gneg)" height="100" id="q33.3" width="41.0" x="2041.0" y="0" /><rect clip-path="url(#rounded_clip_q34)" fill="url(#grad_gpos100)" height="100" id="q34" width="63.0" x="2082.0" y="0" /><rect clip-path="url(#rounded_clip_q35)" fill="url(#grad_gneg)" height="100" id="q35" width="62.0" x="2145.0" y="0" /><rect clip-path="url(#rounded_clip_q36.1)" fill="url(#grad_gpos75)" height="100" id="q36.1" width="36.0" x="2207.0" y="0" /><rect clip-path="url(#rounded_clip_q36.2)" fill="url(#grad_gneg)" height="100" id="q36.2" width="9.0" x="2243.0" y="0" /><rect clip-path="url(#rounded_clip_q36.3)" fill="url(#grad_gpos100)" height="100" id="q36.3" width="49.0" x="2252.0" y="0" /><rect clip-path="url(#rounded_clip_q37.1)" fill="url(#grad_gneg)" height="100" id="q37.1" width="46.0" x="2301.0" y="0" /><rect clip-path="url(#rounded_clip_q37.2)" fill="url(#grad_gpos50)" height="100" id="q37.2" width="17.0" x="2347.0" y="0" /><rect clip-path="url(#rounded_clip_q37.3)" fill="url(#grad_gneg)" height="100" id="q37.3" width="57.93529" x="2364.0" y="0" /><rect fill="none" height="100" rx="30" ry="30" stroke="black" stroke-width="2" width="939.0" x="0.0" y="0" /><rect fill="none" height="100" rx="30" ry="30" stroke="black" stroke-width="2" width="1482.93529" x="939.0" y="0" /></svg>
