<?xml version="1.0" encoding="utf-8" ?>
<svg baseProfile="full" height="100" version="1.1" width="1982.95559" xmlns="http://www.w3.org/2000/svg" xmlns:ev="http://www.w3.org/2001/xml-events" xmlns:xlink="http://www.w3.org/1999/xlink"><defs><linearGradient id="grad_gpos25" x1="0%" x2="0%" y1="0%" y2="100%"><stop offset="0.0" stop-color="#C8C8C8" /><stop offset="0.4" stop-color="#DCDCDC" /><stop offset="0.5" stop-color="#DCDCDC" /><stop offset="0.6" stop-color="#DCDCDC" /><stop offset="1.0" stop-color="#C8C8C8" /></linearGradient><linearGradient id="grad_gpos50" x1="0%" x2="0%" y1="0%" y2="100%"><stop offset="0.0" stop-color="#C8C8C8" /><stop offset="0.4" stop-color="#DCDCDC" /><stop offset="0.5" stop-color="#DCDCDC" /><stop offset="0.6" stop-color="#DCDCDC" /><stop offset="1.0" stop-color="#C8C8C8" /></linearGradient><linearGradient id="grad_gpos75" x1="0%" x2="0%" y1="0%" y2="100%"><stop offset="0.0" stop-color="#828282" /><stop offset="0.4" stop-color="#C6C6C6" /><stop offset="0.5" stop-color="#C6C6C6" /><stop offset="0.6" stop-color="#C6C6C6" /><stop offset="1.0" stop-color="#828282" /></linearGradient><linearGradient id="grad_gpos100" x1="0%" x2="0%" y1="0%" y2="100%"><stop offset="0.0" stop-color="#000000" /><stop offset="0.4" stop-color="#444444" /><stop offset="0.5" stop-color="#444444" /><stop offset="0.6" stop-color="#444444" /><stop offset="1.0" stop-color="#000000" /></linearGradient><linearGradient id="grad_gneg" x1="0%" x2="0%" y1="0%" y2="100%"><stop offset="0.0" stop-color="#FFFFFF" /><stop offset="0.4" stop-color="#FFFFFF" /><stop offset="0.5" stop-color="#FFFFFF" /><stop offset="0.6" stop-color="#FFFFFF" /><stop offset="1.0" stop-color="#FFFFFF" /></linearGradient><linearGradient id="grad_acen" x1="0%" x2="0%" y1="0%" y2="100%"><stop offset="0.0" stop-color="#D92F27" /><stop offset="0.4" stop-color="#F7574F" /><stop offset="0.5" stop-color="#F7574F" /><stop offset="0.6" stop-color="#F7574F" /><stop offset="1.0" stop-color="#D92F27" /></linearGradient><linearGradient id="grad_gvar" x1="0%" x2="0%" y1="0%" y2="100%"><stop offset="0.0" stop-color="#AAAAFF" /><stop offset="0.4" stop-color="#CCCCFF" /><stop offset="0.5" stop-color="#CCCCFF" /><stop offset="0.6" stop-color="#CCCCFF" /><stop offset="1.0" stop-color="#AAAAFF" /></linearGradient><linearGradient id="grad_stalk" x1="0%" x2="0%" y1="0%" y2="100%"><stop offset="0.0" stop-color="#647FA4" /><stop offset="0.4" stop-color="#647FA4" /><stop offset="0.5" stop-color="#647FA4" /><stop offset="0.6" stop-color="#647FA4" /><stop offset="1.0" stop-color="#647FA4" /></linearGradient><clipPath id="rounded_clip_p26.3"><rect fill="none" height="100" rx="30" ry="30" stroke="black" stroke-width="2" width="909.0" x="0.0" y="0" /></clipPath><clipPath id="rounded_clip_p26.2"><rect fill="none" height="100" rx="30" ry="30" stroke="black" stroke-width="2" width="909.0" x="0.0" y="0" /></clipPath><clipPath id="rounded_clip_p26.1"><rect fill="none" height="100" rx="30" ry="30" stroke="black" stroke-width="2" width="909.0" x="0.0" y="0" /></clipPath><clipPath id="rounded_clip_p25.3"><rect fill="none" height="100" rx="30" ry="30" stroke="black" stroke-width="2" width="909.0" x="0.0" y="0" /></clipPath><clipPath id="rounded_clip_p25.2"><rect fill="none" height="100" rx="30" ry="30" stroke="black" stroke-width="2" width="909.0" x="0.0" y="0" /></clipPath><clipPath id="rounded_clip_p25.1"><rect fill="none" height="100" rx="30" ry="30" stroke="black" stroke-width="2" width="909.0" x="0.0" y="0" /></clipPath><clipPath id="rounded_clip_p24.3"><rect fill="none" height="100" rx="30" ry="30" stroke="black" stroke-width="2" width="909.0" x="0.0" y="0" /></clipPath><clipPath id="rounded_clip_p24.2"><rect fill="none" height="100" rx="30" ry="30" stroke="black" stroke-width="2" width="909.0" x="0.0" y="0" /></clipPath><clipPath id="rounded_clip_p24.1"><rect fill="none" height="100" rx="30" ry="30" stroke="black" stroke-width="2" width="909.0" x="0.0" y="0" /></clipPath><clipPath id="rounded_clip_p23"><rect fill="none" height="100" rx="30" ry="30" stroke="black" stroke-width="2" width="909.0" x="0.0" y="0" /></clipPath><clipPath id="rounded_clip_p22.3"><rect fill="none" height="100" rx="30" ry="30" stroke="black" stroke-width="2" width="909.0" x="0.0" y="0" /></clipPath><clipPath id="rounded_clip_p22.2"><rect fill="none" height="100" rx="30" ry="30" stroke="black" stroke-width="2" width="909.0" x="0.0" y="0" /></clipPath><clipPath id="rounded_clip_p22.1"><rect fill="none" height="100" rx="30" ry="30" stroke="black" stroke-width="2" width="909.0" x="0.0" y="0" /></clipPath><clipPath id="rounded_clip_p21.33"><rect fill="none" height="100" rx="30" ry="30" stroke="black" stroke-width="2" width="909.0" x="0.0" y="0" /></clipPath><clipPath id="rounded_clip_p21.32"><rect fill="none" height="100" rx="30" ry="30" stroke="black" stroke-width="2" width="909.0" x="0.0" y="0" /></clipPath><clipPath id="rounded_clip_p21.31"><rect fill="none" height="100" rx="30" ry="30" stroke="black" stroke-width="2" width="909.0" x="0.0" y="0" /></clipPath><clipPath id="rounded_clip_p21.2"><rect fill="none" height="100" rx="30" ry="30" stroke="black" stroke-width="2" width="909.0" x="0.0" y="0" /></clipPath><clipPath id="rounded_clip_p21.1"><rect fill="none" height="100" rx="30" ry="30" stroke="black" stroke-width="2" width="909.0" x="0.0" y="0" /></clipPath><clipPath id="rounded_clip_p14.3"><rect fill="none" height="100" rx="30" ry="30" stroke="black" stroke-width="2" width="909.0" x="0.0" y="0" /></clipPath><clipPath id="rounded_clip_p14.2"><rect fill="none" height="100" rx="30" ry="30" stroke="black" stroke-width="2" width="909.0" x="0.0" y="0" /></clipPath><clipPath id="rounded_clip_p14.1"><rect fill="none" height="100" rx="30" ry="30" stroke="black" stroke-width="2" width="909.0" x="0.0" y="0" /></clipPath><clipPath id="rounded_clip_p13"><rect fill="none" height="100" rx="30" ry="30" stroke="black" stroke-width="2" width="909.0" x="0.0" y="0" /></clipPath><clipPath id="rounded_clip_p12.3"><rect fill="none" height="100" rx="30" ry="30" stroke="black" stroke-width="2" width="909.0" x="0.0" y="0" /></clipPath><clipPath id="rounded_clip_p12.2"><rect fill="none" height="100" rx="30" ry="30" stroke="black" stroke-width="2" width="909.0" x="0.0" y="0" /></clipPath><clipPath id="rounded_clip_p12.1"><rect fill="none" height="100" rx="30" ry="30" stroke="black" stroke-width="2" width="909.0" x="0.0" y="0" /></clipPath><clipPath id="rounded_clip_p11.2"><rect fill="none" height="100" rx="30" ry="30" stroke="black" stroke-width="2" width="909.0" x="0.0" y="0" /></clipPath><clipPath id="rounded_clip_p11.1"><rect fill="none" height="100" rx="30" ry="30" stroke="black" stroke-width="2" width="909.0" x="0.0" y="0" /></clipPath><clipPath id="rounded_clip_q11.1"><rect fill="none" height="100" rx="30" ry="30" stroke="black" stroke-width="2" width="1073.95559" x="909.0" y="0" /></clipPath><clipPath id="rounded_clip_q11.2"><rect fill="none" height="100" rx="30" ry="30" stroke="black" stroke-width="2" width="1073.95559" x="909.0" y="0" /></clipPath><clipPath id="rounded_clip_q12.1"><rect fill="none" height="100" rx="30" ry="30" stroke="black" stroke-width="2" width="1073.95559" x="909.0" y="0" /></clipPath><clipPath id="rounded_clip_q12.2"><rect fill="none" height="100" rx="30" ry="30" stroke="black" stroke-width="2" width="1073.95559" x="909.0" y="0" /></clipPath><clipPath id="rounded_clip_q12.3"><rect fill="none" height="100" rx="30" ry="30" stroke="black" stroke-width="2" width="1073.95559" x="909.0" y="0" /></clipPath><clipPath id="rounded_clip_q13.11"><rect fill="none" height="100" rx="30" ry="30" stroke="black" stroke-width="2" width="1073.95559" x="909.0" y="0" /></clipPath><clipPath id="rounded_clip_q13.12"><rect fill="none" height="100" rx="30" ry="30" stroke="black" stroke-width="2" width="1073.95559" x="909.0" y="0" /></clipPath><clipPath id="rounded_clip_q13.13"><rect fill="none" height="100" rx="30" ry="30" stroke="black" stroke-width="2" width="1073.95559" x="909.0" y="0" /></clipPath><clipPath id="rounded_clip_q13.2"><rect fill="none" height="100" rx="30" ry="30" stroke="black" stroke-width="2" width="1073.95559" x="909.0" y="0" /></clipPath><clipPath id="rounded_clip_q13.31"><rect fill="none" height="100" rx="30" ry="30" stroke="black" stroke-width="2" width="1073.95559" x="909.0" y="0" /></clipPath><clipPath id="rounded_clip_q13.32"><rect fill="none" height="100" rx="30" ry="30" stroke="black" stroke-width="2" width="1073.95559" x="909.0" y="0" /></clipPath><clipPath id="rounded_clip_q13.33"><rect fill="none" height="100" rx="30" ry="30" stroke="black" stroke-width="2" width="1073.95559" x="909.0" y="0" /></clipPath><clipPath id="rounded_clip_q21.1"><rect fill="none" height="100" rx="30" ry="30" stroke="black" stroke-width="2" width="1073.95559" x="909.0" y="0" /></clipPath><clipPath id="rounded_clip_q21.2"><rect fill="none" height="100" rx="30" ry="30" stroke="black" stroke-width="2" width="1073.95559" x="909.0" y="0" /></clipPath><clipPath id="rounded_clip_q21.3"><rect fill="none" height="100" rx="30" ry="30" stroke="black" stroke-width="2" width="1073.95559" x="909.0" y="0" /></clipPath><clipPath id="rounded_clip_q22.1"><rect fill="none" height="100" rx="30" ry="30" stroke="black" stroke-width="2" width="1073.95559" x="909.0" y="0" /></clipPath><clipPath id="rounded_clip_q22.2"><rect fill="none" height="100" rx="30" ry="30" stroke="black" stroke-width="2" width="1073.95559" x="909.0" y="0" /></clipPath><clipPath id="rounded_clip_q22.3"><rect fill="none" height="100" rx="30" ry="30" stroke="black" stroke-width="2" width="1073.95559" x="909.0" y="0" /></clipPath><clipPath id="rounded_clip_q23"><rect fill="none" height="100" rx="30" ry="30" stroke="black" stroke-width="2" width="1073.95559" x="909.0" y="0" /></clipPath><clipPath id="rounded_clip_q24"><rect fill="none" height="100" rx="30" ry="30" stroke="black" stroke-width="2" width="1073.95559" x="909.0" y="0" /></clipPath><clipPath id="rounded_clip_q25.1"><rect fill="none" height="100" rx="30" ry="30" stroke="black" stroke-width="2" width="1073.95559" x="909.0" y="0" /></clipPath><clipPath id="rounded_clip_q25.2"><rect fill="none" height="100" rx="30" ry="30" stroke="black" stroke-width="2" width="1073.95559" x="909.0" y="0" /></clipPath><clipPath id="rounded_clip_q25.31"><rect fill="none" height="100" rx="30" ry="30" stroke="black" stroke-width="2" width="1073.95559" x="909.0" y="0" /></clipPath><clipPath id="rounded_clip_q25.32"><rect fill="none" height="100" rx="30" ry="30" stroke="black" stroke-width="2" width="1073.95559" x="909.0" y="0" /></clipPath><clipPath id="rounded_clip_q25.33"><rect fill="none" height="100" rx="30" ry="30" stroke="black" stroke-width="2" width="1073.95559" x="909.0" y="0" /></clipPath><clipPath id="rounded_clip_q26.1"><rect fill="none" height="100" rx="30" ry="30" stroke="black" stroke-width="2" width="1073.95559" x="909.0" y="0" /></clipPath><clipPath id="rounded_clip_q26.2"><rect fill="none" height="100" rx="30" ry="30" stroke="black" stroke-width="2" width="1073.95559" x="909.0" y="0" /></clipPath><clipPath id="rounded_clip_q26.31"><rect fill="none" height="100" rx="30" ry="30" stroke="black" stroke-width="2" width="1073.95559" x="909.0" y="0" /></clipPath><clipPath id="rounded_clip_q26.32"><rect fill="none" height="100" rx="30" ry="30" stroke="black" stroke-width="2" width="1073.95559" x="909.0" y="0" /></clipPath><clipPath id="rounded_clip_q26.33"><rect fill="none" height="100" rx="30" ry="30" stroke="black" stroke-width="2" width="1073.95559" x="909.0" y="0" /></clipPath><clipPath id="rounded_clip_q27.1"><rect fill="none" height="100" rx="30" ry="30" stroke="black" stroke-width="2" width="1073.95559" x="909.0" y="0" /></clipPath><clipPath id="rounded_clip_q27.2"><rect fill="none" height="100" rx="30" ry="30" stroke="black" stroke-width="2" width="1073.95559" x="909.0" y="0" /></clipPath><clipPath id="rounded_clip_q27.3"><rect fill="none" height="100" rx="30" ry="30" stroke="black" stroke-width="2" width="1073.95559" x="909.0" y="0" /></clipPath><clipPath id="rounded_clip_q28"><rect fill="none" height="100" rx="30" ry="30" stroke="black" stroke-width="2" width="1073.95559" x="909.0" y="0" /></clipPath><clipPath id="rounded_clip_q29"><rect fill="none" height="100" rx="30" ry="30" stroke="black" stroke-width="2" width="1073.95559" x="909.0" y="0" /></clipPath></defs><rect clip-path="url(#rounded_clip_p26.3)" fill="url(#grad_gpos50)" height="100" id="p26.3" width="28.0" x="0.0" y="0" /><rect clip-path="url(#rounded_clip_p26.2)" fill="url(#grad_gneg)" height="100" id="p26.2" width="12.0" x="28.0" y="0" /><rect clip-path="url(#rounded_clip_p26.1)" fill="url(#grad_gpos50)" height="100" id="p26.1" width="41.0" x="40.0" y="0" /><rect clip-path="url(#rounded_clip_p25.3)" fill="url(#grad_gneg)" height="100" id="p25.3" width="35.0" x="81.0" y="0" /><rect clip-path="url(#rounded_clip_p25.2)" fill="url(#grad_gpos25)" height="100" id="p25.2" width="16.0" x="116.0" y="0" /><rect clip-path="url(#rounded_clip_p25.1)" fill="url(#grad_gneg)" height="100" id="p25.1" width="31.0" x="132.0" y="0" /><rect clip-path="url(#rounded_clip_p24.3)" fill="url(#grad_gpos100)" height="100" id="p24.3" width="75.0" x="163.0" y="0" /><rect clip-path="url(#rounded_clip_p24.2)" fill="url(#grad_gneg)" height="100" id="p24.2" width="25.0" x="238.0" y="0" /><rect clip-path="url(#rounded_clip_p24.1)" fill="url(#grad_gpos75)" height="100" id="p24.1" width="45.0" x="263.0" y="0" /><rect clip-path="url(#rounded_clip_p23)" fill="url(#grad_gneg)" height="100" id="p23" width="12.0" x="308.0" y="0" /><rect clip-path="url(#rounded_clip_p22.3)" fill="url(#grad_gpos50)" height="100" id="p22.3" width="44.0" x="320.0" y="0" /><rect clip-path="url(#rounded_clip_p22.2)" fill="url(#grad_gneg)" height="100" id="p22.2" width="29.0" x="364.0" y="0" /><rect clip-path="url(#rounded_clip_p22.1)" fill="url(#grad_gpos75)" height="100" id="p22.1" width="43.0" x="393.0" y="0" /><rect clip-path="url(#rounded_clip_p21.33)" fill="url(#grad_gneg)" height="100" id="p21.33" width="5.0" x="436.0" y="0" /><rect clip-path="url(#rounded_clip_p21.32)" fill="url(#grad_gpos50)" height="100" id="p21.32" width="1.0" x="441.0" y="0" /><rect clip-path="url(#rounded_clip_p21.31)" fill="url(#grad_gneg)" height="100" id="p21.31" width="64.0" x="442.0" y="0" /><rect clip-path="url(#rounded_clip_p21.2)" fill="url(#grad_gpos25)" height="100" id="p21.2" width="17.0" x="506.0" y="0" /><rect clip-path="url(#rounded_clip_p21.1)" fill="url(#grad_gneg)" height="100" id="p21.1" width="21.0" x="523.0" y="0" /><rect clip-path="url(#rounded_clip_p14.3)" fill="url(#grad_gpos50)" height="100" id="p14.3" width="42.0" x="544.0" y="0" /><rect clip-path="url(#rounded_clip_p14.2)" fill="url(#grad_gneg)" height="100" id="p14.2" width="52.0" x="586.0" y="0" /><rect clip-path="url(#rounded_clip_p14.1)" fill="url(#grad_gpos50)" height="100" id="p14.1" width="59.0" x="638.0" y="0" /><rect clip-path="url(#rounded_clip_p13)" fill="url(#grad_gneg)" height="100" id="p13" width="44.0" x="697.0" y="0" /><rect clip-path="url(#rounded_clip_p12.3)" fill="url(#grad_gpos75)" height="100" id="p12.3" width="57.0" x="741.0" y="0" /><rect clip-path="url(#rounded_clip_p12.2)" fill="url(#grad_gneg)" height="100" id="p12.2" width="37.0" x="798.0" y="0" /><rect clip-path="url(#rounded_clip_p12.1)" fill="url(#grad_gpos75)" height="100" id="p12.1" width="36.0" x="835.0" y="0" /><rect clip-path="url(#rounded_clip_p11.2)" fill="url(#grad_gneg)" height="100" id="p11.2" width="7.0" x="871.0" y="0" /><rect clip-path="url(#rounded_clip_p11.1)" fill="url(#grad_acen)" height="100" id="p11.1" width="31.0" x="878.0" y="0" /><rect clip-path="url(#rounded_clip_q11.1)" fill="url(#grad_acen)" height="100" id="q11.1" width="31.0" x="909.0" y="0" /><rect clip-path="url(#rounded_clip_q11.2)" fill="url(#grad_gvar)" height="100" id="q11.2" width="46.0" x="940.0" y="0" /><rect clip-path="url(#rounded_clip_q12.1)" fill="url(#grad_gneg)" height="100" id="q12.1" width="17.0" x="986.0" y="0" /><rect clip-path="url(#rounded_clip_q12.2)" fill="url(#grad_gpos25)" height="100" id="q12.2" width="9.0" x="1003.0" y="0" /><rect clip-path="url(#rounded_clip_q12.3)" fill="url(#grad_gneg)" height="100" id="q12.3" width="19.0" x="1012.0" y="0" /><rect clip-path="url(#rounded_clip_q13.11)" fill="url(#grad_gpos75)" height="100" id="q13.11" width="34.0" x="1031.0" y="0" /><rect clip-path="url(#rounded_clip_q13.12)" fill="url(#grad_gneg)" height="100" id="q13.12" width="17.0" x="1065.0" y="0" /><rect clip-path="url(#rounded_clip_q13.13)" fill="url(#grad_gpos50)" height="100" id="q13.13" width="34.0" x="1082.0" y="0" /><rect clip-path="url(#rounded_clip_q13.2)" fill="url(#grad_gneg)" height="100" id="q13.2" width="21.0" x="1116.0" y="0" /><rect clip-path="url(#rounded_clip_q13.31)" fill="url(#grad_gpos75)" height="100" id="q13.31" width="39.0" x="1137.0" y="0" /><rect clip-path="url(#rounded_clip_q13.32)" fill="url(#grad_gneg)" height="100" id="q13.32" width="17.0" x="1176.0" y="0" /><rect clip-path="url(#rounded_clip_q13.33)" fill="url(#grad_gpos75)" height="100" id="q13.33" width="29.0" x="1193.0" y="0" /><rect clip-path="url(#rounded_clip_q21.1)" fill="url(#grad_gneg)" height="100" id="q21.1" width="19.0" x="1222.0" y="0" /><rect clip-path="url(#rounded_clip_q21.2)" fill="url(#grad_gpos25)" height="100" id="q21.2" width="20.0" x="1241.0" y="0" /><rect clip-path="url(#rounded_clip_q21.3)" fill="url(#grad_gneg)" height="100" id="q21.3" width="34.0" x="1261.0" y="0" /><rect clip-path="url(#rounded_clip_q22.1)" fill="url(#grad_gpos25)" height="100" id="q22.1" width="45.0" x="1295.0" y="0" /><rect clip-path="url(#rounded_clip_q22.2)" fill="url(#grad_gneg)" height="100" id="q22.2" width="20.0" x="1340.0" y="0" /><rect clip-path="url(#rounded_clip_q22.3)" fill="url(#grad_gpos25)" height="100" id="q22.3" width="30.0" x="1360.0" y="0" /><rect clip-path="url(#rounded_clip_q23)" fill="url(#grad_gneg)" height="100" id="q23" width="41.0" x="1390.0" y="0" /><rect clip-path="url(#rounded_clip_q24)" fill="url(#grad_gpos100)" height="100" id="q24" width="61.0" x="1431.0" y="0" /><rect clip-path="url(#rounded_clip_q25.1)" fill="url(#grad_gneg)" height="100" id="q25.1" width="31.0" x="1492.0" y="0" /><rect clip-path="url(#rounded_clip_q25.2)" fill="url(#grad_gpos50)" height="100" id="q25.2" width="30.0" x="1523.0" y="0" /><rect clip-path="url(#rounded_clip_q25.31)" fill="url(#grad_gneg)" height="100" id="q25.31" width="20.0" x="1553.0" y="0" /><rect clip-path="url(#rounded_clip_q25.32)" fill="url(#grad_gpos50)" height="100" id="q25.32" width="20.0" x="1573.0" y="0" /><rect clip-path="url(#rounded_clip_q25.33)" fill="url(#grad_gneg)" height="100" id="q25.33" width="17.0" x="1593.0" y="0" /><rect clip-path="url(#rounded_clip_q26.1)" fill="url(#grad_gpos100)" height="100" id="q26.1" width="69.0" x="1610.0" y="0" /><rect clip-path="url(#rounded_clip_q26.2)" fill="url(#grad_gneg)" height="100" id="q26.2" width="33.0" x="1679.0" y="0" /><rect clip-path="url(#rounded_clip_q26.31)" fill="url(#grad_gpos75)" height="100" id="q26.31" width="48.0" x="1712.0" y="0" /><rect clip-path="url(#rounded_clip_q26.32)" fill="url(#grad_gneg)" height="100" id="q26.32" width="33.0" x="1760.0" y="0" /><rect clip-path="url(#rounded_clip_q26.33)" fill="url(#grad_gpos75)" height="100" id="q26.33" width="37.0" x="1793.0" y="0" /><rect clip-path="url(#rounded_clip_q27.1)" fill="url(#grad_gneg)" height="100" id="q27.1" width="18.0" x="1830.0" y="0" /><rect clip-path="url(#rounded_clip_q27.2)" fill="url(#grad_gpos25)" height="100" id="q27.2" width="15.0" x="1848.0" y="0" /><rect clip-path="url(#rounded_clip_q27.3)" fill="url(#grad_gneg)" height="100" id="q27.3" width="19.0" x="1863.0" y="0" /><rect clip-path="url(#rounded_clip_q28)" fill="url(#grad_gpos75)" height="100" id="q28" width="44.0" x="1882.0" y="0" /><rect clip-path="url(#rounded_clip_q29)" fill="url(#grad_gneg)" height="100" id="q29" width="56.95559" x="1926.0" y="0" /><rect fill="none" height="100" rx="30" ry="30" stroke="black" stroke-width="2" width="909.0" x="0.0" y="0" /><rect fill="none" height="100" rx="30" ry="30" stroke="black" stroke-width="2" width="1073.95559" x="909.0" y="0" /></svg>
