<?xml version="1.0" encoding="utf-8" ?>
<svg baseProfile="full" height="100" version="1.1" width="1708.05979" xmlns="http://www.w3.org/2000/svg" xmlns:ev="http://www.w3.org/2001/xml-events" xmlns:xlink="http://www.w3.org/1999/xlink"><defs><linearGradient id="grad_gpos25" x1="0%" x2="0%" y1="0%" y2="100%"><stop offset="0.0" stop-color="#C8C8C8" /><stop offset="0.4" stop-color="#DCDCDC" /><stop offset="0.5" stop-color="#DCDCDC" /><stop offset="0.6" stop-color="#DCDCDC" /><stop offset="1.0" stop-color="#C8C8C8" /></linearGradient><linearGradient id="grad_gpos50" x1="0%" x2="0%" y1="0%" y2="100%"><stop offset="0.0" stop-color="#C8C8C8" /><stop offset="0.4" stop-color="#DCDCDC" /><stop offset="0.5" stop-color="#DCDCDC" /><stop offset="0.6" stop-color="#DCDCDC" /><stop offset="1.0" stop-color="#C8C8C8" /></linearGradient><linearGradient id="grad_gpos75" x1="0%" x2="0%" y1="0%" y2="100%"><stop offset="0.0" stop-color="#828282" /><stop offset="0.4" stop-color="#C6C6C6" /><stop offset="0.5" stop-color="#C6C6C6" /><stop offset="0.6" stop-color="#C6C6C6" /><stop offset="1.0" stop-color="#828282" /></linearGradient><linearGradient id="grad_gpos100" x1="0%" x2="0%" y1="0%" y2="100%"><stop offset="0.0" stop-color="#000000" /><stop offset="0.4" stop-color="#444444" /><stop offset="0.5" stop-color="#444444" /><stop offset="0.6" stop-color="#444444" /><stop offset="1.0" stop-color="#000000" /></linearGradient><linearGradient id="grad_gneg" x1="0%" x2="0%" y1="0%" y2="100%"><stop offset="0.0" stop-color="#FFFFFF" /><stop offset="0.4" stop-color="#FFFFFF" /><stop offset="0.5" stop-color="#FFFFFF" /><stop offset="0.6" stop-color="#FFFFFF" /><stop offset="1.0" stop-color="#FFFFFF" /></linearGradient><linearGradient id="grad_acen" x1="0%" x2="0%" y1="0%" y2="100%"><stop offset="0.0" stop-color="#D92F27" /><stop offset="0.4" stop-color="#F7574F" /><stop offset="0.5" stop-color="#F7574F" /><stop offset="0.6" stop-color="#F7574F" /><stop offset="1.0" stop-color="#D92F27" /></linearGradient><linearGradient id="grad_gvar" x1="0%" x2="0%" y1="0%" y2="100%"><stop offset="0.0" stop-color="#AAAAFF" /><stop offset="0.4" stop-color="#CCCCFF" /><stop offset="0.5" stop-color="#CCCCFF" /><stop offset="0.6" stop-color="#CCCCFF" /><stop offset="1.0" stop-color="#AAAAFF" /></linearGradient><linearGradient id="grad_stalk" x1="0%" x2="0%" y1="0%" y2="100%"><stop offset="0.0" stop-color="#647FA4" /><stop offset="0.4" stop-color="#647FA4" /><stop offset="0.5" stop-color="#647FA4" /><stop offset="0.6" stop-color="#647FA4" /><stop offset="1.0" stop-color="#647FA4" /></linearGradient><clipPath id="rounded_clip_p25.3"><rect fill="none" height="100" rx="30" ry="30" stroke="black" stroke-width="2" width="598.0" x="0.0" y="0" /></clipPath><clipPath id="rounded_clip_p25.2"><rect fill="none" height="100" rx="30" ry="30" stroke="black" stroke-width="2" width="598.0" x="0.0" y="0" /></clipPath><clipPath id="rounded_clip_p25.1"><rect fill="none" height="100" rx="30" ry="30" stroke="black" stroke-width="2" width="598.0" x="0.0" y="0" /></clipPath><clipPath id="rounded_clip_p24.3"><rect fill="none" height="100" rx="30" ry="30" stroke="black" stroke-width="2" width="598.0" x="0.0" y="0" /></clipPath><clipPath id="rounded_clip_p24.2"><rect fill="none" height="100" rx="30" ry="30" stroke="black" stroke-width="2" width="598.0" x="0.0" y="0" /></clipPath><clipPath id="rounded_clip_p24.1"><rect fill="none" height="100" rx="30" ry="30" stroke="black" stroke-width="2" width="598.0" x="0.0" y="0" /></clipPath><clipPath id="rounded_clip_p23"><rect fill="none" height="100" rx="30" ry="30" stroke="black" stroke-width="2" width="598.0" x="0.0" y="0" /></clipPath><clipPath id="rounded_clip_p22.3"><rect fill="none" height="100" rx="30" ry="30" stroke="black" stroke-width="2" width="598.0" x="0.0" y="0" /></clipPath><clipPath id="rounded_clip_p22.2"><rect fill="none" height="100" rx="30" ry="30" stroke="black" stroke-width="2" width="598.0" x="0.0" y="0" /></clipPath><clipPath id="rounded_clip_p22.1"><rect fill="none" height="100" rx="30" ry="30" stroke="black" stroke-width="2" width="598.0" x="0.0" y="0" /></clipPath><clipPath id="rounded_clip_p21.33"><rect fill="none" height="100" rx="30" ry="30" stroke="black" stroke-width="2" width="598.0" x="0.0" y="0" /></clipPath><clipPath id="rounded_clip_p21.32"><rect fill="none" height="100" rx="30" ry="30" stroke="black" stroke-width="2" width="598.0" x="0.0" y="0" /></clipPath><clipPath id="rounded_clip_p21.31"><rect fill="none" height="100" rx="30" ry="30" stroke="black" stroke-width="2" width="598.0" x="0.0" y="0" /></clipPath><clipPath id="rounded_clip_p21.2"><rect fill="none" height="100" rx="30" ry="30" stroke="black" stroke-width="2" width="598.0" x="0.0" y="0" /></clipPath><clipPath id="rounded_clip_p21.1"><rect fill="none" height="100" rx="30" ry="30" stroke="black" stroke-width="2" width="598.0" x="0.0" y="0" /></clipPath><clipPath id="rounded_clip_p12.3"><rect fill="none" height="100" rx="30" ry="30" stroke="black" stroke-width="2" width="598.0" x="0.0" y="0" /></clipPath><clipPath id="rounded_clip_p12.2"><rect fill="none" height="100" rx="30" ry="30" stroke="black" stroke-width="2" width="598.0" x="0.0" y="0" /></clipPath><clipPath id="rounded_clip_p12.1"><rect fill="none" height="100" rx="30" ry="30" stroke="black" stroke-width="2" width="598.0" x="0.0" y="0" /></clipPath><clipPath id="rounded_clip_p11.2"><rect fill="none" height="100" rx="30" ry="30" stroke="black" stroke-width="2" width="598.0" x="0.0" y="0" /></clipPath><clipPath id="rounded_clip_p11.1"><rect fill="none" height="100" rx="30" ry="30" stroke="black" stroke-width="2" width="598.0" x="0.0" y="0" /></clipPath><clipPath id="rounded_clip_q11.1"><rect fill="none" height="100" rx="30" ry="30" stroke="black" stroke-width="2" width="1110.05979" x="598.0" y="0" /></clipPath><clipPath id="rounded_clip_q11.2"><rect fill="none" height="100" rx="30" ry="30" stroke="black" stroke-width="2" width="1110.05979" x="598.0" y="0" /></clipPath><clipPath id="rounded_clip_q12"><rect fill="none" height="100" rx="30" ry="30" stroke="black" stroke-width="2" width="1110.05979" x="598.0" y="0" /></clipPath><clipPath id="rounded_clip_q13"><rect fill="none" height="100" rx="30" ry="30" stroke="black" stroke-width="2" width="1110.05979" x="598.0" y="0" /></clipPath><clipPath id="rounded_clip_q14.1"><rect fill="none" height="100" rx="30" ry="30" stroke="black" stroke-width="2" width="1110.05979" x="598.0" y="0" /></clipPath><clipPath id="rounded_clip_q14.2"><rect fill="none" height="100" rx="30" ry="30" stroke="black" stroke-width="2" width="1110.05979" x="598.0" y="0" /></clipPath><clipPath id="rounded_clip_q14.3"><rect fill="none" height="100" rx="30" ry="30" stroke="black" stroke-width="2" width="1110.05979" x="598.0" y="0" /></clipPath><clipPath id="rounded_clip_q15"><rect fill="none" height="100" rx="30" ry="30" stroke="black" stroke-width="2" width="1110.05979" x="598.0" y="0" /></clipPath><clipPath id="rounded_clip_q16.1"><rect fill="none" height="100" rx="30" ry="30" stroke="black" stroke-width="2" width="1110.05979" x="598.0" y="0" /></clipPath><clipPath id="rounded_clip_q16.2"><rect fill="none" height="100" rx="30" ry="30" stroke="black" stroke-width="2" width="1110.05979" x="598.0" y="0" /></clipPath><clipPath id="rounded_clip_q16.3"><rect fill="none" height="100" rx="30" ry="30" stroke="black" stroke-width="2" width="1110.05979" x="598.0" y="0" /></clipPath><clipPath id="rounded_clip_q21"><rect fill="none" height="100" rx="30" ry="30" stroke="black" stroke-width="2" width="1110.05979" x="598.0" y="0" /></clipPath><clipPath id="rounded_clip_q22.1"><rect fill="none" height="100" rx="30" ry="30" stroke="black" stroke-width="2" width="1110.05979" x="598.0" y="0" /></clipPath><clipPath id="rounded_clip_q22.2"><rect fill="none" height="100" rx="30" ry="30" stroke="black" stroke-width="2" width="1110.05979" x="598.0" y="0" /></clipPath><clipPath id="rounded_clip_q22.31"><rect fill="none" height="100" rx="30" ry="30" stroke="black" stroke-width="2" width="1110.05979" x="598.0" y="0" /></clipPath><clipPath id="rounded_clip_q22.32"><rect fill="none" height="100" rx="30" ry="30" stroke="black" stroke-width="2" width="1110.05979" x="598.0" y="0" /></clipPath><clipPath id="rounded_clip_q22.33"><rect fill="none" height="100" rx="30" ry="30" stroke="black" stroke-width="2" width="1110.05979" x="598.0" y="0" /></clipPath><clipPath id="rounded_clip_q23.1"><rect fill="none" height="100" rx="30" ry="30" stroke="black" stroke-width="2" width="1110.05979" x="598.0" y="0" /></clipPath><clipPath id="rounded_clip_q23.2"><rect fill="none" height="100" rx="30" ry="30" stroke="black" stroke-width="2" width="1110.05979" x="598.0" y="0" /></clipPath><clipPath id="rounded_clip_q23.3"><rect fill="none" height="100" rx="30" ry="30" stroke="black" stroke-width="2" width="1110.05979" x="598.0" y="0" /></clipPath><clipPath id="rounded_clip_q24.1"><rect fill="none" height="100" rx="30" ry="30" stroke="black" stroke-width="2" width="1110.05979" x="598.0" y="0" /></clipPath><clipPath id="rounded_clip_q24.2"><rect fill="none" height="100" rx="30" ry="30" stroke="black" stroke-width="2" width="1110.05979" x="598.0" y="0" /></clipPath><clipPath id="rounded_clip_q24.3"><rect fill="none" height="100" rx="30" ry="30" stroke="black" stroke-width="2" width="1110.05979" x="598.0" y="0" /></clipPath><clipPath id="rounded_clip_q25.1"><rect fill="none" height="100" rx="30" ry="30" stroke="black" stroke-width="2" width="1110.05979" x="598.0" y="0" /></clipPath><clipPath id="rounded_clip_q25.2"><rect fill="none" height="100" rx="30" ry="30" stroke="black" stroke-width="2" width="1110.05979" x="598.0" y="0" /></clipPath><clipPath id="rounded_clip_q25.3"><rect fill="none" height="100" rx="30" ry="30" stroke="black" stroke-width="2" width="1110.05979" x="598.0" y="0" /></clipPath><clipPath id="rounded_clip_q26"><rect fill="none" height="100" rx="30" ry="30" stroke="black" stroke-width="2" width="1110.05979" x="598.0" y="0" /></clipPath><clipPath id="rounded_clip_q27"><rect fill="none" height="100" rx="30" ry="30" stroke="black" stroke-width="2" width="1110.05979" x="598.0" y="0" /></clipPath></defs><rect clip-path="url(#rounded_clip_p25.3)" fill="url(#grad_gneg)" height="100" id="p25.3" width="23.0" x="0.0" y="0" /><rect clip-path="url(#rounded_clip_p25.2)" fill="url(#grad_gpos25)" height="100" id="p25.2" width="19.0" x="23.0" y="0" /><rect clip-path="url(#rounded_clip_p25.1)" fill="url(#grad_gneg)" height="100" id="p25.1" width="29.0" x="42.0" y="0" /><rect clip-path="url(#rounded_clip_p24.3)" fill="url(#grad_gpos50)" height="100" id="p24.3" width="35.0" x="71.0" y="0" /><rect clip-path="url(#rounded_clip_p24.2)" fill="url(#grad_gneg)" height="100" id="p24.2" width="10.0" x="106.0" y="0" /><rect clip-path="url(#rounded_clip_p24.1)" fill="url(#grad_gpos25)" height="100" id="p24.1" width="18.0" x="116.0" y="0" /><rect clip-path="url(#rounded_clip_p23)" fill="url(#grad_gneg)" height="100" id="p23" width="18.0" x="134.0" y="0" /><rect clip-path="url(#rounded_clip_p22.3)" fill="url(#grad_gpos75)" height="100" id="p22.3" width="100.0" x="152.0" y="0" /><rect clip-path="url(#rounded_clip_p22.2)" fill="url(#grad_gneg)" height="100" id="p22.2" width="19.0" x="252.0" y="0" /><rect clip-path="url(#rounded_clip_p22.1)" fill="url(#grad_gpos50)" height="100" id="p22.1" width="34.0" x="271.0" y="0" /><rect clip-path="url(#rounded_clip_p21.33)" fill="url(#grad_gneg)" height="100" id="p21.33" width="16.0" x="305.0" y="0" /><rect clip-path="url(#rounded_clip_p21.32)" fill="url(#grad_gpos25)" height="100" id="p21.32" width="14.0" x="321.0" y="0" /><rect clip-path="url(#rounded_clip_p21.31)" fill="url(#grad_gneg)" height="100" id="p21.31" width="31.0" x="335.0" y="0" /><rect clip-path="url(#rounded_clip_p21.2)" fill="url(#grad_gpos25)" height="100" id="p21.2" width="39.0" x="366.0" y="0" /><rect clip-path="url(#rounded_clip_p21.1)" fill="url(#grad_gneg)" height="100" id="p21.1" width="57.0" x="405.0" y="0" /><rect clip-path="url(#rounded_clip_p12.3)" fill="url(#grad_gpos100)" height="100" id="p12.3" width="56.0" x="462.0" y="0" /><rect clip-path="url(#rounded_clip_p12.2)" fill="url(#grad_gneg)" height="100" id="p12.2" width="12.0" x="518.0" y="0" /><rect clip-path="url(#rounded_clip_p12.1)" fill="url(#grad_gpos100)" height="100" id="p12.1" width="42.0" x="530.0" y="0" /><rect clip-path="url(#rounded_clip_p11.2)" fill="url(#grad_gneg)" height="100" id="p11.2" width="13.0" x="572.0" y="0" /><rect clip-path="url(#rounded_clip_p11.1)" fill="url(#grad_acen)" height="100" id="p11.1" width="13.0" x="585.0" y="0" /><rect clip-path="url(#rounded_clip_q11.1)" fill="url(#grad_acen)" height="100" id="q11.1" width="28.0" x="598.0" y="0" /><rect clip-path="url(#rounded_clip_q11.2)" fill="url(#grad_gneg)" height="100" id="q11.2" width="1.0" x="626.0" y="0" /><rect clip-path="url(#rounded_clip_q12)" fill="url(#grad_gpos100)" height="100" id="q12" width="65.0" x="627.0" y="0" /><rect clip-path="url(#rounded_clip_q13)" fill="url(#grad_gneg)" height="100" id="q13" width="60.0" x="692.0" y="0" /><rect clip-path="url(#rounded_clip_q14.1)" fill="url(#grad_gpos50)" height="100" id="q14.1" width="80.0" x="752.0" y="0" /><rect clip-path="url(#rounded_clip_q14.2)" fill="url(#grad_gneg)" height="100" id="q14.2" width="10.0" x="832.0" y="0" /><rect clip-path="url(#rounded_clip_q14.3)" fill="url(#grad_gpos50)" height="100" id="q14.3" width="31.0" x="842.0" y="0" /><rect clip-path="url(#rounded_clip_q15)" fill="url(#grad_gneg)" height="100" id="q15" width="52.0" x="873.0" y="0" /><rect clip-path="url(#rounded_clip_q16.1)" fill="url(#grad_gpos100)" height="100" id="q16.1" width="64.0" x="925.0" y="0" /><rect clip-path="url(#rounded_clip_q16.2)" fill="url(#grad_gneg)" height="100" id="q16.2" width="11.0" x="989.0" y="0" /><rect clip-path="url(#rounded_clip_q16.3)" fill="url(#grad_gpos100)" height="100" id="q16.3" width="50.0" x="1000.0" y="0" /><rect clip-path="url(#rounded_clip_q21)" fill="url(#grad_gneg)" height="100" id="q21" width="92.0" x="1050.0" y="0" /><rect clip-path="url(#rounded_clip_q22.1)" fill="url(#grad_gpos75)" height="100" id="q22.1" width="37.0" x="1142.0" y="0" /><rect clip-path="url(#rounded_clip_q22.2)" fill="url(#grad_gneg)" height="100" id="q22.2" width="2.0" x="1179.0" y="0" /><rect clip-path="url(#rounded_clip_q22.31)" fill="url(#grad_gpos100)" height="100" id="q22.31" width="77.0" x="1181.0" y="0" /><rect clip-path="url(#rounded_clip_q22.32)" fill="url(#grad_gneg)" height="100" id="q22.32" width="10.0" x="1258.0" y="0" /><rect clip-path="url(#rounded_clip_q22.33)" fill="url(#grad_gpos75)" height="100" id="q22.33" width="32.0" x="1268.0" y="0" /><rect clip-path="url(#rounded_clip_q23.1)" fill="url(#grad_gneg)" height="100" id="q23.1" width="9.0" x="1300.0" y="0" /><rect clip-path="url(#rounded_clip_q23.2)" fill="url(#grad_gpos50)" height="100" id="q23.2" width="38.0" x="1309.0" y="0" /><rect clip-path="url(#rounded_clip_q23.3)" fill="url(#grad_gneg)" height="100" id="q23.3" width="36.0" x="1347.0" y="0" /><rect clip-path="url(#rounded_clip_q24.1)" fill="url(#grad_gpos75)" height="100" id="q24.1" width="39.0" x="1383.0" y="0" /><rect clip-path="url(#rounded_clip_q24.2)" fill="url(#grad_gneg)" height="100" id="q24.2" width="29.0" x="1422.0" y="0" /><rect clip-path="url(#rounded_clip_q24.3)" fill="url(#grad_gpos75)" height="100" id="q24.3" width="34.0" x="1451.0" y="0" /><rect clip-path="url(#rounded_clip_q25.1)" fill="url(#grad_gneg)" height="100" id="q25.1" width="36.0" x="1485.0" y="0" /><rect clip-path="url(#rounded_clip_q25.2)" fill="url(#grad_gpos50)" height="100" id="q25.2" width="31.0" x="1521.0" y="0" /><rect clip-path="url(#rounded_clip_q25.3)" fill="url(#grad_gneg)" height="100" id="q25.3" width="54.0" x="1552.0" y="0" /><rect clip-path="url(#rounded_clip_q26)" fill="url(#grad_gpos50)" height="100" id="q26" width="35.0" x="1606.0" y="0" /><rect clip-path="url(#rounded_clip_q27)" fill="url(#grad_gneg)" height="100" id="q27" width="67.05979" x="1641.0" y="0" /><rect fill="none" height="100" rx="30" ry="30" stroke="black" stroke-width="2" width="598.0" x="0.0" y="0" /><rect fill="none" height="100" rx="30" ry="30" stroke="black" stroke-width="2" width="1110.05979" x="598.0" y="0" /></svg>
