<?xml version="1.0" encoding="utf-8" ?>
<svg baseProfile="full" height="100" version="1.1" width="903.38345" xmlns="http://www.w3.org/2000/svg" xmlns:ev="http://www.w3.org/2001/xml-events" xmlns:xlink="http://www.w3.org/1999/xlink"><defs><linearGradient id="grad_gpos25" x1="0%" x2="0%" y1="0%" y2="100%"><stop offset="0.0" stop-color="#C8C8C8" /><stop offset="0.4" stop-color="#DCDCDC" /><stop offset="0.5" stop-color="#DCDCDC" /><stop offset="0.6" stop-color="#DCDCDC" /><stop offset="1.0" stop-color="#C8C8C8" /></linearGradient><linearGradient id="grad_gpos50" x1="0%" x2="0%" y1="0%" y2="100%"><stop offset="0.0" stop-color="#C8C8C8" /><stop offset="0.4" stop-color="#DCDCDC" /><stop offset="0.5" stop-color="#DCDCDC" /><stop offset="0.6" stop-color="#DCDCDC" /><stop offset="1.0" stop-color="#C8C8C8" /></linearGradient><linearGradient id="grad_gpos75" x1="0%" x2="0%" y1="0%" y2="100%"><stop offset="0.0" stop-color="#828282" /><stop offset="0.4" stop-color="#C6C6C6" /><stop offset="0.5" stop-color="#C6C6C6" /><stop offset="0.6" stop-color="#C6C6C6" /><stop offset="1.0" stop-color="#828282" /></linearGradient><linearGradient id="grad_gpos100" x1="0%" x2="0%" y1="0%" y2="100%"><stop offset="0.0" stop-color="#000000" /><stop offset="0.4" stop-color="#444444" /><stop offset="0.5" stop-color="#444444" /><stop offset="0.6" stop-color="#444444" /><stop offset="1.0" stop-color="#000000" /></linearGradient><linearGradient id="grad_gneg" x1="0%" x2="0%" y1="0%" y2="100%"><stop offset="0.0" stop-color="#FFFFFF" /><stop offset="0.4" stop-color="#FFFFFF" /><stop offset="0.5" stop-color="#FFFFFF" /><stop offset="0.6" stop-color="#FFFFFF" /><stop offset="1.0" stop-color="#FFFFFF" /></linearGradient><linearGradient id="grad_acen" x1="0%" x2="0%" y1="0%" y2="100%"><stop offset="0.0" stop-color="#D92F27" /><stop offset="0.4" stop-color="#F7574F" /><stop offset="0.5" stop-color="#F7574F" /><stop offset="0.6" stop-color="#F7574F" /><stop offset="1.0" stop-color="#D92F27" /></linearGradient><linearGradient id="grad_gvar" x1="0%" x2="0%" y1="0%" y2="100%"><stop offset="0.0" stop-color="#AAAAFF" /><stop offset="0.4" stop-color="#CCCCFF" /><stop offset="0.5" stop-color="#CCCCFF" /><stop offset="0.6" stop-color="#CCCCFF" /><stop offset="1.0" stop-color="#AAAAFF" /></linearGradient><linearGradient id="grad_stalk" x1="0%" x2="0%" y1="0%" y2="100%"><stop offset="0.0" stop-color="#647FA4" /><stop offset="0.4" stop-color="#647FA4" /><stop offset="0.5" stop-color="#647FA4" /><stop offset="0.6" stop-color="#647FA4" /><stop offset="1.0" stop-color="#647FA4" /></linearGradient><clipPath id="rounded_clip_p13.3"><rect fill="none" height="100" rx="30" ry="30" stroke="black" stroke-width="2" width="368.0" x="0.0" y="0" /></clipPath><clipPath id="rounded_clip_p13.2"><rect fill="none" height="100" rx="30" ry="30" stroke="black" stroke-width="2" width="368.0" x="0.0" y="0" /></clipPath><clipPath id="rounded_clip_p13.13"><rect fill="none" height="100" rx="30" ry="30" stroke="black" stroke-width="2" width="368.0" x="0.0" y="0" /></clipPath><clipPath id="rounded_clip_p13.12"><rect fill="none" height="100" rx="30" ry="30" stroke="black" stroke-width="2" width="368.0" x="0.0" y="0" /></clipPath><clipPath id="rounded_clip_p13.11"><rect fill="none" height="100" rx="30" ry="30" stroke="black" stroke-width="2" width="368.0" x="0.0" y="0" /></clipPath><clipPath id="rounded_clip_p12.3"><rect fill="none" height="100" rx="30" ry="30" stroke="black" stroke-width="2" width="368.0" x="0.0" y="0" /></clipPath><clipPath id="rounded_clip_p12.2"><rect fill="none" height="100" rx="30" ry="30" stroke="black" stroke-width="2" width="368.0" x="0.0" y="0" /></clipPath><clipPath id="rounded_clip_p12.1"><rect fill="none" height="100" rx="30" ry="30" stroke="black" stroke-width="2" width="368.0" x="0.0" y="0" /></clipPath><clipPath id="rounded_clip_p11.2"><rect fill="none" height="100" rx="30" ry="30" stroke="black" stroke-width="2" width="368.0" x="0.0" y="0" /></clipPath><clipPath id="rounded_clip_p11.1"><rect fill="none" height="100" rx="30" ry="30" stroke="black" stroke-width="2" width="368.0" x="0.0" y="0" /></clipPath><clipPath id="rounded_clip_q11.1"><rect fill="none" height="100" rx="30" ry="30" stroke="black" stroke-width="2" width="535.38345" x="368.0" y="0" /></clipPath><clipPath id="rounded_clip_q11.2"><rect fill="none" height="100" rx="30" ry="30" stroke="black" stroke-width="2" width="535.38345" x="368.0" y="0" /></clipPath><clipPath id="rounded_clip_q12.1"><rect fill="none" height="100" rx="30" ry="30" stroke="black" stroke-width="2" width="535.38345" x="368.0" y="0" /></clipPath><clipPath id="rounded_clip_q12.2"><rect fill="none" height="100" rx="30" ry="30" stroke="black" stroke-width="2" width="535.38345" x="368.0" y="0" /></clipPath><clipPath id="rounded_clip_q13"><rect fill="none" height="100" rx="30" ry="30" stroke="black" stroke-width="2" width="535.38345" x="368.0" y="0" /></clipPath><clipPath id="rounded_clip_q21"><rect fill="none" height="100" rx="30" ry="30" stroke="black" stroke-width="2" width="535.38345" x="368.0" y="0" /></clipPath><clipPath id="rounded_clip_q22.1"><rect fill="none" height="100" rx="30" ry="30" stroke="black" stroke-width="2" width="535.38345" x="368.0" y="0" /></clipPath><clipPath id="rounded_clip_q22.2"><rect fill="none" height="100" rx="30" ry="30" stroke="black" stroke-width="2" width="535.38345" x="368.0" y="0" /></clipPath><clipPath id="rounded_clip_q22.3"><rect fill="none" height="100" rx="30" ry="30" stroke="black" stroke-width="2" width="535.38345" x="368.0" y="0" /></clipPath><clipPath id="rounded_clip_q23.1"><rect fill="none" height="100" rx="30" ry="30" stroke="black" stroke-width="2" width="535.38345" x="368.0" y="0" /></clipPath><clipPath id="rounded_clip_q23.2"><rect fill="none" height="100" rx="30" ry="30" stroke="black" stroke-width="2" width="535.38345" x="368.0" y="0" /></clipPath><clipPath id="rounded_clip_q23.3"><rect fill="none" height="100" rx="30" ry="30" stroke="black" stroke-width="2" width="535.38345" x="368.0" y="0" /></clipPath><clipPath id="rounded_clip_q24.1"><rect fill="none" height="100" rx="30" ry="30" stroke="black" stroke-width="2" width="535.38345" x="368.0" y="0" /></clipPath><clipPath id="rounded_clip_q24.2"><rect fill="none" height="100" rx="30" ry="30" stroke="black" stroke-width="2" width="535.38345" x="368.0" y="0" /></clipPath><clipPath id="rounded_clip_q24.3"><rect fill="none" height="100" rx="30" ry="30" stroke="black" stroke-width="2" width="535.38345" x="368.0" y="0" /></clipPath></defs><rect clip-path="url(#rounded_clip_p13.3)" fill="url(#grad_gneg)" height="100" id="p13.3" width="78.0" x="0.0" y="0" /><rect clip-path="url(#rounded_clip_p13.2)" fill="url(#grad_gpos50)" height="100" id="p13.2" width="26.0" x="78.0" y="0" /><rect clip-path="url(#rounded_clip_p13.13)" fill="url(#grad_gneg)" height="100" id="p13.13" width="21.0" x="104.0" y="0" /><rect clip-path="url(#rounded_clip_p13.12)" fill="url(#grad_gpos50)" height="100" id="p13.12" width="22.0" x="125.0" y="0" /><rect clip-path="url(#rounded_clip_p13.11)" fill="url(#grad_gneg)" height="100" id="p13.11" width="20.0" x="147.0" y="0" /><rect clip-path="url(#rounded_clip_p12.3)" fill="url(#grad_gpos50)" height="100" id="p12.3" width="45.0" x="167.0" y="0" /><rect clip-path="url(#rounded_clip_p12.2)" fill="url(#grad_gneg)" height="100" id="p12.2" width="30.0" x="212.0" y="0" /><rect clip-path="url(#rounded_clip_p12.1)" fill="url(#grad_gpos50)" height="100" id="p12.1" width="43.0" x="242.0" y="0" /><rect clip-path="url(#rounded_clip_p11.2)" fill="url(#grad_gneg)" height="100" id="p11.2" width="68.0" x="285.0" y="0" /><rect clip-path="url(#rounded_clip_p11.1)" fill="url(#grad_acen)" height="100" id="p11.1" width="15.0" x="353.0" y="0" /><rect clip-path="url(#rounded_clip_q11.1)" fill="url(#grad_acen)" height="100" id="q11.1" width="16.0" x="368.0" y="0" /><rect clip-path="url(#rounded_clip_q11.2)" fill="url(#grad_gvar)" height="100" id="q11.2" width="86.0" x="384.0" y="0" /><rect clip-path="url(#rounded_clip_q12.1)" fill="url(#grad_gneg)" height="100" id="q12.1" width="56.0" x="470.0" y="0" /><rect clip-path="url(#rounded_clip_q12.2)" fill="url(#grad_gpos50)" height="100" id="q12.2" width="34.0" x="526.0" y="0" /><rect clip-path="url(#rounded_clip_q13)" fill="url(#grad_gneg)" height="100" id="q13" width="13.0" x="560.0" y="0" /><rect clip-path="url(#rounded_clip_q21)" fill="url(#grad_gpos100)" height="100" id="q21" width="93.0" x="573.0" y="0" /><rect clip-path="url(#rounded_clip_q22.1)" fill="url(#grad_gneg)" height="100" id="q22.1" width="42.0" x="666.0" y="0" /><rect clip-path="url(#rounded_clip_q22.2)" fill="url(#grad_gpos50)" height="100" id="q22.2" width="20.0" x="708.0" y="0" /><rect clip-path="url(#rounded_clip_q22.3)" fill="url(#grad_gneg)" height="100" id="q22.3" width="13.0" x="728.0" y="0" /><rect clip-path="url(#rounded_clip_q23.1)" fill="url(#grad_gpos75)" height="100" id="q23.1" width="51.0" x="741.0" y="0" /><rect clip-path="url(#rounded_clip_q23.2)" fill="url(#grad_gneg)" height="100" id="q23.2" width="24.0" x="792.0" y="0" /><rect clip-path="url(#rounded_clip_q23.3)" fill="url(#grad_gpos50)" height="100" id="q23.3" width="25.0" x="816.0" y="0" /><rect clip-path="url(#rounded_clip_q24.1)" fill="url(#grad_gneg)" height="100" id="q24.1" width="29.0" x="841.0" y="0" /><rect clip-path="url(#rounded_clip_q24.2)" fill="url(#grad_gpos25)" height="100" id="q24.2" width="17.0" x="870.0" y="0" /><rect clip-path="url(#rounded_clip_q24.3)" fill="url(#grad_gneg)" height="100" id="q24.3" width="16.38345" x="887.0" y="0" /><rect fill="none" height="100" rx="30" ry="30" stroke="black" stroke-width="2" width="368.0" x="0.0" y="0" /><rect fill="none" height="100" rx="30" ry="30" stroke="black" stroke-width="2" width="535.38345" x="368.0" y="0" /></svg>