<?xml version="1.0" encoding="utf-8" ?>
<svg baseProfile="full" height="100" version="1.1" width="1332.75309" xmlns="http://www.w3.org/2000/svg" xmlns:ev="http://www.w3.org/2001/xml-events" xmlns:xlink="http://www.w3.org/1999/xlink"><defs><linearGradient id="grad_gpos25" x1="0%" x2="0%" y1="0%" y2="100%"><stop offset="0.0" stop-color="#C8C8C8" /><stop offset="0.4" stop-color="#DCDCDC" /><stop offset="0.5" stop-color="#DCDCDC" /><stop offset="0.6" stop-color="#DCDCDC" /><stop offset="1.0" stop-color="#C8C8C8" /></linearGradient><linearGradient id="grad_gpos50" x1="0%" x2="0%" y1="0%" y2="100%"><stop offset="0.0" stop-color="#C8C8C8" /><stop offset="0.4" stop-color="#DCDCDC" /><stop offset="0.5" stop-color="#DCDCDC" /><stop offset="0.6" stop-color="#DCDCDC" /><stop offset="1.0" stop-color="#C8C8C8" /></linearGradient><linearGradient id="grad_gpos75" x1="0%" x2="0%" y1="0%" y2="100%"><stop offset="0.0" stop-color="#828282" /><stop offset="0.4" stop-color="#C6C6C6" /><stop offset="0.5" stop-color="#C6C6C6" /><stop offset="0.6" stop-color="#C6C6C6" /><stop offset="1.0" stop-color="#828282" /></linearGradient><linearGradient id="grad_gpos100" x1="0%" x2="0%" y1="0%" y2="100%"><stop offset="0.0" stop-color="#000000" /><stop offset="0.4" stop-color="#444444" /><stop offset="0.5" stop-color="#444444" /><stop offset="0.6" stop-color="#444444" /><stop offset="1.0" stop-color="#000000" /></linearGradient><linearGradient id="grad_gneg" x1="0%" x2="0%" y1="0%" y2="100%"><stop offset="0.0" stop-color="#FFFFFF" /><stop offset="0.4" stop-color="#FFFFFF" /><stop offset="0.5" stop-color="#FFFFFF" /><stop offset="0.6" stop-color="#FFFFFF" /><stop offset="1.0" stop-color="#FFFFFF" /></linearGradient><linearGradient id="grad_acen" x1="0%" x2="0%" y1="0%" y2="100%"><stop offset="0.0" stop-color="#D92F27" /><stop offset="0.4" stop-color="#F7574F" /><stop offset="0.5" stop-color="#F7574F" /><stop offset="0.6" stop-color="#F7574F" /><stop offset="1.0" stop-color="#D92F27" /></linearGradient><linearGradient id="grad_gvar" x1="0%" x2="0%" y1="0%" y2="100%"><stop offset="0.0" stop-color="#AAAAFF" /><stop offset="0.4" stop-color="#CCCCFF" /><stop offset="0.5" stop-color="#CCCCFF" /><stop offset="0.6" stop-color="#CCCCFF" /><stop offset="1.0" stop-color="#AAAAFF" /></linearGradient><linearGradient id="grad_stalk" x1="0%" x2="0%" y1="0%" y2="100%"><stop offset="0.0" stop-color="#647FA4" /><stop offset="0.4" stop-color="#647FA4" /><stop offset="0.5" stop-color="#647FA4" /><stop offset="0.6" stop-color="#647FA4" /><stop offset="1.0" stop-color="#647FA4" /></linearGradient><clipPath id="rounded_clip_p13.33"><rect fill="none" height="100" rx="30" ry="30" stroke="black" stroke-width="2" width="355.0" x="0.0" y="0" /></clipPath><clipPath id="rounded_clip_p13.32"><rect fill="none" height="100" rx="30" ry="30" stroke="black" stroke-width="2" width="355.0" x="0.0" y="0" /></clipPath><clipPath id="rounded_clip_p13.31"><rect fill="none" height="100" rx="30" ry="30" stroke="black" stroke-width="2" width="355.0" x="0.0" y="0" /></clipPath><clipPath id="rounded_clip_p13.2"><rect fill="none" height="100" rx="30" ry="30" stroke="black" stroke-width="2" width="355.0" x="0.0" y="0" /></clipPath><clipPath id="rounded_clip_p13.1"><rect fill="none" height="100" rx="30" ry="30" stroke="black" stroke-width="2" width="355.0" x="0.0" y="0" /></clipPath><clipPath id="rounded_clip_p12.3"><rect fill="none" height="100" rx="30" ry="30" stroke="black" stroke-width="2" width="355.0" x="0.0" y="0" /></clipPath><clipPath id="rounded_clip_p12.2"><rect fill="none" height="100" rx="30" ry="30" stroke="black" stroke-width="2" width="355.0" x="0.0" y="0" /></clipPath><clipPath id="rounded_clip_p12.1"><rect fill="none" height="100" rx="30" ry="30" stroke="black" stroke-width="2" width="355.0" x="0.0" y="0" /></clipPath><clipPath id="rounded_clip_p11.23"><rect fill="none" height="100" rx="30" ry="30" stroke="black" stroke-width="2" width="355.0" x="0.0" y="0" /></clipPath><clipPath id="rounded_clip_p11.22"><rect fill="none" height="100" rx="30" ry="30" stroke="black" stroke-width="2" width="355.0" x="0.0" y="0" /></clipPath><clipPath id="rounded_clip_p11.21"><rect fill="none" height="100" rx="30" ry="30" stroke="black" stroke-width="2" width="355.0" x="0.0" y="0" /></clipPath><clipPath id="rounded_clip_p11.1"><rect fill="none" height="100" rx="30" ry="30" stroke="black" stroke-width="2" width="355.0" x="0.0" y="0" /></clipPath><clipPath id="rounded_clip_q11"><rect fill="none" height="100" rx="30" ry="30" stroke="black" stroke-width="2" width="977.75309" x="355.0" y="0" /></clipPath><clipPath id="rounded_clip_q12"><rect fill="none" height="100" rx="30" ry="30" stroke="black" stroke-width="2" width="977.75309" x="355.0" y="0" /></clipPath><clipPath id="rounded_clip_q13.11"><rect fill="none" height="100" rx="30" ry="30" stroke="black" stroke-width="2" width="977.75309" x="355.0" y="0" /></clipPath><clipPath id="rounded_clip_q13.12"><rect fill="none" height="100" rx="30" ry="30" stroke="black" stroke-width="2" width="977.75309" x="355.0" y="0" /></clipPath><clipPath id="rounded_clip_q13.13"><rect fill="none" height="100" rx="30" ry="30" stroke="black" stroke-width="2" width="977.75309" x="355.0" y="0" /></clipPath><clipPath id="rounded_clip_q13.2"><rect fill="none" height="100" rx="30" ry="30" stroke="black" stroke-width="2" width="977.75309" x="355.0" y="0" /></clipPath><clipPath id="rounded_clip_q13.3"><rect fill="none" height="100" rx="30" ry="30" stroke="black" stroke-width="2" width="977.75309" x="355.0" y="0" /></clipPath><clipPath id="rounded_clip_q14.1"><rect fill="none" height="100" rx="30" ry="30" stroke="black" stroke-width="2" width="977.75309" x="355.0" y="0" /></clipPath><clipPath id="rounded_clip_q14.2"><rect fill="none" height="100" rx="30" ry="30" stroke="black" stroke-width="2" width="977.75309" x="355.0" y="0" /></clipPath><clipPath id="rounded_clip_q14.3"><rect fill="none" height="100" rx="30" ry="30" stroke="black" stroke-width="2" width="977.75309" x="355.0" y="0" /></clipPath><clipPath id="rounded_clip_q15"><rect fill="none" height="100" rx="30" ry="30" stroke="black" stroke-width="2" width="977.75309" x="355.0" y="0" /></clipPath><clipPath id="rounded_clip_q21.1"><rect fill="none" height="100" rx="30" ry="30" stroke="black" stroke-width="2" width="977.75309" x="355.0" y="0" /></clipPath><clipPath id="rounded_clip_q21.2"><rect fill="none" height="100" rx="30" ry="30" stroke="black" stroke-width="2" width="977.75309" x="355.0" y="0" /></clipPath><clipPath id="rounded_clip_q21.31"><rect fill="none" height="100" rx="30" ry="30" stroke="black" stroke-width="2" width="977.75309" x="355.0" y="0" /></clipPath><clipPath id="rounded_clip_q21.32"><rect fill="none" height="100" rx="30" ry="30" stroke="black" stroke-width="2" width="977.75309" x="355.0" y="0" /></clipPath><clipPath id="rounded_clip_q21.33"><rect fill="none" height="100" rx="30" ry="30" stroke="black" stroke-width="2" width="977.75309" x="355.0" y="0" /></clipPath><clipPath id="rounded_clip_q22"><rect fill="none" height="100" rx="30" ry="30" stroke="black" stroke-width="2" width="977.75309" x="355.0" y="0" /></clipPath><clipPath id="rounded_clip_q23.1"><rect fill="none" height="100" rx="30" ry="30" stroke="black" stroke-width="2" width="977.75309" x="355.0" y="0" /></clipPath><clipPath id="rounded_clip_q23.2"><rect fill="none" height="100" rx="30" ry="30" stroke="black" stroke-width="2" width="977.75309" x="355.0" y="0" /></clipPath><clipPath id="rounded_clip_q23.3"><rect fill="none" height="100" rx="30" ry="30" stroke="black" stroke-width="2" width="977.75309" x="355.0" y="0" /></clipPath><clipPath id="rounded_clip_q24.11"><rect fill="none" height="100" rx="30" ry="30" stroke="black" stroke-width="2" width="977.75309" x="355.0" y="0" /></clipPath><clipPath id="rounded_clip_q24.12"><rect fill="none" height="100" rx="30" ry="30" stroke="black" stroke-width="2" width="977.75309" x="355.0" y="0" /></clipPath><clipPath id="rounded_clip_q24.13"><rect fill="none" height="100" rx="30" ry="30" stroke="black" stroke-width="2" width="977.75309" x="355.0" y="0" /></clipPath><clipPath id="rounded_clip_q24.21"><rect fill="none" height="100" rx="30" ry="30" stroke="black" stroke-width="2" width="977.75309" x="355.0" y="0" /></clipPath><clipPath id="rounded_clip_q24.22"><rect fill="none" height="100" rx="30" ry="30" stroke="black" stroke-width="2" width="977.75309" x="355.0" y="0" /></clipPath><clipPath id="rounded_clip_q24.23"><rect fill="none" height="100" rx="30" ry="30" stroke="black" stroke-width="2" width="977.75309" x="355.0" y="0" /></clipPath><clipPath id="rounded_clip_q24.31"><rect fill="none" height="100" rx="30" ry="30" stroke="black" stroke-width="2" width="977.75309" x="355.0" y="0" /></clipPath><clipPath id="rounded_clip_q24.32"><rect fill="none" height="100" rx="30" ry="30" stroke="black" stroke-width="2" width="977.75309" x="355.0" y="0" /></clipPath><clipPath id="rounded_clip_q24.33"><rect fill="none" height="100" rx="30" ry="30" stroke="black" stroke-width="2" width="977.75309" x="355.0" y="0" /></clipPath></defs><rect clip-path="url(#rounded_clip_p13.33)" fill="url(#grad_gneg)" height="100" id="p13.33" width="32.0" x="0.0" y="0" /><rect clip-path="url(#rounded_clip_p13.32)" fill="url(#grad_gpos25)" height="100" id="p13.32" width="21.0" x="32.0" y="0" /><rect clip-path="url(#rounded_clip_p13.31)" fill="url(#grad_gneg)" height="100" id="p13.31" width="47.0" x="53.0" y="0" /><rect clip-path="url(#rounded_clip_p13.2)" fill="url(#grad_gpos75)" height="100" id="p13.2" width="26.0" x="100.0" y="0" /><rect clip-path="url(#rounded_clip_p13.1)" fill="url(#grad_gneg)" height="100" id="p13.1" width="20.0" x="126.0" y="0" /><rect clip-path="url(#rounded_clip_p12.3)" fill="url(#grad_gpos100)" height="100" id="p12.3" width="52.0" x="146.0" y="0" /><rect clip-path="url(#rounded_clip_p12.2)" fill="url(#grad_gneg)" height="100" id="p12.2" width="13.0" x="198.0" y="0" /><rect clip-path="url(#rounded_clip_p12.1)" fill="url(#grad_gpos100)" height="100" id="p12.1" width="52.0" x="211.0" y="0" /><rect clip-path="url(#rounded_clip_p11.23)" fill="url(#grad_gneg)" height="100" id="p11.23" width="13.0" x="263.0" y="0" /><rect clip-path="url(#rounded_clip_p11.22)" fill="url(#grad_gpos50)" height="100" id="p11.22" width="29.0" x="276.0" y="0" /><rect clip-path="url(#rounded_clip_p11.21)" fill="url(#grad_gneg)" height="100" id="p11.21" width="27.0" x="305.0" y="0" /><rect clip-path="url(#rounded_clip_p11.1)" fill="url(#grad_acen)" height="100" id="p11.1" width="23.0" x="332.0" y="0" /><rect clip-path="url(#rounded_clip_q11)" fill="url(#grad_acen)" height="100" id="q11" width="23.0" x="355.0" y="0" /><rect clip-path="url(#rounded_clip_q12)" fill="url(#grad_gpos100)" height="100" id="q12" width="82.0" x="378.0" y="0" /><rect clip-path="url(#rounded_clip_q13.11)" fill="url(#grad_gneg)" height="100" id="q13.11" width="27.0" x="460.0" y="0" /><rect clip-path="url(#rounded_clip_q13.12)" fill="url(#grad_gpos25)" height="100" id="q13.12" width="24.0" x="487.0" y="0" /><rect clip-path="url(#rounded_clip_q13.13)" fill="url(#grad_gneg)" height="100" id="q13.13" width="34.0" x="511.0" y="0" /><rect clip-path="url(#rounded_clip_q13.2)" fill="url(#grad_gpos25)" height="100" id="q13.2" width="17.0" x="545.0" y="0" /><rect clip-path="url(#rounded_clip_q13.3)" fill="url(#grad_gneg)" height="100" id="q13.3" width="15.0" x="562.0" y="0" /><rect clip-path="url(#rounded_clip_q14.1)" fill="url(#grad_gpos75)" height="100" id="q14.1" width="50.0" x="577.0" y="0" /><rect clip-path="url(#rounded_clip_q14.2)" fill="url(#grad_gneg)" height="100" id="q14.2" width="20.0" x="627.0" y="0" /><rect clip-path="url(#rounded_clip_q14.3)" fill="url(#grad_gpos50)" height="100" id="q14.3" width="26.0" x="647.0" y="0" /><rect clip-path="url(#rounded_clip_q15)" fill="url(#grad_gneg)" height="100" id="q15" width="38.0" x="673.0" y="0" /><rect clip-path="url(#rounded_clip_q21.1)" fill="url(#grad_gpos75)" height="100" id="q21.1" width="42.0" x="711.0" y="0" /><rect clip-path="url(#rounded_clip_q21.2)" fill="url(#grad_gneg)" height="100" id="q21.2" width="46.0" x="753.0" y="0" /><rect clip-path="url(#rounded_clip_q21.31)" fill="url(#grad_gpos100)" height="100" id="q21.31" width="64.0" x="799.0" y="0" /><rect clip-path="url(#rounded_clip_q21.32)" fill="url(#grad_gneg)" height="100" id="q21.32" width="23.0" x="863.0" y="0" /><rect clip-path="url(#rounded_clip_q21.33)" fill="url(#grad_gpos100)" height="100" id="q21.33" width="36.0" x="886.0" y="0" /><rect clip-path="url(#rounded_clip_q22)" fill="url(#grad_gneg)" height="100" id="q22" width="36.0" x="922.0" y="0" /><rect clip-path="url(#rounded_clip_q23.1)" fill="url(#grad_gpos75)" height="100" id="q23.1" width="54.0" x="958.0" y="0" /><rect clip-path="url(#rounded_clip_q23.2)" fill="url(#grad_gneg)" height="100" id="q23.2" width="23.0" x="1012.0" y="0" /><rect clip-path="url(#rounded_clip_q23.3)" fill="url(#grad_gpos50)" height="100" id="q23.3" width="51.0" x="1035.0" y="0" /><rect clip-path="url(#rounded_clip_q24.11)" fill="url(#grad_gneg)" height="100" id="q24.11" width="27.0" x="1086.0" y="0" /><rect clip-path="url(#rounded_clip_q24.12)" fill="url(#grad_gpos25)" height="100" id="q24.12" width="6.0" x="1113.0" y="0" /><rect clip-path="url(#rounded_clip_q24.13)" fill="url(#grad_gneg)" height="100" id="q24.13" width="20.0" x="1119.0" y="0" /><rect clip-path="url(#rounded_clip_q24.21)" fill="url(#grad_gpos50)" height="100" id="q24.21" width="25.0" x="1139.0" y="0" /><rect clip-path="url(#rounded_clip_q24.22)" fill="url(#grad_gneg)" height="100" id="q24.22" width="13.0" x="1164.0" y="0" /><rect clip-path="url(#rounded_clip_q24.23)" fill="url(#grad_gpos50)" height="100" id="q24.23" width="26.0" x="1177.0" y="0" /><rect clip-path="url(#rounded_clip_q24.31)" fill="url(#grad_gneg)" height="100" id="q24.31" width="51.0" x="1203.0" y="0" /><rect clip-path="url(#rounded_clip_q24.32)" fill="url(#grad_gpos50)" height="100" id="q24.32" width="33.0" x="1254.0" y="0" /><rect clip-path="url(#rounded_clip_q24.33)" fill="url(#grad_gneg)" height="100" id="q24.33" width="45.75309" x="1287.0" y="0" /><rect fill="none" height="100" rx="30" ry="30" stroke="black" stroke-width="2" width="355.0" x="0.0" y="0" /><rect fill="none" height="100" rx="30" ry="30" stroke="black" stroke-width="2" width="977.75309" x="355.0" y="0" /></svg>