<?xml version="1.0" encoding="utf-8" ?>
<svg baseProfile="full" height="100" version="1.1" width="1019.91189" xmlns="http://www.w3.org/2000/svg" xmlns:ev="http://www.w3.org/2001/xml-events" xmlns:xlink="http://www.w3.org/1999/xlink"><defs><linearGradient id="grad_gpos25" x1="0%" x2="0%" y1="0%" y2="100%"><stop offset="0.0" stop-color="#C8C8C8" /><stop offset="0.4" stop-color="#DCDCDC" /><stop offset="0.5" stop-color="#DCDCDC" /><stop offset="0.6" stop-color="#DCDCDC" /><stop offset="1.0" stop-color="#C8C8C8" /></linearGradient><linearGradient id="grad_gpos50" x1="0%" x2="0%" y1="0%" y2="100%"><stop offset="0.0" stop-color="#C8C8C8" /><stop offset="0.4" stop-color="#DCDCDC" /><stop offset="0.5" stop-color="#DCDCDC" /><stop offset="0.6" stop-color="#DCDCDC" /><stop offset="1.0" stop-color="#C8C8C8" /></linearGradient><linearGradient id="grad_gpos75" x1="0%" x2="0%" y1="0%" y2="100%"><stop offset="0.0" stop-color="#828282" /><stop offset="0.4" stop-color="#C6C6C6" /><stop offset="0.5" stop-color="#C6C6C6" /><stop offset="0.6" stop-color="#C6C6C6" /><stop offset="1.0" stop-color="#828282" /></linearGradient><linearGradient id="grad_gpos100" x1="0%" x2="0%" y1="0%" y2="100%"><stop offset="0.0" stop-color="#000000" /><stop offset="0.4" stop-color="#444444" /><stop offset="0.5" stop-color="#444444" /><stop offset="0.6" stop-color="#444444" /><stop offset="1.0" stop-color="#000000" /></linearGradient><linearGradient id="grad_gneg" x1="0%" x2="0%" y1="0%" y2="100%"><stop offset="0.0" stop-color="#FFFFFF" /><stop offset="0.4" stop-color="#FFFFFF" /><stop offset="0.5" stop-color="#FFFFFF" /><stop offset="0.6" stop-color="#FFFFFF" /><stop offset="1.0" stop-color="#FFFFFF" /></linearGradient><linearGradient id="grad_acen" x1="0%" x2="0%" y1="0%" y2="100%"><stop offset="0.0" stop-color="#D92F27" /><stop offset="0.4" stop-color="#F7574F" /><stop offset="0.5" stop-color="#F7574F" /><stop offset="0.6" stop-color="#F7574F" /><stop offset="1.0" stop-color="#D92F27" /></linearGradient><linearGradient id="grad_gvar" x1="0%" x2="0%" y1="0%" y2="100%"><stop offset="0.0" stop-color="#AAAAFF" /><stop offset="0.4" stop-color="#CCCCFF" /><stop offset="0.5" stop-color="#CCCCFF" /><stop offset="0.6" stop-color="#CCCCFF" /><stop offset="1.0" stop-color="#AAAAFF" /></linearGradient><linearGradient id="grad_stalk" x1="0%" x2="0%" y1="0%" y2="100%"><stop offset="0.0" stop-color="#647FA4" /><stop offset="0.4" stop-color="#647FA4" /><stop offset="0.5" stop-color="#647FA4" /><stop offset="0.6" stop-color="#647FA4" /><stop offset="1.0" stop-color="#647FA4" /></linearGradient><clipPath id="rounded_clip_p13"><rect fill="none" height="100" rx="30" ry="30" stroke="black" stroke-width="2" width="190.0" x="0.0" y="0" /></clipPath><clipPath id="rounded_clip_p12"><rect fill="none" height="100" rx="30" ry="30" stroke="black" stroke-width="2" width="190.0" x="0.0" y="0" /></clipPath><clipPath id="rounded_clip_p11.2"><rect fill="none" height="100" rx="30" ry="30" stroke="black" stroke-width="2" width="190.0" x="0.0" y="0" /></clipPath><clipPath id="rounded_clip_p11.1"><rect fill="none" height="100" rx="30" ry="30" stroke="black" stroke-width="2" width="190.0" x="0.0" y="0" /></clipPath><clipPath id="rounded_clip_q11.1"><rect fill="none" height="100" rx="30" ry="30" stroke="black" stroke-width="2" width="829.91189" x="190.0" y="0" /></clipPath><clipPath id="rounded_clip_q11.2"><rect fill="none" height="100" rx="30" ry="30" stroke="black" stroke-width="2" width="829.91189" x="190.0" y="0" /></clipPath><clipPath id="rounded_clip_q12"><rect fill="none" height="100" rx="30" ry="30" stroke="black" stroke-width="2" width="829.91189" x="190.0" y="0" /></clipPath><clipPath id="rounded_clip_q13.1"><rect fill="none" height="100" rx="30" ry="30" stroke="black" stroke-width="2" width="829.91189" x="190.0" y="0" /></clipPath><clipPath id="rounded_clip_q13.2"><rect fill="none" height="100" rx="30" ry="30" stroke="black" stroke-width="2" width="829.91189" x="190.0" y="0" /></clipPath><clipPath id="rounded_clip_q13.3"><rect fill="none" height="100" rx="30" ry="30" stroke="black" stroke-width="2" width="829.91189" x="190.0" y="0" /></clipPath><clipPath id="rounded_clip_q14"><rect fill="none" height="100" rx="30" ry="30" stroke="black" stroke-width="2" width="829.91189" x="190.0" y="0" /></clipPath><clipPath id="rounded_clip_q15.1"><rect fill="none" height="100" rx="30" ry="30" stroke="black" stroke-width="2" width="829.91189" x="190.0" y="0" /></clipPath><clipPath id="rounded_clip_q15.2"><rect fill="none" height="100" rx="30" ry="30" stroke="black" stroke-width="2" width="829.91189" x="190.0" y="0" /></clipPath><clipPath id="rounded_clip_q15.3"><rect fill="none" height="100" rx="30" ry="30" stroke="black" stroke-width="2" width="829.91189" x="190.0" y="0" /></clipPath><clipPath id="rounded_clip_q21.1"><rect fill="none" height="100" rx="30" ry="30" stroke="black" stroke-width="2" width="829.91189" x="190.0" y="0" /></clipPath><clipPath id="rounded_clip_q21.2"><rect fill="none" height="100" rx="30" ry="30" stroke="black" stroke-width="2" width="829.91189" x="190.0" y="0" /></clipPath><clipPath id="rounded_clip_q21.3"><rect fill="none" height="100" rx="30" ry="30" stroke="black" stroke-width="2" width="829.91189" x="190.0" y="0" /></clipPath><clipPath id="rounded_clip_q22.1"><rect fill="none" height="100" rx="30" ry="30" stroke="black" stroke-width="2" width="829.91189" x="190.0" y="0" /></clipPath><clipPath id="rounded_clip_q22.2"><rect fill="none" height="100" rx="30" ry="30" stroke="black" stroke-width="2" width="829.91189" x="190.0" y="0" /></clipPath><clipPath id="rounded_clip_q22.31"><rect fill="none" height="100" rx="30" ry="30" stroke="black" stroke-width="2" width="829.91189" x="190.0" y="0" /></clipPath><clipPath id="rounded_clip_q22.32"><rect fill="none" height="100" rx="30" ry="30" stroke="black" stroke-width="2" width="829.91189" x="190.0" y="0" /></clipPath><clipPath id="rounded_clip_q22.33"><rect fill="none" height="100" rx="30" ry="30" stroke="black" stroke-width="2" width="829.91189" x="190.0" y="0" /></clipPath><clipPath id="rounded_clip_q23"><rect fill="none" height="100" rx="30" ry="30" stroke="black" stroke-width="2" width="829.91189" x="190.0" y="0" /></clipPath><clipPath id="rounded_clip_q24.1"><rect fill="none" height="100" rx="30" ry="30" stroke="black" stroke-width="2" width="829.91189" x="190.0" y="0" /></clipPath><clipPath id="rounded_clip_q24.2"><rect fill="none" height="100" rx="30" ry="30" stroke="black" stroke-width="2" width="829.91189" x="190.0" y="0" /></clipPath><clipPath id="rounded_clip_q24.3"><rect fill="none" height="100" rx="30" ry="30" stroke="black" stroke-width="2" width="829.91189" x="190.0" y="0" /></clipPath><clipPath id="rounded_clip_q25.1"><rect fill="none" height="100" rx="30" ry="30" stroke="black" stroke-width="2" width="829.91189" x="190.0" y="0" /></clipPath><clipPath id="rounded_clip_q25.2"><rect fill="none" height="100" rx="30" ry="30" stroke="black" stroke-width="2" width="829.91189" x="190.0" y="0" /></clipPath><clipPath id="rounded_clip_q25.3"><rect fill="none" height="100" rx="30" ry="30" stroke="black" stroke-width="2" width="829.91189" x="190.0" y="0" /></clipPath><clipPath id="rounded_clip_q26.1"><rect fill="none" height="100" rx="30" ry="30" stroke="black" stroke-width="2" width="829.91189" x="190.0" y="0" /></clipPath><clipPath id="rounded_clip_q26.2"><rect fill="none" height="100" rx="30" ry="30" stroke="black" stroke-width="2" width="829.91189" x="190.0" y="0" /></clipPath><clipPath id="rounded_clip_q26.3"><rect fill="none" height="100" rx="30" ry="30" stroke="black" stroke-width="2" width="829.91189" x="190.0" y="0" /></clipPath></defs><rect clip-path="url(#rounded_clip_p13)" fill="url(#grad_gvar)" height="100" id="p13" width="42.0" x="0.0" y="0" /><rect clip-path="url(#rounded_clip_p12)" fill="url(#grad_stalk)" height="100" id="p12" width="55.0" x="42.0" y="0" /><rect clip-path="url(#rounded_clip_p11.2)" fill="url(#grad_gvar)" height="100" id="p11.2" width="78.0" x="97.0" y="0" /><rect clip-path="url(#rounded_clip_p11.1)" fill="url(#grad_acen)" height="100" id="p11.1" width="15.0" x="175.0" y="0" /><rect clip-path="url(#rounded_clip_q11.1)" fill="url(#grad_acen)" height="100" id="q11.1" width="15.0" x="190.0" y="0" /><rect clip-path="url(#rounded_clip_q11.2)" fill="url(#grad_gneg)" height="100" id="q11.2" width="50.0" x="205.0" y="0" /><rect clip-path="url(#rounded_clip_q12)" fill="url(#grad_gpos50)" height="100" id="q12" width="23.0" x="255.0" y="0" /><rect clip-path="url(#rounded_clip_q13.1)" fill="url(#grad_gneg)" height="100" id="q13.1" width="22.0" x="278.0" y="0" /><rect clip-path="url(#rounded_clip_q13.2)" fill="url(#grad_gpos50)" height="100" id="q13.2" width="9.0" x="300.0" y="0" /><rect clip-path="url(#rounded_clip_q13.3)" fill="url(#grad_gneg)" height="100" id="q13.3" width="25.0" x="309.0" y="0" /><rect clip-path="url(#rounded_clip_q14)" fill="url(#grad_gpos75)" height="100" id="q14" width="64.0" x="334.0" y="0" /><rect clip-path="url(#rounded_clip_q15.1)" fill="url(#grad_gneg)" height="100" id="q15.1" width="27.0" x="398.0" y="0" /><rect clip-path="url(#rounded_clip_q15.2)" fill="url(#grad_gpos25)" height="100" id="q15.2" width="8.0" x="425.0" y="0" /><rect clip-path="url(#rounded_clip_q15.3)" fill="url(#grad_gneg)" height="100" id="q15.3" width="12.0" x="433.0" y="0" /><rect clip-path="url(#rounded_clip_q21.1)" fill="url(#grad_gpos75)" height="100" id="q21.1" width="47.0" x="445.0" y="0" /><rect clip-path="url(#rounded_clip_q21.2)" fill="url(#grad_gneg)" height="100" id="q21.2" width="34.0" x="492.0" y="0" /><rect clip-path="url(#rounded_clip_q21.3)" fill="url(#grad_gpos75)" height="100" id="q21.3" width="62.0" x="526.0" y="0" /><rect clip-path="url(#rounded_clip_q22.1)" fill="url(#grad_gneg)" height="100" id="q22.1" width="2.0" x="588.0" y="0" /><rect clip-path="url(#rounded_clip_q22.2)" fill="url(#grad_gpos25)" height="100" id="q22.2" width="44.0" x="590.0" y="0" /><rect clip-path="url(#rounded_clip_q22.31)" fill="url(#grad_gneg)" height="100" id="q22.31" width="35.0" x="634.0" y="0" /><rect clip-path="url(#rounded_clip_q22.32)" fill="url(#grad_gpos25)" height="100" id="q22.32" width="1.0" x="669.0" y="0" /><rect clip-path="url(#rounded_clip_q22.33)" fill="url(#grad_gneg)" height="100" id="q22.33" width="2.0" x="670.0" y="0" /><rect clip-path="url(#rounded_clip_q23)" fill="url(#grad_gpos25)" height="100" id="q23" width="52.0" x="672.0" y="0" /><rect clip-path="url(#rounded_clip_q24.1)" fill="url(#grad_gneg)" height="100" id="q24.1" width="25.0" x="724.0" y="0" /><rect clip-path="url(#rounded_clip_q24.2)" fill="url(#grad_gpos25)" height="100" id="q24.2" width="14.0" x="749.0" y="0" /><rect clip-path="url(#rounded_clip_q24.3)" fill="url(#grad_gneg)" height="100" id="q24.3" width="17.0" x="763.0" y="0" /><rect clip-path="url(#rounded_clip_q25.1)" fill="url(#grad_gpos50)" height="100" id="q25.1" width="34.0" x="780.0" y="0" /><rect clip-path="url(#rounded_clip_q25.2)" fill="url(#grad_gneg)" height="100" id="q25.2" width="33.0" x="814.0" y="0" /><rect clip-path="url(#rounded_clip_q25.3)" fill="url(#grad_gpos50)" height="100" id="q25.3" width="38.0" x="847.0" y="0" /><rect clip-path="url(#rounded_clip_q26.1)" fill="url(#grad_gneg)" height="100" id="q26.1" width="53.0" x="885.0" y="0" /><rect clip-path="url(#rounded_clip_q26.2)" fill="url(#grad_gpos50)" height="100" id="q26.2" width="42.0" x="938.0" y="0" /><rect clip-path="url(#rounded_clip_q26.3)" fill="url(#grad_gneg)" height="100" id="q26.3" width="39.91189" x="980.0" y="0" /><rect fill="none" height="100" rx="30" ry="30" stroke="black" stroke-width="2" width="190.0" x="0.0" y="0" /><rect fill="none" height="100" rx="30" ry="30" stroke="black" stroke-width="2" width="829.91189" x="190.0" y="0" /></svg>