<?xml version="1.0" encoding="utf-8" ?>
<svg baseProfile="full" height="100" version="1.1" width="1337.97422" xmlns="http://www.w3.org/2000/svg" xmlns:ev="http://www.w3.org/2001/xml-events" xmlns:xlink="http://www.w3.org/1999/xlink"><defs><linearGradient id="grad_gpos25" x1="0%" x2="0%" y1="0%" y2="100%"><stop offset="0.0" stop-color="#C8C8C8" /><stop offset="0.4" stop-color="#DCDCDC" /><stop offset="0.5" stop-color="#DCDCDC" /><stop offset="0.6" stop-color="#DCDCDC" /><stop offset="1.0" stop-color="#C8C8C8" /></linearGradient><linearGradient id="grad_gpos50" x1="0%" x2="0%" y1="0%" y2="100%"><stop offset="0.0" stop-color="#C8C8C8" /><stop offset="0.4" stop-color="#DCDCDC" /><stop offset="0.5" stop-color="#DCDCDC" /><stop offset="0.6" stop-color="#DCDCDC" /><stop offset="1.0" stop-color="#C8C8C8" /></linearGradient><linearGradient id="grad_gpos75" x1="0%" x2="0%" y1="0%" y2="100%"><stop offset="0.0" stop-color="#828282" /><stop offset="0.4" stop-color="#C6C6C6" /><stop offset="0.5" stop-color="#C6C6C6" /><stop offset="0.6" stop-color="#C6C6C6" /><stop offset="1.0" stop-color="#828282" /></linearGradient><linearGradient id="grad_gpos100" x1="0%" x2="0%" y1="0%" y2="100%"><stop offset="0.0" stop-color="#000000" /><stop offset="0.4" stop-color="#444444" /><stop offset="0.5" stop-color="#444444" /><stop offset="0.6" stop-color="#444444" /><stop offset="1.0" stop-color="#000000" /></linearGradient><linearGradient id="grad_gneg" x1="0%" x2="0%" y1="0%" y2="100%"><stop offset="0.0" stop-color="#FFFFFF" /><stop offset="0.4" stop-color="#FFFFFF" /><stop offset="0.5" stop-color="#FFFFFF" /><stop offset="0.6" stop-color="#FFFFFF" /><stop offset="1.0" stop-color="#FFFFFF" /></linearGradient><linearGradient id="grad_acen" x1="0%" x2="0%" y1="0%" y2="100%"><stop offset="0.0" stop-color="#D92F27" /><stop offset="0.4" stop-color="#F7574F" /><stop offset="0.5" stop-color="#F7574F" /><stop offset="0.6" stop-color="#F7574F" /><stop offset="1.0" stop-color="#D92F27" /></linearGradient><linearGradient id="grad_gvar" x1="0%" x2="0%" y1="0%" y2="100%"><stop offset="0.0" stop-color="#AAAAFF" /><stop offset="0.4" stop-color="#CCCCFF" /><stop offset="0.5" stop-color="#CCCCFF" /><stop offset="0.6" stop-color="#CCCCFF" /><stop offset="1.0" stop-color="#AAAAFF" /></linearGradient><linearGradient id="grad_stalk" x1="0%" x2="0%" y1="0%" y2="100%"><stop offset="0.0" stop-color="#647FA4" /><stop offset="0.4" stop-color="#647FA4" /><stop offset="0.5" stop-color="#647FA4" /><stop offset="0.6" stop-color="#647FA4" /><stop offset="1.0" stop-color="#647FA4" /></linearGradient><clipPath id="rounded_clip_p15.3"><rect fill="none" height="100" rx="30" ry="30" stroke="black" stroke-width="2" width="398.0" x="0.0" y="0" /></clipPath><clipPath id="rounded_clip_p15.2"><rect fill="none" height="100" rx="30" ry="30" stroke="black" stroke-width="2" width="398.0" x="0.0" y="0" /></clipPath><clipPath id="rounded_clip_p15.1"><rect fill="none" height="100" rx="30" ry="30" stroke="black" stroke-width="2" width="398.0" x="0.0" y="0" /></clipPath><clipPath id="rounded_clip_p14"><rect fill="none" height="100" rx="30" ry="30" stroke="black" stroke-width="2" width="398.0" x="0.0" y="0" /></clipPath><clipPath id="rounded_clip_p13"><rect fill="none" height="100" rx="30" ry="30" stroke="black" stroke-width="2" width="398.0" x="0.0" y="0" /></clipPath><clipPath id="rounded_clip_p12.33"><rect fill="none" height="100" rx="30" ry="30" stroke="black" stroke-width="2" width="398.0" x="0.0" y="0" /></clipPath><clipPath id="rounded_clip_p12.32"><rect fill="none" height="100" rx="30" ry="30" stroke="black" stroke-width="2" width="398.0" x="0.0" y="0" /></clipPath><clipPath id="rounded_clip_p12.31"><rect fill="none" height="100" rx="30" ry="30" stroke="black" stroke-width="2" width="398.0" x="0.0" y="0" /></clipPath><clipPath id="rounded_clip_p12.2"><rect fill="none" height="100" rx="30" ry="30" stroke="black" stroke-width="2" width="398.0" x="0.0" y="0" /></clipPath><clipPath id="rounded_clip_p12.1"><rect fill="none" height="100" rx="30" ry="30" stroke="black" stroke-width="2" width="398.0" x="0.0" y="0" /></clipPath><clipPath id="rounded_clip_p11.23"><rect fill="none" height="100" rx="30" ry="30" stroke="black" stroke-width="2" width="398.0" x="0.0" y="0" /></clipPath><clipPath id="rounded_clip_p11.22"><rect fill="none" height="100" rx="30" ry="30" stroke="black" stroke-width="2" width="398.0" x="0.0" y="0" /></clipPath><clipPath id="rounded_clip_p11.21"><rect fill="none" height="100" rx="30" ry="30" stroke="black" stroke-width="2" width="398.0" x="0.0" y="0" /></clipPath><clipPath id="rounded_clip_p11.1"><rect fill="none" height="100" rx="30" ry="30" stroke="black" stroke-width="2" width="398.0" x="0.0" y="0" /></clipPath><clipPath id="rounded_clip_q11.1"><rect fill="none" height="100" rx="30" ry="30" stroke="black" stroke-width="2" width="939.97422" x="398.0" y="0" /></clipPath><clipPath id="rounded_clip_q11.21"><rect fill="none" height="100" rx="30" ry="30" stroke="black" stroke-width="2" width="939.97422" x="398.0" y="0" /></clipPath><clipPath id="rounded_clip_q11.22"><rect fill="none" height="100" rx="30" ry="30" stroke="black" stroke-width="2" width="939.97422" x="398.0" y="0" /></clipPath><clipPath id="rounded_clip_q11.23"><rect fill="none" height="100" rx="30" ry="30" stroke="black" stroke-width="2" width="939.97422" x="398.0" y="0" /></clipPath><clipPath id="rounded_clip_q21.1"><rect fill="none" height="100" rx="30" ry="30" stroke="black" stroke-width="2" width="939.97422" x="398.0" y="0" /></clipPath><clipPath id="rounded_clip_q21.2"><rect fill="none" height="100" rx="30" ry="30" stroke="black" stroke-width="2" width="939.97422" x="398.0" y="0" /></clipPath><clipPath id="rounded_clip_q21.3"><rect fill="none" height="100" rx="30" ry="30" stroke="black" stroke-width="2" width="939.97422" x="398.0" y="0" /></clipPath><clipPath id="rounded_clip_q22.1"><rect fill="none" height="100" rx="30" ry="30" stroke="black" stroke-width="2" width="939.97422" x="398.0" y="0" /></clipPath><clipPath id="rounded_clip_q22.2"><rect fill="none" height="100" rx="30" ry="30" stroke="black" stroke-width="2" width="939.97422" x="398.0" y="0" /></clipPath><clipPath id="rounded_clip_q22.3"><rect fill="none" height="100" rx="30" ry="30" stroke="black" stroke-width="2" width="939.97422" x="398.0" y="0" /></clipPath><clipPath id="rounded_clip_q23.1"><rect fill="none" height="100" rx="30" ry="30" stroke="black" stroke-width="2" width="939.97422" x="398.0" y="0" /></clipPath><clipPath id="rounded_clip_q23.2"><rect fill="none" height="100" rx="30" ry="30" stroke="black" stroke-width="2" width="939.97422" x="398.0" y="0" /></clipPath><clipPath id="rounded_clip_q23.31"><rect fill="none" height="100" rx="30" ry="30" stroke="black" stroke-width="2" width="939.97422" x="398.0" y="0" /></clipPath><clipPath id="rounded_clip_q23.32"><rect fill="none" height="100" rx="30" ry="30" stroke="black" stroke-width="2" width="939.97422" x="398.0" y="0" /></clipPath><clipPath id="rounded_clip_q23.33"><rect fill="none" height="100" rx="30" ry="30" stroke="black" stroke-width="2" width="939.97422" x="398.0" y="0" /></clipPath><clipPath id="rounded_clip_q24.1"><rect fill="none" height="100" rx="30" ry="30" stroke="black" stroke-width="2" width="939.97422" x="398.0" y="0" /></clipPath><clipPath id="rounded_clip_q24.2"><rect fill="none" height="100" rx="30" ry="30" stroke="black" stroke-width="2" width="939.97422" x="398.0" y="0" /></clipPath><clipPath id="rounded_clip_q24.31"><rect fill="none" height="100" rx="30" ry="30" stroke="black" stroke-width="2" width="939.97422" x="398.0" y="0" /></clipPath><clipPath id="rounded_clip_q24.32"><rect fill="none" height="100" rx="30" ry="30" stroke="black" stroke-width="2" width="939.97422" x="398.0" y="0" /></clipPath><clipPath id="rounded_clip_q24.33"><rect fill="none" height="100" rx="30" ry="30" stroke="black" stroke-width="2" width="939.97422" x="398.0" y="0" /></clipPath><clipPath id="rounded_clip_q25.1"><rect fill="none" height="100" rx="30" ry="30" stroke="black" stroke-width="2" width="939.97422" x="398.0" y="0" /></clipPath><clipPath id="rounded_clip_q25.2"><rect fill="none" height="100" rx="30" ry="30" stroke="black" stroke-width="2" width="939.97422" x="398.0" y="0" /></clipPath><clipPath id="rounded_clip_q25.3"><rect fill="none" height="100" rx="30" ry="30" stroke="black" stroke-width="2" width="939.97422" x="398.0" y="0" /></clipPath><clipPath id="rounded_clip_q26.11"><rect fill="none" height="100" rx="30" ry="30" stroke="black" stroke-width="2" width="939.97422" x="398.0" y="0" /></clipPath><clipPath id="rounded_clip_q26.12"><rect fill="none" height="100" rx="30" ry="30" stroke="black" stroke-width="2" width="939.97422" x="398.0" y="0" /></clipPath><clipPath id="rounded_clip_q26.13"><rect fill="none" height="100" rx="30" ry="30" stroke="black" stroke-width="2" width="939.97422" x="398.0" y="0" /></clipPath><clipPath id="rounded_clip_q26.2"><rect fill="none" height="100" rx="30" ry="30" stroke="black" stroke-width="2" width="939.97422" x="398.0" y="0" /></clipPath><clipPath id="rounded_clip_q26.3"><rect fill="none" height="100" rx="30" ry="30" stroke="black" stroke-width="2" width="939.97422" x="398.0" y="0" /></clipPath></defs><rect clip-path="url(#rounded_clip_p15.3)" fill="url(#grad_gneg)" height="100" id="p15.3" width="30.0" x="0.0" y="0" /><rect clip-path="url(#rounded_clip_p15.2)" fill="url(#grad_gpos25)" height="100" id="p15.2" width="8.0" x="30.0" y="0" /><rect clip-path="url(#rounded_clip_p15.1)" fill="url(#grad_gneg)" height="100" id="p15.1" width="28.0" x="38.0" y="0" /><rect clip-path="url(#rounded_clip_p14)" fill="url(#grad_gpos75)" height="100" id="p14" width="56.0" x="66.0" y="0" /><rect clip-path="url(#rounded_clip_p13)" fill="url(#grad_gneg)" height="100" id="p13" width="51.0" x="122.0" y="0" /><rect clip-path="url(#rounded_clip_p12.33)" fill="url(#grad_gpos75)" height="100" id="p12.33" width="10.0" x="173.0" y="0" /><rect clip-path="url(#rounded_clip_p12.32)" fill="url(#grad_gneg)" height="100" id="p12.32" width="1.0" x="183.0" y="0" /><rect clip-path="url(#rounded_clip_p12.31)" fill="url(#grad_gpos75)" height="100" id="p12.31" width="39.0" x="184.0" y="0" /><rect clip-path="url(#rounded_clip_p12.2)" fill="url(#grad_gneg)" height="100" id="p12.2" width="20.0" x="223.0" y="0" /><rect clip-path="url(#rounded_clip_p12.1)" fill="url(#grad_gpos50)" height="100" id="p12.1" width="50.0" x="243.0" y="0" /><rect clip-path="url(#rounded_clip_p11.23)" fill="url(#grad_gneg)" height="100" id="p11.23" width="18.0" x="293.0" y="0" /><rect clip-path="url(#rounded_clip_p11.22)" fill="url(#grad_gpos25)" height="100" id="p11.22" width="31.0" x="311.0" y="0" /><rect clip-path="url(#rounded_clip_p11.21)" fill="url(#grad_gneg)" height="100" id="p11.21" width="38.0" x="342.0" y="0" /><rect clip-path="url(#rounded_clip_p11.1)" fill="url(#grad_acen)" height="100" id="p11.1" width="18.0" x="380.0" y="0" /><rect clip-path="url(#rounded_clip_q11.1)" fill="url(#grad_acen)" height="100" id="q11.1" width="18.0" x="398.0" y="0" /><rect clip-path="url(#rounded_clip_q11.21)" fill="url(#grad_gneg)" height="100" id="q11.21" width="39.0" x="416.0" y="0" /><rect clip-path="url(#rounded_clip_q11.22)" fill="url(#grad_gpos25)" height="100" id="q11.22" width="31.0" x="455.0" y="0" /><rect clip-path="url(#rounded_clip_q11.23)" fill="url(#grad_gneg)" height="100" id="q11.23" width="25.0" x="486.0" y="0" /><rect clip-path="url(#rounded_clip_q21.1)" fill="url(#grad_gpos100)" height="100" id="q21.1" width="83.0" x="511.0" y="0" /><rect clip-path="url(#rounded_clip_q21.2)" fill="url(#grad_gneg)" height="100" id="q21.2" width="34.0" x="594.0" y="0" /><rect clip-path="url(#rounded_clip_q21.3)" fill="url(#grad_gpos100)" height="100" id="q21.3" width="60.0" x="628.0" y="0" /><rect clip-path="url(#rounded_clip_q22.1)" fill="url(#grad_gneg)" height="100" id="q22.1" width="43.0" x="688.0" y="0" /><rect clip-path="url(#rounded_clip_q22.2)" fill="url(#grad_gpos50)" height="100" id="q22.2" width="28.0" x="731.0" y="0" /><rect clip-path="url(#rounded_clip_q22.3)" fill="url(#grad_gneg)" height="100" id="q22.3" width="44.0" x="759.0" y="0" /><rect clip-path="url(#rounded_clip_q23.1)" fill="url(#grad_gpos100)" height="100" id="q23.1" width="58.0" x="803.0" y="0" /><rect clip-path="url(#rounded_clip_q23.2)" fill="url(#grad_gneg)" height="100" id="q23.2" width="16.0" x="861.0" y="0" /><rect clip-path="url(#rounded_clip_q23.31)" fill="url(#grad_gpos75)" height="100" id="q23.31" width="34.0" x="877.0" y="0" /><rect clip-path="url(#rounded_clip_q23.32)" fill="url(#grad_gneg)" height="100" id="q23.32" width="12.0" x="911.0" y="0" /><rect clip-path="url(#rounded_clip_q23.33)" fill="url(#grad_gpos50)" height="100" id="q23.33" width="30.0" x="923.0" y="0" /><rect clip-path="url(#rounded_clip_q24.1)" fill="url(#grad_gneg)" height="100" id="q24.1" width="22.0" x="953.0" y="0" /><rect clip-path="url(#rounded_clip_q24.2)" fill="url(#grad_gpos50)" height="100" id="q24.2" width="26.0" x="975.0" y="0" /><rect clip-path="url(#rounded_clip_q24.31)" fill="url(#grad_gneg)" height="100" id="q24.31" width="11.0" x="1001.0" y="0" /><rect clip-path="url(#rounded_clip_q24.32)" fill="url(#grad_gpos25)" height="100" id="q24.32" width="19.0" x="1012.0" y="0" /><rect clip-path="url(#rounded_clip_q24.33)" fill="url(#grad_gneg)" height="100" id="q24.33" width="9.0" x="1031.0" y="0" /><rect clip-path="url(#rounded_clip_q25.1)" fill="url(#grad_gpos100)" height="100" id="q25.1" width="61.0" x="1040.0" y="0" /><rect clip-path="url(#rounded_clip_q25.2)" fill="url(#grad_gneg)" height="100" id="q25.2" width="30.0" x="1101.0" y="0" /><rect clip-path="url(#rounded_clip_q25.3)" fill="url(#grad_gpos75)" height="100" id="q25.3" width="42.0" x="1131.0" y="0" /><rect clip-path="url(#rounded_clip_q26.11)" fill="url(#grad_gneg)" height="100" id="q26.11" width="26.0" x="1173.0" y="0" /><rect clip-path="url(#rounded_clip_q26.12)" fill="url(#grad_gpos50)" height="100" id="q26.12" width="15.0" x="1199.0" y="0" /><rect clip-path="url(#rounded_clip_q26.13)" fill="url(#grad_gneg)" height="100" id="q26.13" width="43.0" x="1214.0" y="0" /><rect clip-path="url(#rounded_clip_q26.2)" fill="url(#grad_gpos50)" height="100" id="q26.2" width="31.0" x="1257.0" y="0" /><rect clip-path="url(#rounded_clip_q26.3)" fill="url(#grad_gneg)" height="100" id="q26.3" width="49.97422" x="1288.0" y="0" /><rect fill="none" height="100" rx="30" ry="30" stroke="black" stroke-width="2" width="398.0" x="0.0" y="0" /><rect fill="none" height="100" rx="30" ry="30" stroke="black" stroke-width="2" width="939.97422" x="398.0" y="0" /></svg>