<?xml version="1.0" encoding="utf-8" ?>
<svg baseProfile="full" height="100" version="1.1" width="2489.56422" xmlns="http://www.w3.org/2000/svg" xmlns:ev="http://www.w3.org/2001/xml-events" xmlns:xlink="http://www.w3.org/1999/xlink"><defs><linearGradient id="grad_gpos25" x1="0%" x2="0%" y1="0%" y2="100%"><stop offset="0.0" stop-color="#C8C8C8" /><stop offset="0.4" stop-color="#DCDCDC" /><stop offset="0.5" stop-color="#DCDCDC" /><stop offset="0.6" stop-color="#DCDCDC" /><stop offset="1.0" stop-color="#C8C8C8" /></linearGradient><linearGradient id="grad_gpos50" x1="0%" x2="0%" y1="0%" y2="100%"><stop offset="0.0" stop-color="#C8C8C8" /><stop offset="0.4" stop-color="#DCDCDC" /><stop offset="0.5" stop-color="#DCDCDC" /><stop offset="0.6" stop-color="#DCDCDC" /><stop offset="1.0" stop-color="#C8C8C8" /></linearGradient><linearGradient id="grad_gpos75" x1="0%" x2="0%" y1="0%" y2="100%"><stop offset="0.0" stop-color="#828282" /><stop offset="0.4" stop-color="#C6C6C6" /><stop offset="0.5" stop-color="#C6C6C6" /><stop offset="0.6" stop-color="#C6C6C6" /><stop offset="1.0" stop-color="#828282" /></linearGradient><linearGradient id="grad_gpos100" x1="0%" x2="0%" y1="0%" y2="100%"><stop offset="0.0" stop-color="#000000" /><stop offset="0.4" stop-color="#444444" /><stop offset="0.5" stop-color="#444444" /><stop offset="0.6" stop-color="#444444" /><stop offset="1.0" stop-color="#000000" /></linearGradient><linearGradient id="grad_gneg" x1="0%" x2="0%" y1="0%" y2="100%"><stop offset="0.0" stop-color="#FFFFFF" /><stop offset="0.4" stop-color="#FFFFFF" /><stop offset="0.5" stop-color="#FFFFFF" /><stop offset="0.6" stop-color="#FFFFFF" /><stop offset="1.0" stop-color="#FFFFFF" /></linearGradient><linearGradient id="grad_acen" x1="0%" x2="0%" y1="0%" y2="100%"><stop offset="0.0" stop-color="#D92F27" /><stop offset="0.4" stop-color="#F7574F" /><stop offset="0.5" stop-color="#F7574F" /><stop offset="0.6" stop-color="#F7574F" /><stop offset="1.0" stop-color="#D92F27" /></linearGradient><linearGradient id="grad_gvar" x1="0%" x2="0%" y1="0%" y2="100%"><stop offset="0.0" stop-color="#AAAAFF" /><stop offset="0.4" stop-color="#CCCCFF" /><stop offset="0.5" stop-color="#CCCCFF" /><stop offset="0.6" stop-color="#CCCCFF" /><stop offset="1.0" stop-color="#AAAAFF" /></linearGradient><linearGradient id="grad_stalk" x1="0%" x2="0%" y1="0%" y2="100%"><stop offset="0.0" stop-color="#647FA4" /><stop offset="0.4" stop-color="#647FA4" /><stop offset="0.5" stop-color="#647FA4" /><stop offset="0.6" stop-color="#647FA4" /><stop offset="1.0" stop-color="#647FA4" /></linearGradient><clipPath id="rounded_clip_p36.33"><rect fill="none" height="100" rx="30" ry="30" stroke="black" stroke-width="2" width="1234.0" x="0.0" y="0" /></clipPath><clipPath id="rounded_clip_p36.32"><rect fill="none" height="100" rx="30" ry="30" stroke="black" stroke-width="2" width="1234.0" x="0.0" y="0" /></clipPath><clipPath id="rounded_clip_p36.31"><rect fill="none" height="100" rx="30" ry="30" stroke="black" stroke-width="2" width="1234.0" x="0.0" y="0" /></clipPath><clipPath id="rounded_clip_p36.23"><rect fill="none" height="100" rx="30" ry="30" stroke="black" stroke-width="2" width="1234.0" x="0.0" y="0" /></clipPath><clipPath id="rounded_clip_p36.22"><rect fill="none" height="100" rx="30" ry="30" stroke="black" stroke-width="2" width="1234.0" x="0.0" y="0" /></clipPath><clipPath id="rounded_clip_p36.21"><rect fill="none" height="100" rx="30" ry="30" stroke="black" stroke-width="2" width="1234.0" x="0.0" y="0" /></clipPath><clipPath id="rounded_clip_p36.13"><rect fill="none" height="100" rx="30" ry="30" stroke="black" stroke-width="2" width="1234.0" x="0.0" y="0" /></clipPath><clipPath id="rounded_clip_p36.12"><rect fill="none" height="100" rx="30" ry="30" stroke="black" stroke-width="2" width="1234.0" x="0.0" y="0" /></clipPath><clipPath id="rounded_clip_p36.11"><rect fill="none" height="100" rx="30" ry="30" stroke="black" stroke-width="2" width="1234.0" x="0.0" y="0" /></clipPath><clipPath id="rounded_clip_p35.3"><rect fill="none" height="100" rx="30" ry="30" stroke="black" stroke-width="2" width="1234.0" x="0.0" y="0" /></clipPath><clipPath id="rounded_clip_p35.2"><rect fill="none" height="100" rx="30" ry="30" stroke="black" stroke-width="2" width="1234.0" x="0.0" y="0" /></clipPath><clipPath id="rounded_clip_p35.1"><rect fill="none" height="100" rx="30" ry="30" stroke="black" stroke-width="2" width="1234.0" x="0.0" y="0" /></clipPath><clipPath id="rounded_clip_p34.3"><rect fill="none" height="100" rx="30" ry="30" stroke="black" stroke-width="2" width="1234.0" x="0.0" y="0" /></clipPath><clipPath id="rounded_clip_p34.2"><rect fill="none" height="100" rx="30" ry="30" stroke="black" stroke-width="2" width="1234.0" x="0.0" y="0" /></clipPath><clipPath id="rounded_clip_p34.1"><rect fill="none" height="100" rx="30" ry="30" stroke="black" stroke-width="2" width="1234.0" x="0.0" y="0" /></clipPath><clipPath id="rounded_clip_p33"><rect fill="none" height="100" rx="30" ry="30" stroke="black" stroke-width="2" width="1234.0" x="0.0" y="0" /></clipPath><clipPath id="rounded_clip_p32.3"><rect fill="none" height="100" rx="30" ry="30" stroke="black" stroke-width="2" width="1234.0" x="0.0" y="0" /></clipPath><clipPath id="rounded_clip_p32.2"><rect fill="none" height="100" rx="30" ry="30" stroke="black" stroke-width="2" width="1234.0" x="0.0" y="0" /></clipPath><clipPath id="rounded_clip_p32.1"><rect fill="none" height="100" rx="30" ry="30" stroke="black" stroke-width="2" width="1234.0" x="0.0" y="0" /></clipPath><clipPath id="rounded_clip_p31.3"><rect fill="none" height="100" rx="30" ry="30" stroke="black" stroke-width="2" width="1234.0" x="0.0" y="0" /></clipPath><clipPath id="rounded_clip_p31.2"><rect fill="none" height="100" rx="30" ry="30" stroke="black" stroke-width="2" width="1234.0" x="0.0" y="0" /></clipPath><clipPath id="rounded_clip_p31.1"><rect fill="none" height="100" rx="30" ry="30" stroke="black" stroke-width="2" width="1234.0" x="0.0" y="0" /></clipPath><clipPath id="rounded_clip_p22.3"><rect fill="none" height="100" rx="30" ry="30" stroke="black" stroke-width="2" width="1234.0" x="0.0" y="0" /></clipPath><clipPath id="rounded_clip_p22.2"><rect fill="none" height="100" rx="30" ry="30" stroke="black" stroke-width="2" width="1234.0" x="0.0" y="0" /></clipPath><clipPath id="rounded_clip_p22.1"><rect fill="none" height="100" rx="30" ry="30" stroke="black" stroke-width="2" width="1234.0" x="0.0" y="0" /></clipPath><clipPath id="rounded_clip_p21.3"><rect fill="none" height="100" rx="30" ry="30" stroke="black" stroke-width="2" width="1234.0" x="0.0" y="0" /></clipPath><clipPath id="rounded_clip_p21.2"><rect fill="none" height="100" rx="30" ry="30" stroke="black" stroke-width="2" width="1234.0" x="0.0" y="0" /></clipPath><clipPath id="rounded_clip_p21.1"><rect fill="none" height="100" rx="30" ry="30" stroke="black" stroke-width="2" width="1234.0" x="0.0" y="0" /></clipPath><clipPath id="rounded_clip_p13.3"><rect fill="none" height="100" rx="30" ry="30" stroke="black" stroke-width="2" width="1234.0" x="0.0" y="0" /></clipPath><clipPath id="rounded_clip_p13.2"><rect fill="none" height="100" rx="30" ry="30" stroke="black" stroke-width="2" width="1234.0" x="0.0" y="0" /></clipPath><clipPath id="rounded_clip_p13.1"><rect fill="none" height="100" rx="30" ry="30" stroke="black" stroke-width="2" width="1234.0" x="0.0" y="0" /></clipPath><clipPath id="rounded_clip_p12"><rect fill="none" height="100" rx="30" ry="30" stroke="black" stroke-width="2" width="1234.0" x="0.0" y="0" /></clipPath><clipPath id="rounded_clip_p11.2"><rect fill="none" height="100" rx="30" ry="30" stroke="black" stroke-width="2" width="1234.0" x="0.0" y="0" /></clipPath><clipPath id="rounded_clip_p11.1"><rect fill="none" height="100" rx="30" ry="30" stroke="black" stroke-width="2" width="1234.0" x="0.0" y="0" /></clipPath><clipPath id="rounded_clip_q11"><rect fill="none" height="100" rx="30" ry="30" stroke="black" stroke-width="2" width="1255.56422" x="1234.0" y="0" /></clipPath><clipPath id="rounded_clip_q12"><rect fill="none" height="100" rx="30" ry="30" stroke="black" stroke-width="2" width="1255.56422" x="1234.0" y="0" /></clipPath><clipPath id="rounded_clip_q21.1"><rect fill="none" height="100" rx="30" ry="30" stroke="black" stroke-width="2" width="1255.56422" x="1234.0" y="0" /></clipPath><clipPath id="rounded_clip_q21.2"><rect fill="none" height="100" rx="30" ry="30" stroke="black" stroke-width="2" width="1255.56422" x="1234.0" y="0" /></clipPath><clipPath id="rounded_clip_q21.3"><rect fill="none" height="100" rx="30" ry="30" stroke="black" stroke-width="2" width="1255.56422" x="1234.0" y="0" /></clipPath><clipPath id="rounded_clip_q22"><rect fill="none" height="100" rx="30" ry="30" stroke="black" stroke-width="2" width="1255.56422" x="1234.0" y="0" /></clipPath><clipPath id="rounded_clip_q23.1"><rect fill="none" height="100" rx="30" ry="30" stroke="black" stroke-width="2" width="1255.56422" x="1234.0" y="0" /></clipPath><clipPath id="rounded_clip_q23.2"><rect fill="none" height="100" rx="30" ry="30" stroke="black" stroke-width="2" width="1255.56422" x="1234.0" y="0" /></clipPath><clipPath id="rounded_clip_q23.3"><rect fill="none" height="100" rx="30" ry="30" stroke="black" stroke-width="2" width="1255.56422" x="1234.0" y="0" /></clipPath><clipPath id="rounded_clip_q24.1"><rect fill="none" height="100" rx="30" ry="30" stroke="black" stroke-width="2" width="1255.56422" x="1234.0" y="0" /></clipPath><clipPath id="rounded_clip_q24.2"><rect fill="none" height="100" rx="30" ry="30" stroke="black" stroke-width="2" width="1255.56422" x="1234.0" y="0" /></clipPath><clipPath id="rounded_clip_q24.3"><rect fill="none" height="100" rx="30" ry="30" stroke="black" stroke-width="2" width="1255.56422" x="1234.0" y="0" /></clipPath><clipPath id="rounded_clip_q25.1"><rect fill="none" height="100" rx="30" ry="30" stroke="black" stroke-width="2" width="1255.56422" x="1234.0" y="0" /></clipPath><clipPath id="rounded_clip_q25.2"><rect fill="none" height="100" rx="30" ry="30" stroke="black" stroke-width="2" width="1255.56422" x="1234.0" y="0" /></clipPath><clipPath id="rounded_clip_q25.3"><rect fill="none" height="100" rx="30" ry="30" stroke="black" stroke-width="2" width="1255.56422" x="1234.0" y="0" /></clipPath><clipPath id="rounded_clip_q31.1"><rect fill="none" height="100" rx="30" ry="30" stroke="black" stroke-width="2" width="1255.56422" x="1234.0" y="0" /></clipPath><clipPath id="rounded_clip_q31.2"><rect fill="none" height="100" rx="30" ry="30" stroke="black" stroke-width="2" width="1255.56422" x="1234.0" y="0" /></clipPath><clipPath id="rounded_clip_q31.3"><rect fill="none" height="100" rx="30" ry="30" stroke="black" stroke-width="2" width="1255.56422" x="1234.0" y="0" /></clipPath><clipPath id="rounded_clip_q32.1"><rect fill="none" height="100" rx="30" ry="30" stroke="black" stroke-width="2" width="1255.56422" x="1234.0" y="0" /></clipPath><clipPath id="rounded_clip_q32.2"><rect fill="none" height="100" rx="30" ry="30" stroke="black" stroke-width="2" width="1255.56422" x="1234.0" y="0" /></clipPath><clipPath id="rounded_clip_q32.3"><rect fill="none" height="100" rx="30" ry="30" stroke="black" stroke-width="2" width="1255.56422" x="1234.0" y="0" /></clipPath><clipPath id="rounded_clip_q41"><rect fill="none" height="100" rx="30" ry="30" stroke="black" stroke-width="2" width="1255.56422" x="1234.0" y="0" /></clipPath><clipPath id="rounded_clip_q42.11"><rect fill="none" height="100" rx="30" ry="30" stroke="black" stroke-width="2" width="1255.56422" x="1234.0" y="0" /></clipPath><clipPath id="rounded_clip_q42.12"><rect fill="none" height="100" rx="30" ry="30" stroke="black" stroke-width="2" width="1255.56422" x="1234.0" y="0" /></clipPath><clipPath id="rounded_clip_q42.13"><rect fill="none" height="100" rx="30" ry="30" stroke="black" stroke-width="2" width="1255.56422" x="1234.0" y="0" /></clipPath><clipPath id="rounded_clip_q42.2"><rect fill="none" height="100" rx="30" ry="30" stroke="black" stroke-width="2" width="1255.56422" x="1234.0" y="0" /></clipPath><clipPath id="rounded_clip_q42.3"><rect fill="none" height="100" rx="30" ry="30" stroke="black" stroke-width="2" width="1255.56422" x="1234.0" y="0" /></clipPath><clipPath id="rounded_clip_q43"><rect fill="none" height="100" rx="30" ry="30" stroke="black" stroke-width="2" width="1255.56422" x="1234.0" y="0" /></clipPath><clipPath id="rounded_clip_q44"><rect fill="none" height="100" rx="30" ry="30" stroke="black" stroke-width="2" width="1255.56422" x="1234.0" y="0" /></clipPath></defs><rect clip-path="url(#rounded_clip_p36.33)" fill="url(#grad_gneg)" height="100" id="p36.33" width="23.0" x="0.0" y="0" /><rect clip-path="url(#rounded_clip_p36.32)" fill="url(#grad_gpos25)" height="100" id="p36.32" width="30.0" x="23.0" y="0" /><rect clip-path="url(#rounded_clip_p36.31)" fill="url(#grad_gneg)" height="100" id="p36.31" width="18.0" x="53.0" y="0" /><rect clip-path="url(#rounded_clip_p36.23)" fill="url(#grad_gpos25)" height="100" id="p36.23" width="20.0" x="71.0" y="0" /><rect clip-path="url(#rounded_clip_p36.22)" fill="url(#grad_gneg)" height="100" id="p36.22" width="34.0" x="91.0" y="0" /><rect clip-path="url(#rounded_clip_p36.21)" fill="url(#grad_gpos50)" height="100" id="p36.21" width="34.0" x="125.0" y="0" /><rect clip-path="url(#rounded_clip_p36.13)" fill="url(#grad_gneg)" height="100" id="p36.13" width="42.0" x="159.0" y="0" /><rect clip-path="url(#rounded_clip_p36.12)" fill="url(#grad_gpos25)" height="100" id="p36.12" width="35.0" x="201.0" y="0" /><rect clip-path="url(#rounded_clip_p36.11)" fill="url(#grad_gneg)" height="100" id="p36.11" width="40.0" x="236.0" y="0" /><rect clip-path="url(#rounded_clip_p35.3)" fill="url(#grad_gpos25)" height="100" id="p35.3" width="23.0" x="276.0" y="0" /><rect clip-path="url(#rounded_clip_p35.2)" fill="url(#grad_gneg)" height="100" id="p35.2" width="24.0" x="299.0" y="0" /><rect clip-path="url(#rounded_clip_p35.1)" fill="url(#grad_gpos25)" height="100" id="p35.1" width="20.0" x="323.0" y="0" /><rect clip-path="url(#rounded_clip_p34.3)" fill="url(#grad_gneg)" height="100" id="p34.3" width="53.0" x="343.0" y="0" /><rect clip-path="url(#rounded_clip_p34.2)" fill="url(#grad_gpos25)" height="100" id="p34.2" width="41.0" x="396.0" y="0" /><rect clip-path="url(#rounded_clip_p34.1)" fill="url(#grad_gneg)" height="100" id="p34.1" width="26.0" x="437.0" y="0" /><rect clip-path="url(#rounded_clip_p33)" fill="url(#grad_gpos75)" height="100" id="p33" width="39.0" x="463.0" y="0" /><rect clip-path="url(#rounded_clip_p32.3)" fill="url(#grad_gneg)" height="100" id="p32.3" width="54.0" x="502.0" y="0" /><rect clip-path="url(#rounded_clip_p32.2)" fill="url(#grad_gpos50)" height="100" id="p32.2" width="29.0" x="556.0" y="0" /><rect clip-path="url(#rounded_clip_p32.1)" fill="url(#grad_gneg)" height="100" id="p32.1" width="23.0" x="585.0" y="0" /><rect clip-path="url(#rounded_clip_p31.3)" fill="url(#grad_gpos50)" height="100" id="p31.3" width="77.0" x="608.0" y="0" /><rect clip-path="url(#rounded_clip_p31.2)" fill="url(#grad_gneg)" height="100" id="p31.2" width="8.0" x="685.0" y="0" /><rect clip-path="url(#rounded_clip_p31.1)" fill="url(#grad_gpos100)" height="100" id="p31.1" width="151.0" x="693.0" y="0" /><rect clip-path="url(#rounded_clip_p22.3)" fill="url(#grad_gneg)" height="100" id="p22.3" width="35.0" x="844.0" y="0" /><rect clip-path="url(#rounded_clip_p22.2)" fill="url(#grad_gpos75)" height="100" id="p22.2" width="36.0" x="879.0" y="0" /><rect clip-path="url(#rounded_clip_p22.1)" fill="url(#grad_gneg)" height="100" id="p22.1" width="28.0" x="915.0" y="0" /><rect clip-path="url(#rounded_clip_p21.3)" fill="url(#grad_gpos75)" height="100" id="p21.3" width="50.0" x="943.0" y="0" /><rect clip-path="url(#rounded_clip_p21.2)" fill="url(#grad_gneg)" height="100" id="p21.2" width="25.0" x="993.0" y="0" /><rect clip-path="url(#rounded_clip_p21.1)" fill="url(#grad_gpos100)" height="100" id="p21.1" width="49.0" x="1018.0" y="0" /><rect clip-path="url(#rounded_clip_p13.3)" fill="url(#grad_gneg)" height="100" id="p13.3" width="45.0" x="1067.0" y="0" /><rect clip-path="url(#rounded_clip_p13.2)" fill="url(#grad_gpos50)" height="100" id="p13.2" width="43.0" x="1112.0" y="0" /><rect clip-path="url(#rounded_clip_p13.1)" fill="url(#grad_gneg)" height="100" id="p13.1" width="17.0" x="1155.0" y="0" /><rect clip-path="url(#rounded_clip_p12)" fill="url(#grad_gpos50)" height="100" id="p12" width="32.0" x="1172.0" y="0" /><rect clip-path="url(#rounded_clip_p11.2)" fill="url(#grad_gneg)" height="100" id="p11.2" width="13.0" x="1204.0" y="0" /><rect clip-path="url(#rounded_clip_p11.1)" fill="url(#grad_acen)" height="100" id="p11.1" width="17.0" x="1217.0" y="0" /><rect clip-path="url(#rounded_clip_q11)" fill="url(#grad_acen)" height="100" id="q11" width="17.0" x="1234.0" y="0" /><rect clip-path="url(#rounded_clip_q12)" fill="url(#grad_gvar)" height="100" id="q12" width="181.0" x="1251.0" y="0" /><rect clip-path="url(#rounded_clip_q21.1)" fill="url(#grad_gneg)" height="100" id="q21.1" width="43.0" x="1432.0" y="0" /><rect clip-path="url(#rounded_clip_q21.2)" fill="url(#grad_gpos50)" height="100" id="q21.2" width="31.0" x="1475.0" y="0" /><rect clip-path="url(#rounded_clip_q21.3)" fill="url(#grad_gneg)" height="100" id="q21.3" width="45.0" x="1506.0" y="0" /><rect clip-path="url(#rounded_clip_q22)" fill="url(#grad_gpos50)" height="100" id="q22" width="15.0" x="1551.0" y="0" /><rect clip-path="url(#rounded_clip_q23.1)" fill="url(#grad_gneg)" height="100" id="q23.1" width="25.0" x="1566.0" y="0" /><rect clip-path="url(#rounded_clip_q23.2)" fill="url(#grad_gpos50)" height="100" id="q23.2" width="14.0" x="1591.0" y="0" /><rect clip-path="url(#rounded_clip_q23.3)" fill="url(#grad_gneg)" height="100" id="q23.3" width="50.0" x="1605.0" y="0" /><rect clip-path="url(#rounded_clip_q24.1)" fill="url(#grad_gpos50)" height="100" id="q24.1" width="17.0" x="1655.0" y="0" /><rect clip-path="url(#rounded_clip_q24.2)" fill="url(#grad_gneg)" height="100" id="q24.2" width="37.0" x="1672.0" y="0" /><rect clip-path="url(#rounded_clip_q24.3)" fill="url(#grad_gpos75)" height="100" id="q24.3" width="21.0" x="1709.0" y="0" /><rect clip-path="url(#rounded_clip_q25.1)" fill="url(#grad_gneg)" height="100" id="q25.1" width="31.0" x="1730.0" y="0" /><rect clip-path="url(#rounded_clip_q25.2)" fill="url(#grad_gpos50)" height="100" id="q25.2" width="42.0" x="1761.0" y="0" /><rect clip-path="url(#rounded_clip_q25.3)" fill="url(#grad_gneg)" height="100" id="q25.3" width="55.0" x="1803.0" y="0" /><rect clip-path="url(#rounded_clip_q31.1)" fill="url(#grad_gpos100)" height="100" id="q31.1" width="50.0" x="1858.0" y="0" /><rect clip-path="url(#rounded_clip_q31.2)" fill="url(#grad_gneg)" height="100" id="q31.2" width="30.0" x="1908.0" y="0" /><rect clip-path="url(#rounded_clip_q31.3)" fill="url(#grad_gpos100)" height="100" id="q31.3" width="49.0" x="1938.0" y="0" /><rect clip-path="url(#rounded_clip_q32.1)" fill="url(#grad_gneg)" height="100" id="q32.1" width="84.0" x="1987.0" y="0" /><rect clip-path="url(#rounded_clip_q32.2)" fill="url(#grad_gpos25)" height="100" id="q32.2" width="42.0" x="2071.0" y="0" /><rect clip-path="url(#rounded_clip_q32.3)" fill="url(#grad_gneg)" height="100" id="q32.3" width="31.0" x="2113.0" y="0" /><rect clip-path="url(#rounded_clip_q41)" fill="url(#grad_gpos100)" height="100" id="q41" width="95.0" x="2144.0" y="0" /><rect clip-path="url(#rounded_clip_q42.11)" fill="url(#grad_gneg)" height="100" id="q42.11" width="5.0" x="2239.0" y="0" /><rect clip-path="url(#rounded_clip_q42.12)" fill="url(#grad_gpos25)" height="100" id="q42.12" width="24.0" x="2244.0" y="0" /><rect clip-path="url(#rounded_clip_q42.13)" fill="url(#grad_gneg)" height="100" id="q42.13" width="37.0" x="2268.0" y="0" /><rect clip-path="url(#rounded_clip_q42.2)" fill="url(#grad_gpos50)" height="100" id="q42.2" width="41.0" x="2305.0" y="0" /><rect clip-path="url(#rounded_clip_q42.3)" fill="url(#grad_gneg)" height="100" id="q42.3" width="18.0" x="2346.0" y="0" /><rect clip-path="url(#rounded_clip_q43)" fill="url(#grad_gpos75)" height="100" id="q43" width="71.0" x="2364.0" y="0" /><rect clip-path="url(#rounded_clip_q44)" fill="url(#grad_gneg)" height="100" id="q44" width="54.56422" x="2435.0" y="0" /><rect fill="none" height="100" rx="30" ry="30" stroke="black" stroke-width="2" width="1234.0" x="0.0" y="0" /><rect fill="none" height="100" rx="30" ry="30" stroke="black" stroke-width="2" width="1255.56422" x="1234.0" y="0" /></svg>