<?xml version="1.0" encoding="utf-8" ?>
<svg baseProfile="full" height="100" version="1.1" width="1902.14555" xmlns="http://www.w3.org/2000/svg" xmlns:ev="http://www.w3.org/2001/xml-events" xmlns:xlink="http://www.w3.org/1999/xlink"><defs><linearGradient id="grad_gpos25" x1="0%" x2="0%" y1="0%" y2="100%"><stop offset="0.0" stop-color="#C8C8C8" /><stop offset="0.4" stop-color="#DCDCDC" /><stop offset="0.5" stop-color="#DCDCDC" /><stop offset="0.6" stop-color="#DCDCDC" /><stop offset="1.0" stop-color="#C8C8C8" /></linearGradient><linearGradient id="grad_gpos50" x1="0%" x2="0%" y1="0%" y2="100%"><stop offset="0.0" stop-color="#C8C8C8" /><stop offset="0.4" stop-color="#DCDCDC" /><stop offset="0.5" stop-color="#DCDCDC" /><stop offset="0.6" stop-color="#DCDCDC" /><stop offset="1.0" stop-color="#C8C8C8" /></linearGradient><linearGradient id="grad_gpos75" x1="0%" x2="0%" y1="0%" y2="100%"><stop offset="0.0" stop-color="#828282" /><stop offset="0.4" stop-color="#C6C6C6" /><stop offset="0.5" stop-color="#C6C6C6" /><stop offset="0.6" stop-color="#C6C6C6" /><stop offset="1.0" stop-color="#828282" /></linearGradient><linearGradient id="grad_gpos100" x1="0%" x2="0%" y1="0%" y2="100%"><stop offset="0.0" stop-color="#000000" /><stop offset="0.4" stop-color="#444444" /><stop offset="0.5" stop-color="#444444" /><stop offset="0.6" stop-color="#444444" /><stop offset="1.0" stop-color="#000000" /></linearGradient><linearGradient id="grad_gneg" x1="0%" x2="0%" y1="0%" y2="100%"><stop offset="0.0" stop-color="#FFFFFF" /><stop offset="0.4" stop-color="#FFFFFF" /><stop offset="0.5" stop-color="#FFFFFF" /><stop offset="0.6" stop-color="#FFFFFF" /><stop offset="1.0" stop-color="#FFFFFF" /></linearGradient><linearGradient id="grad_acen" x1="0%" x2="0%" y1="0%" y2="100%"><stop offset="0.0" stop-color="#D92F27" /><stop offset="0.4" stop-color="#F7574F" /><stop offset="0.5" stop-color="#F7574F" /><stop offset="0.6" stop-color="#F7574F" /><stop offset="1.0" stop-color="#D92F27" /></linearGradient><linearGradient id="grad_gvar" x1="0%" x2="0%" y1="0%" y2="100%"><stop offset="0.0" stop-color="#AAAAFF" /><stop offset="0.4" stop-color="#CCCCFF" /><stop offset="0.5" stop-color="#CCCCFF" /><stop offset="0.6" stop-color="#CCCCFF" /><stop offset="1.0" stop-color="#AAAAFF" /></linearGradient><linearGradient id="grad_stalk" x1="0%" x2="0%" y1="0%" y2="100%"><stop offset="0.0" stop-color="#647FA4" /><stop offset="0.4" stop-color="#647FA4" /><stop offset="0.5" stop-color="#647FA4" /><stop offset="0.6" stop-color="#647FA4" /><stop offset="1.0" stop-color="#647FA4" /></linearGradient><clipPath id="rounded_clip_p16.3"><rect fill="none" height="100" rx="30" ry="30" stroke="black" stroke-width="2" width="500.0" x="0.0" y="0" /></clipPath><clipPath id="rounded_clip_p16.2"><rect fill="none" height="100" rx="30" ry="30" stroke="black" stroke-width="2" width="500.0" x="0.0" y="0" /></clipPath><clipPath id="rounded_clip_p16.1"><rect fill="none" height="100" rx="30" ry="30" stroke="black" stroke-width="2" width="500.0" x="0.0" y="0" /></clipPath><clipPath id="rounded_clip_p15.33"><rect fill="none" height="100" rx="30" ry="30" stroke="black" stroke-width="2" width="500.0" x="0.0" y="0" /></clipPath><clipPath id="rounded_clip_p15.32"><rect fill="none" height="100" rx="30" ry="30" stroke="black" stroke-width="2" width="500.0" x="0.0" y="0" /></clipPath><clipPath id="rounded_clip_p15.31"><rect fill="none" height="100" rx="30" ry="30" stroke="black" stroke-width="2" width="500.0" x="0.0" y="0" /></clipPath><clipPath id="rounded_clip_p15.2"><rect fill="none" height="100" rx="30" ry="30" stroke="black" stroke-width="2" width="500.0" x="0.0" y="0" /></clipPath><clipPath id="rounded_clip_p15.1"><rect fill="none" height="100" rx="30" ry="30" stroke="black" stroke-width="2" width="500.0" x="0.0" y="0" /></clipPath><clipPath id="rounded_clip_p14"><rect fill="none" height="100" rx="30" ry="30" stroke="black" stroke-width="2" width="500.0" x="0.0" y="0" /></clipPath><clipPath id="rounded_clip_p13"><rect fill="none" height="100" rx="30" ry="30" stroke="black" stroke-width="2" width="500.0" x="0.0" y="0" /></clipPath><clipPath id="rounded_clip_p12"><rect fill="none" height="100" rx="30" ry="30" stroke="black" stroke-width="2" width="500.0" x="0.0" y="0" /></clipPath><clipPath id="rounded_clip_p11"><rect fill="none" height="100" rx="30" ry="30" stroke="black" stroke-width="2" width="500.0" x="0.0" y="0" /></clipPath><clipPath id="rounded_clip_q11"><rect fill="none" height="100" rx="30" ry="30" stroke="black" stroke-width="2" width="1402.14555" x="500.0" y="0" /></clipPath><clipPath id="rounded_clip_q12"><rect fill="none" height="100" rx="30" ry="30" stroke="black" stroke-width="2" width="1402.14555" x="500.0" y="0" /></clipPath><clipPath id="rounded_clip_q13.1"><rect fill="none" height="100" rx="30" ry="30" stroke="black" stroke-width="2" width="1402.14555" x="500.0" y="0" /></clipPath><clipPath id="rounded_clip_q13.2"><rect fill="none" height="100" rx="30" ry="30" stroke="black" stroke-width="2" width="1402.14555" x="500.0" y="0" /></clipPath><clipPath id="rounded_clip_q13.3"><rect fill="none" height="100" rx="30" ry="30" stroke="black" stroke-width="2" width="1402.14555" x="500.0" y="0" /></clipPath><clipPath id="rounded_clip_q21.1"><rect fill="none" height="100" rx="30" ry="30" stroke="black" stroke-width="2" width="1402.14555" x="500.0" y="0" /></clipPath><clipPath id="rounded_clip_q21.21"><rect fill="none" height="100" rx="30" ry="30" stroke="black" stroke-width="2" width="1402.14555" x="500.0" y="0" /></clipPath><clipPath id="rounded_clip_q21.22"><rect fill="none" height="100" rx="30" ry="30" stroke="black" stroke-width="2" width="1402.14555" x="500.0" y="0" /></clipPath><clipPath id="rounded_clip_q21.23"><rect fill="none" height="100" rx="30" ry="30" stroke="black" stroke-width="2" width="1402.14555" x="500.0" y="0" /></clipPath><clipPath id="rounded_clip_q21.3"><rect fill="none" height="100" rx="30" ry="30" stroke="black" stroke-width="2" width="1402.14555" x="500.0" y="0" /></clipPath><clipPath id="rounded_clip_q22.1"><rect fill="none" height="100" rx="30" ry="30" stroke="black" stroke-width="2" width="1402.14555" x="500.0" y="0" /></clipPath><clipPath id="rounded_clip_q22.2"><rect fill="none" height="100" rx="30" ry="30" stroke="black" stroke-width="2" width="1402.14555" x="500.0" y="0" /></clipPath><clipPath id="rounded_clip_q22.3"><rect fill="none" height="100" rx="30" ry="30" stroke="black" stroke-width="2" width="1402.14555" x="500.0" y="0" /></clipPath><clipPath id="rounded_clip_q23"><rect fill="none" height="100" rx="30" ry="30" stroke="black" stroke-width="2" width="1402.14555" x="500.0" y="0" /></clipPath><clipPath id="rounded_clip_q24"><rect fill="none" height="100" rx="30" ry="30" stroke="black" stroke-width="2" width="1402.14555" x="500.0" y="0" /></clipPath><clipPath id="rounded_clip_q25"><rect fill="none" height="100" rx="30" ry="30" stroke="black" stroke-width="2" width="1402.14555" x="500.0" y="0" /></clipPath><clipPath id="rounded_clip_q26"><rect fill="none" height="100" rx="30" ry="30" stroke="black" stroke-width="2" width="1402.14555" x="500.0" y="0" /></clipPath><clipPath id="rounded_clip_q27"><rect fill="none" height="100" rx="30" ry="30" stroke="black" stroke-width="2" width="1402.14555" x="500.0" y="0" /></clipPath><clipPath id="rounded_clip_q28.1"><rect fill="none" height="100" rx="30" ry="30" stroke="black" stroke-width="2" width="1402.14555" x="500.0" y="0" /></clipPath><clipPath id="rounded_clip_q28.2"><rect fill="none" height="100" rx="30" ry="30" stroke="black" stroke-width="2" width="1402.14555" x="500.0" y="0" /></clipPath><clipPath id="rounded_clip_q28.3"><rect fill="none" height="100" rx="30" ry="30" stroke="black" stroke-width="2" width="1402.14555" x="500.0" y="0" /></clipPath><clipPath id="rounded_clip_q31.1"><rect fill="none" height="100" rx="30" ry="30" stroke="black" stroke-width="2" width="1402.14555" x="500.0" y="0" /></clipPath><clipPath id="rounded_clip_q31.21"><rect fill="none" height="100" rx="30" ry="30" stroke="black" stroke-width="2" width="1402.14555" x="500.0" y="0" /></clipPath><clipPath id="rounded_clip_q31.22"><rect fill="none" height="100" rx="30" ry="30" stroke="black" stroke-width="2" width="1402.14555" x="500.0" y="0" /></clipPath><clipPath id="rounded_clip_q31.23"><rect fill="none" height="100" rx="30" ry="30" stroke="black" stroke-width="2" width="1402.14555" x="500.0" y="0" /></clipPath><clipPath id="rounded_clip_q31.3"><rect fill="none" height="100" rx="30" ry="30" stroke="black" stroke-width="2" width="1402.14555" x="500.0" y="0" /></clipPath><clipPath id="rounded_clip_q32.1"><rect fill="none" height="100" rx="30" ry="30" stroke="black" stroke-width="2" width="1402.14555" x="500.0" y="0" /></clipPath><clipPath id="rounded_clip_q32.2"><rect fill="none" height="100" rx="30" ry="30" stroke="black" stroke-width="2" width="1402.14555" x="500.0" y="0" /></clipPath><clipPath id="rounded_clip_q32.3"><rect fill="none" height="100" rx="30" ry="30" stroke="black" stroke-width="2" width="1402.14555" x="500.0" y="0" /></clipPath><clipPath id="rounded_clip_q33"><rect fill="none" height="100" rx="30" ry="30" stroke="black" stroke-width="2" width="1402.14555" x="500.0" y="0" /></clipPath><clipPath id="rounded_clip_q34.1"><rect fill="none" height="100" rx="30" ry="30" stroke="black" stroke-width="2" width="1402.14555" x="500.0" y="0" /></clipPath><clipPath id="rounded_clip_q34.2"><rect fill="none" height="100" rx="30" ry="30" stroke="black" stroke-width="2" width="1402.14555" x="500.0" y="0" /></clipPath><clipPath id="rounded_clip_q34.3"><rect fill="none" height="100" rx="30" ry="30" stroke="black" stroke-width="2" width="1402.14555" x="500.0" y="0" /></clipPath><clipPath id="rounded_clip_q35.1"><rect fill="none" height="100" rx="30" ry="30" stroke="black" stroke-width="2" width="1402.14555" x="500.0" y="0" /></clipPath><clipPath id="rounded_clip_q35.2"><rect fill="none" height="100" rx="30" ry="30" stroke="black" stroke-width="2" width="1402.14555" x="500.0" y="0" /></clipPath></defs><rect clip-path="url(#rounded_clip_p16.3)" fill="url(#grad_gneg)" height="100" id="p16.3" width="45.0" x="0.0" y="0" /><rect clip-path="url(#rounded_clip_p16.2)" fill="url(#grad_gpos25)" height="100" id="p16.2" width="15.0" x="45.0" y="0" /><rect clip-path="url(#rounded_clip_p16.1)" fill="url(#grad_gneg)" height="100" id="p16.1" width="53.0" x="60.0" y="0" /><rect clip-path="url(#rounded_clip_p15.33)" fill="url(#grad_gpos50)" height="100" id="p15.33" width="37.0" x="113.0" y="0" /><rect clip-path="url(#rounded_clip_p15.32)" fill="url(#grad_gneg)" height="100" id="p15.32" width="27.0" x="150.0" y="0" /><rect clip-path="url(#rounded_clip_p15.31)" fill="url(#grad_gpos75)" height="100" id="p15.31" width="36.0" x="177.0" y="0" /><rect clip-path="url(#rounded_clip_p15.2)" fill="url(#grad_gneg)" height="100" id="p15.2" width="64.0" x="213.0" y="0" /><rect clip-path="url(#rounded_clip_p15.1)" fill="url(#grad_gpos100)" height="100" id="p15.1" width="81.0" x="277.0" y="0" /><rect clip-path="url(#rounded_clip_p14)" fill="url(#grad_gneg)" height="100" id="p14" width="54.0" x="358.0" y="0" /><rect clip-path="url(#rounded_clip_p13)" fill="url(#grad_gpos50)" height="100" id="p13" width="34.0" x="412.0" y="0" /><rect clip-path="url(#rounded_clip_p12)" fill="url(#grad_gneg)" height="100" id="p12" width="36.0" x="446.0" y="0" /><rect clip-path="url(#rounded_clip_p11)" fill="url(#grad_acen)" height="100" id="p11" width="18.0" x="482.0" y="0" /><rect clip-path="url(#rounded_clip_q11)" fill="url(#grad_acen)" height="100" id="q11" width="18.0" x="500.0" y="0" /><rect clip-path="url(#rounded_clip_q12)" fill="url(#grad_gneg)" height="100" id="q12" width="67.0" x="518.0" y="0" /><rect clip-path="url(#rounded_clip_q13.1)" fill="url(#grad_gpos100)" height="100" id="q13.1" width="70.0" x="585.0" y="0" /><rect clip-path="url(#rounded_clip_q13.2)" fill="url(#grad_gneg)" height="100" id="q13.2" width="39.0" x="655.0" y="0" /><rect clip-path="url(#rounded_clip_q13.3)" fill="url(#grad_gpos75)" height="100" id="q13.3" width="59.0" x="694.0" y="0" /><rect clip-path="url(#rounded_clip_q21.1)" fill="url(#grad_gneg)" height="100" id="q21.1" width="27.0" x="753.0" y="0" /><rect clip-path="url(#rounded_clip_q21.21)" fill="url(#grad_gpos50)" height="100" id="q21.21" width="35.0" x="780.0" y="0" /><rect clip-path="url(#rounded_clip_q21.22)" fill="url(#grad_gneg)" height="100" id="q21.22" width="17.0" x="815.0" y="0" /><rect clip-path="url(#rounded_clip_q21.23)" fill="url(#grad_gpos25)" height="100" id="q21.23" width="28.0" x="832.0" y="0" /><rect clip-path="url(#rounded_clip_q21.3)" fill="url(#grad_gneg)" height="100" id="q21.3" width="11.0" x="860.0" y="0" /><rect clip-path="url(#rounded_clip_q22.1)" fill="url(#grad_gpos75)" height="100" id="q22.1" width="57.0" x="871.0" y="0" /><rect clip-path="url(#rounded_clip_q22.2)" fill="url(#grad_gneg)" height="100" id="q22.2" width="14.0" x="928.0" y="0" /><rect clip-path="url(#rounded_clip_q22.3)" fill="url(#grad_gpos75)" height="100" id="q22.3" width="37.0" x="942.0" y="0" /><rect clip-path="url(#rounded_clip_q23)" fill="url(#grad_gneg)" height="100" id="q23" width="22.0" x="979.0" y="0" /><rect clip-path="url(#rounded_clip_q24)" fill="url(#grad_gpos50)" height="100" id="q24" width="66.0" x="1001.0" y="0" /><rect clip-path="url(#rounded_clip_q25)" fill="url(#grad_gneg)" height="100" id="q25" width="65.0" x="1067.0" y="0" /><rect clip-path="url(#rounded_clip_q26)" fill="url(#grad_gpos75)" height="100" id="q26" width="67.0" x="1132.0" y="0" /><rect clip-path="url(#rounded_clip_q27)" fill="url(#grad_gneg)" height="100" id="q27" width="29.0" x="1199.0" y="0" /><rect clip-path="url(#rounded_clip_q28.1)" fill="url(#grad_gpos50)" height="100" id="q28.1" width="51.0" x="1228.0" y="0" /><rect clip-path="url(#rounded_clip_q28.2)" fill="url(#grad_gneg)" height="100" id="q28.2" width="22.0" x="1279.0" y="0" /><rect clip-path="url(#rounded_clip_q28.3)" fill="url(#grad_gpos100)" height="100" id="q28.3" width="84.0" x="1301.0" y="0" /><rect clip-path="url(#rounded_clip_q31.1)" fill="url(#grad_gneg)" height="100" id="q31.1" width="21.0" x="1385.0" y="0" /><rect clip-path="url(#rounded_clip_q31.21)" fill="url(#grad_gpos25)" height="100" id="q31.21" width="53.0" x="1406.0" y="0" /><rect clip-path="url(#rounded_clip_q31.22)" fill="url(#grad_gneg)" height="100" id="q31.22" width="16.0" x="1459.0" y="0" /><rect clip-path="url(#rounded_clip_q31.23)" fill="url(#grad_gpos25)" height="100" id="q31.23" width="27.0" x="1475.0" y="0" /><rect clip-path="url(#rounded_clip_q31.3)" fill="url(#grad_gneg)" height="100" id="q31.3" width="44.0" x="1502.0" y="0" /><rect clip-path="url(#rounded_clip_q32.1)" fill="url(#grad_gpos100)" height="100" id="q32.1" width="62.0" x="1546.0" y="0" /><rect clip-path="url(#rounded_clip_q32.2)" fill="url(#grad_gneg)" height="100" id="q32.2" width="28.0" x="1608.0" y="0" /><rect clip-path="url(#rounded_clip_q32.3)" fill="url(#grad_gpos100)" height="100" id="q32.3" width="56.0" x="1636.0" y="0" /><rect clip-path="url(#rounded_clip_q33)" fill="url(#grad_gneg)" height="100" id="q33" width="18.0" x="1692.0" y="0" /><rect clip-path="url(#rounded_clip_q34.1)" fill="url(#grad_gpos75)" height="100" id="q34.1" width="44.0" x="1710.0" y="0" /><rect clip-path="url(#rounded_clip_q34.2)" fill="url(#grad_gneg)" height="100" id="q34.2" width="12.0" x="1754.0" y="0" /><rect clip-path="url(#rounded_clip_q34.3)" fill="url(#grad_gpos100)" height="100" id="q34.3" width="57.0" x="1766.0" y="0" /><rect clip-path="url(#rounded_clip_q35.1)" fill="url(#grad_gneg)" height="100" id="q35.1" width="39.0" x="1823.0" y="0" /><rect clip-path="url(#rounded_clip_q35.2)" fill="url(#grad_gpos25)" height="100" id="q35.2" width="40.14555" x="1862.0" y="0" /><rect fill="none" height="100" rx="30" ry="30" stroke="black" stroke-width="2" width="500.0" x="0.0" y="0" /><rect fill="none" height="100" rx="30" ry="30" stroke="black" stroke-width="2" width="1402.14555" x="500.0" y="0" /></svg>