<?xml version="1.0" encoding="utf-8" ?>
<svg baseProfile="full" height="100" version="1.1" width="1815.38259" xmlns="http://www.w3.org/2000/svg" xmlns:ev="http://www.w3.org/2001/xml-events" xmlns:xlink="http://www.w3.org/1999/xlink"><defs><linearGradient id="grad_gpos25" x1="0%" x2="0%" y1="0%" y2="100%"><stop offset="0.0" stop-color="#C8C8C8" /><stop offset="0.4" stop-color="#DCDCDC" /><stop offset="0.5" stop-color="#DCDCDC" /><stop offset="0.6" stop-color="#DCDCDC" /><stop offset="1.0" stop-color="#C8C8C8" /></linearGradient><linearGradient id="grad_gpos50" x1="0%" x2="0%" y1="0%" y2="100%"><stop offset="0.0" stop-color="#C8C8C8" /><stop offset="0.4" stop-color="#DCDCDC" /><stop offset="0.5" stop-color="#DCDCDC" /><stop offset="0.6" stop-color="#DCDCDC" /><stop offset="1.0" stop-color="#C8C8C8" /></linearGradient><linearGradient id="grad_gpos75" x1="0%" x2="0%" y1="0%" y2="100%"><stop offset="0.0" stop-color="#828282" /><stop offset="0.4" stop-color="#C6C6C6" /><stop offset="0.5" stop-color="#C6C6C6" /><stop offset="0.6" stop-color="#C6C6C6" /><stop offset="1.0" stop-color="#828282" /></linearGradient><linearGradient id="grad_gpos100" x1="0%" x2="0%" y1="0%" y2="100%"><stop offset="0.0" stop-color="#000000" /><stop offset="0.4" stop-color="#444444" /><stop offset="0.5" stop-color="#444444" /><stop offset="0.6" stop-color="#444444" /><stop offset="1.0" stop-color="#000000" /></linearGradient><linearGradient id="grad_gneg" x1="0%" x2="0%" y1="0%" y2="100%"><stop offset="0.0" stop-color="#FFFFFF" /><stop offset="0.4" stop-color="#FFFFFF" /><stop offset="0.5" stop-color="#FFFFFF" /><stop offset="0.6" stop-color="#FFFFFF" /><stop offset="1.0" stop-color="#FFFFFF" /></linearGradient><linearGradient id="grad_acen" x1="0%" x2="0%" y1="0%" y2="100%"><stop offset="0.0" stop-color="#D92F27" /><stop offset="0.4" stop-color="#F7574F" /><stop offset="0.5" stop-color="#F7574F" /><stop offset="0.6" stop-color="#F7574F" /><stop offset="1.0" stop-color="#D92F27" /></linearGradient><linearGradient id="grad_gvar" x1="0%" x2="0%" y1="0%" y2="100%"><stop offset="0.0" stop-color="#AAAAFF" /><stop offset="0.4" stop-color="#CCCCFF" /><stop offset="0.5" stop-color="#CCCCFF" /><stop offset="0.6" stop-color="#CCCCFF" /><stop offset="1.0" stop-color="#AAAAFF" /></linearGradient><linearGradient id="grad_stalk" x1="0%" x2="0%" y1="0%" y2="100%"><stop offset="0.0" stop-color="#647FA4" /><stop offset="0.4" stop-color="#647FA4" /><stop offset="0.5" stop-color="#647FA4" /><stop offset="0.6" stop-color="#647FA4" /><stop offset="1.0" stop-color="#647FA4" /></linearGradient><clipPath id="rounded_clip_p15.33"><rect fill="none" height="100" rx="30" ry="30" stroke="black" stroke-width="2" width="488.0" x="0.0" y="0" /></clipPath><clipPath id="rounded_clip_p15.32"><rect fill="none" height="100" rx="30" ry="30" stroke="black" stroke-width="2" width="488.0" x="0.0" y="0" /></clipPath><clipPath id="rounded_clip_p15.31"><rect fill="none" height="100" rx="30" ry="30" stroke="black" stroke-width="2" width="488.0" x="0.0" y="0" /></clipPath><clipPath id="rounded_clip_p15.2"><rect fill="none" height="100" rx="30" ry="30" stroke="black" stroke-width="2" width="488.0" x="0.0" y="0" /></clipPath><clipPath id="rounded_clip_p15.1"><rect fill="none" height="100" rx="30" ry="30" stroke="black" stroke-width="2" width="488.0" x="0.0" y="0" /></clipPath><clipPath id="rounded_clip_p14.3"><rect fill="none" height="100" rx="30" ry="30" stroke="black" stroke-width="2" width="488.0" x="0.0" y="0" /></clipPath><clipPath id="rounded_clip_p14.2"><rect fill="none" height="100" rx="30" ry="30" stroke="black" stroke-width="2" width="488.0" x="0.0" y="0" /></clipPath><clipPath id="rounded_clip_p14.1"><rect fill="none" height="100" rx="30" ry="30" stroke="black" stroke-width="2" width="488.0" x="0.0" y="0" /></clipPath><clipPath id="rounded_clip_p13.3"><rect fill="none" height="100" rx="30" ry="30" stroke="black" stroke-width="2" width="488.0" x="0.0" y="0" /></clipPath><clipPath id="rounded_clip_p13.2"><rect fill="none" height="100" rx="30" ry="30" stroke="black" stroke-width="2" width="488.0" x="0.0" y="0" /></clipPath><clipPath id="rounded_clip_p13.1"><rect fill="none" height="100" rx="30" ry="30" stroke="black" stroke-width="2" width="488.0" x="0.0" y="0" /></clipPath><clipPath id="rounded_clip_p12"><rect fill="none" height="100" rx="30" ry="30" stroke="black" stroke-width="2" width="488.0" x="0.0" y="0" /></clipPath><clipPath id="rounded_clip_p11"><rect fill="none" height="100" rx="30" ry="30" stroke="black" stroke-width="2" width="488.0" x="0.0" y="0" /></clipPath><clipPath id="rounded_clip_q11.1"><rect fill="none" height="100" rx="30" ry="30" stroke="black" stroke-width="2" width="1327.38259" x="488.0" y="0" /></clipPath><clipPath id="rounded_clip_q11.2"><rect fill="none" height="100" rx="30" ry="30" stroke="black" stroke-width="2" width="1327.38259" x="488.0" y="0" /></clipPath><clipPath id="rounded_clip_q12.1"><rect fill="none" height="100" rx="30" ry="30" stroke="black" stroke-width="2" width="1327.38259" x="488.0" y="0" /></clipPath><clipPath id="rounded_clip_q12.2"><rect fill="none" height="100" rx="30" ry="30" stroke="black" stroke-width="2" width="1327.38259" x="488.0" y="0" /></clipPath><clipPath id="rounded_clip_q12.3"><rect fill="none" height="100" rx="30" ry="30" stroke="black" stroke-width="2" width="1327.38259" x="488.0" y="0" /></clipPath><clipPath id="rounded_clip_q13.1"><rect fill="none" height="100" rx="30" ry="30" stroke="black" stroke-width="2" width="1327.38259" x="488.0" y="0" /></clipPath><clipPath id="rounded_clip_q13.2"><rect fill="none" height="100" rx="30" ry="30" stroke="black" stroke-width="2" width="1327.38259" x="488.0" y="0" /></clipPath><clipPath id="rounded_clip_q13.3"><rect fill="none" height="100" rx="30" ry="30" stroke="black" stroke-width="2" width="1327.38259" x="488.0" y="0" /></clipPath><clipPath id="rounded_clip_q14.1"><rect fill="none" height="100" rx="30" ry="30" stroke="black" stroke-width="2" width="1327.38259" x="488.0" y="0" /></clipPath><clipPath id="rounded_clip_q14.2"><rect fill="none" height="100" rx="30" ry="30" stroke="black" stroke-width="2" width="1327.38259" x="488.0" y="0" /></clipPath><clipPath id="rounded_clip_q14.3"><rect fill="none" height="100" rx="30" ry="30" stroke="black" stroke-width="2" width="1327.38259" x="488.0" y="0" /></clipPath><clipPath id="rounded_clip_q15"><rect fill="none" height="100" rx="30" ry="30" stroke="black" stroke-width="2" width="1327.38259" x="488.0" y="0" /></clipPath><clipPath id="rounded_clip_q21.1"><rect fill="none" height="100" rx="30" ry="30" stroke="black" stroke-width="2" width="1327.38259" x="488.0" y="0" /></clipPath><clipPath id="rounded_clip_q21.2"><rect fill="none" height="100" rx="30" ry="30" stroke="black" stroke-width="2" width="1327.38259" x="488.0" y="0" /></clipPath><clipPath id="rounded_clip_q21.3"><rect fill="none" height="100" rx="30" ry="30" stroke="black" stroke-width="2" width="1327.38259" x="488.0" y="0" /></clipPath><clipPath id="rounded_clip_q22.1"><rect fill="none" height="100" rx="30" ry="30" stroke="black" stroke-width="2" width="1327.38259" x="488.0" y="0" /></clipPath><clipPath id="rounded_clip_q22.2"><rect fill="none" height="100" rx="30" ry="30" stroke="black" stroke-width="2" width="1327.38259" x="488.0" y="0" /></clipPath><clipPath id="rounded_clip_q22.3"><rect fill="none" height="100" rx="30" ry="30" stroke="black" stroke-width="2" width="1327.38259" x="488.0" y="0" /></clipPath><clipPath id="rounded_clip_q23.1"><rect fill="none" height="100" rx="30" ry="30" stroke="black" stroke-width="2" width="1327.38259" x="488.0" y="0" /></clipPath><clipPath id="rounded_clip_q23.2"><rect fill="none" height="100" rx="30" ry="30" stroke="black" stroke-width="2" width="1327.38259" x="488.0" y="0" /></clipPath><clipPath id="rounded_clip_q23.3"><rect fill="none" height="100" rx="30" ry="30" stroke="black" stroke-width="2" width="1327.38259" x="488.0" y="0" /></clipPath><clipPath id="rounded_clip_q31.1"><rect fill="none" height="100" rx="30" ry="30" stroke="black" stroke-width="2" width="1327.38259" x="488.0" y="0" /></clipPath><clipPath id="rounded_clip_q31.2"><rect fill="none" height="100" rx="30" ry="30" stroke="black" stroke-width="2" width="1327.38259" x="488.0" y="0" /></clipPath><clipPath id="rounded_clip_q31.3"><rect fill="none" height="100" rx="30" ry="30" stroke="black" stroke-width="2" width="1327.38259" x="488.0" y="0" /></clipPath><clipPath id="rounded_clip_q32"><rect fill="none" height="100" rx="30" ry="30" stroke="black" stroke-width="2" width="1327.38259" x="488.0" y="0" /></clipPath><clipPath id="rounded_clip_q33.1"><rect fill="none" height="100" rx="30" ry="30" stroke="black" stroke-width="2" width="1327.38259" x="488.0" y="0" /></clipPath><clipPath id="rounded_clip_q33.2"><rect fill="none" height="100" rx="30" ry="30" stroke="black" stroke-width="2" width="1327.38259" x="488.0" y="0" /></clipPath><clipPath id="rounded_clip_q33.3"><rect fill="none" height="100" rx="30" ry="30" stroke="black" stroke-width="2" width="1327.38259" x="488.0" y="0" /></clipPath><clipPath id="rounded_clip_q34"><rect fill="none" height="100" rx="30" ry="30" stroke="black" stroke-width="2" width="1327.38259" x="488.0" y="0" /></clipPath><clipPath id="rounded_clip_q35.1"><rect fill="none" height="100" rx="30" ry="30" stroke="black" stroke-width="2" width="1327.38259" x="488.0" y="0" /></clipPath><clipPath id="rounded_clip_q35.2"><rect fill="none" height="100" rx="30" ry="30" stroke="black" stroke-width="2" width="1327.38259" x="488.0" y="0" /></clipPath><clipPath id="rounded_clip_q35.3"><rect fill="none" height="100" rx="30" ry="30" stroke="black" stroke-width="2" width="1327.38259" x="488.0" y="0" /></clipPath></defs><rect clip-path="url(#rounded_clip_p15.33)" fill="url(#grad_gneg)" height="100" id="p15.33" width="44.0" x="0.0" y="0" /><rect clip-path="url(#rounded_clip_p15.32)" fill="url(#grad_gpos25)" height="100" id="p15.32" width="19.0" x="44.0" y="0" /><rect clip-path="url(#rounded_clip_p15.31)" fill="url(#grad_gneg)" height="100" id="p15.31" width="36.0" x="63.0" y="0" /><rect clip-path="url(#rounded_clip_p15.2)" fill="url(#grad_gpos50)" height="100" id="p15.2" width="51.0" x="99.0" y="0" /><rect clip-path="url(#rounded_clip_p15.1)" fill="url(#grad_gneg)" height="100" id="p15.1" width="34.0" x="150.0" y="0" /><rect clip-path="url(#rounded_clip_p14.3)" fill="url(#grad_gpos100)" height="100" id="p14.3" width="49.0" x="184.0" y="0" /><rect clip-path="url(#rounded_clip_p14.2)" fill="url(#grad_gneg)" height="100" id="p14.2" width="13.0" x="233.0" y="0" /><rect clip-path="url(#rounded_clip_p14.1)" fill="url(#grad_gpos100)" height="100" id="p14.1" width="43.0" x="246.0" y="0" /><rect clip-path="url(#rounded_clip_p13.3)" fill="url(#grad_gneg)" height="100" id="p13.3" width="49.0" x="289.0" y="0" /><rect clip-path="url(#rounded_clip_p13.2)" fill="url(#grad_gpos25)" height="100" id="p13.2" width="46.0" x="338.0" y="0" /><rect clip-path="url(#rounded_clip_p13.1)" fill="url(#grad_gneg)" height="100" id="p13.1" width="41.0" x="384.0" y="0" /><rect clip-path="url(#rounded_clip_p12)" fill="url(#grad_gpos50)" height="100" id="p12" width="36.0" x="425.0" y="0" /><rect clip-path="url(#rounded_clip_p11)" fill="url(#grad_acen)" height="100" id="p11" width="27.0" x="461.0" y="0" /><rect clip-path="url(#rounded_clip_q11.1)" fill="url(#grad_acen)" height="100" id="q11.1" width="26.0" x="488.0" y="0" /><rect clip-path="url(#rounded_clip_q11.2)" fill="url(#grad_gneg)" height="100" id="q11.2" width="82.0" x="514.0" y="0" /><rect clip-path="url(#rounded_clip_q12.1)" fill="url(#grad_gpos75)" height="100" id="q12.1" width="40.0" x="596.0" y="0" /><rect clip-path="url(#rounded_clip_q12.2)" fill="url(#grad_gneg)" height="100" id="q12.2" width="3.0" x="636.0" y="0" /><rect clip-path="url(#rounded_clip_q12.3)" fill="url(#grad_gpos75)" height="100" id="q12.3" width="35.0" x="639.0" y="0" /><rect clip-path="url(#rounded_clip_q13.1)" fill="url(#grad_gneg)" height="100" id="q13.1" width="17.0" x="674.0" y="0" /><rect clip-path="url(#rounded_clip_q13.2)" fill="url(#grad_gpos50)" height="100" id="q13.2" width="49.0" x="691.0" y="0" /><rect clip-path="url(#rounded_clip_q13.3)" fill="url(#grad_gneg)" height="100" id="q13.3" width="36.0" x="740.0" y="0" /><rect clip-path="url(#rounded_clip_q14.1)" fill="url(#grad_gpos50)" height="100" id="q14.1" width="45.0" x="776.0" y="0" /><rect clip-path="url(#rounded_clip_q14.2)" fill="url(#grad_gneg)" height="100" id="q14.2" width="14.0" x="821.0" y="0" /><rect clip-path="url(#rounded_clip_q14.3)" fill="url(#grad_gpos100)" height="100" id="q14.3" width="95.0" x="835.0" y="0" /><rect clip-path="url(#rounded_clip_q15)" fill="url(#grad_gneg)" height="100" id="q15" width="59.0" x="930.0" y="0" /><rect clip-path="url(#rounded_clip_q21.1)" fill="url(#grad_gpos100)" height="100" id="q21.1" width="45.0" x="989.0" y="0" /><rect clip-path="url(#rounded_clip_q21.2)" fill="url(#grad_gneg)" height="100" id="q21.2" width="17.0" x="1034.0" y="0" /><rect clip-path="url(#rounded_clip_q21.3)" fill="url(#grad_gpos100)" height="100" id="q21.3" width="51.0" x="1051.0" y="0" /><rect clip-path="url(#rounded_clip_q22.1)" fill="url(#grad_gneg)" height="100" id="q22.1" width="20.0" x="1102.0" y="0" /><rect clip-path="url(#rounded_clip_q22.2)" fill="url(#grad_gpos50)" height="100" id="q22.2" width="16.0" x="1122.0" y="0" /><rect clip-path="url(#rounded_clip_q22.3)" fill="url(#grad_gneg)" height="100" id="q22.3" width="21.0" x="1138.0" y="0" /><rect clip-path="url(#rounded_clip_q23.1)" fill="url(#grad_gpos100)" height="100" id="q23.1" width="62.0" x="1159.0" y="0" /><rect clip-path="url(#rounded_clip_q23.2)" fill="url(#grad_gneg)" height="100" id="q23.2" width="58.0" x="1221.0" y="0" /><rect clip-path="url(#rounded_clip_q23.3)" fill="url(#grad_gpos100)" height="100" id="q23.3" width="33.0" x="1279.0" y="0" /><rect clip-path="url(#rounded_clip_q31.1)" fill="url(#grad_gneg)" height="100" id="q31.1" width="57.0" x="1312.0" y="0" /><rect clip-path="url(#rounded_clip_q31.2)" fill="url(#grad_gpos25)" height="100" id="q31.2" width="32.0" x="1369.0" y="0" /><rect clip-path="url(#rounded_clip_q31.3)" fill="url(#grad_gneg)" height="100" id="q31.3" width="50.0" x="1401.0" y="0" /><rect clip-path="url(#rounded_clip_q32)" fill="url(#grad_gpos75)" height="100" id="q32" width="53.0" x="1451.0" y="0" /><rect clip-path="url(#rounded_clip_q33.1)" fill="url(#grad_gneg)" height="100" id="q33.1" width="29.0" x="1504.0" y="0" /><rect clip-path="url(#rounded_clip_q33.2)" fill="url(#grad_gpos50)" height="100" id="q33.2" width="30.0" x="1533.0" y="0" /><rect clip-path="url(#rounded_clip_q33.3)" fill="url(#grad_gneg)" height="100" id="q33.3" width="42.0" x="1563.0" y="0" /><rect clip-path="url(#rounded_clip_q34)" fill="url(#grad_gpos100)" height="100" id="q34" width="85.0" x="1605.0" y="0" /><rect clip-path="url(#rounded_clip_q35.1)" fill="url(#grad_gneg)" height="100" id="q35.1" width="43.0" x="1690.0" y="0" /><rect clip-path="url(#rounded_clip_q35.2)" fill="url(#grad_gpos25)" height="100" id="q35.2" width="38.0" x="1733.0" y="0" /><rect clip-path="url(#rounded_clip_q35.3)" fill="url(#grad_gneg)" height="100" id="q35.3" width="44.38259" x="1771.0" y="0" /><rect fill="none" height="100" rx="30" ry="30" stroke="black" stroke-width="2" width="488.0" x="0.0" y="0" /><rect fill="none" height="100" rx="30" ry="30" stroke="black" stroke-width="2" width="1327.38259" x="488.0" y="0" /></svg>