<?xml version="1.0" encoding="utf-8" ?>
<svg baseProfile="full" height="100" version="1.1" width="1593.45973" xmlns="http://www.w3.org/2000/svg" xmlns:ev="http://www.w3.org/2001/xml-events" xmlns:xlink="http://www.w3.org/1999/xlink"><defs><linearGradient id="grad_gpos25" x1="0%" x2="0%" y1="0%" y2="100%"><stop offset="0.0" stop-color="#C8C8C8" /><stop offset="0.4" stop-color="#DCDCDC" /><stop offset="0.5" stop-color="#DCDCDC" /><stop offset="0.6" stop-color="#DCDCDC" /><stop offset="1.0" stop-color="#C8C8C8" /></linearGradient><linearGradient id="grad_gpos50" x1="0%" x2="0%" y1="0%" y2="100%"><stop offset="0.0" stop-color="#C8C8C8" /><stop offset="0.4" stop-color="#DCDCDC" /><stop offset="0.5" stop-color="#DCDCDC" /><stop offset="0.6" stop-color="#DCDCDC" /><stop offset="1.0" stop-color="#C8C8C8" /></linearGradient><linearGradient id="grad_gpos75" x1="0%" x2="0%" y1="0%" y2="100%"><stop offset="0.0" stop-color="#828282" /><stop offset="0.4" stop-color="#C6C6C6" /><stop offset="0.5" stop-color="#C6C6C6" /><stop offset="0.6" stop-color="#C6C6C6" /><stop offset="1.0" stop-color="#828282" /></linearGradient><linearGradient id="grad_gpos100" x1="0%" x2="0%" y1="0%" y2="100%"><stop offset="0.0" stop-color="#000000" /><stop offset="0.4" stop-color="#444444" /><stop offset="0.5" stop-color="#444444" /><stop offset="0.6" stop-color="#444444" /><stop offset="1.0" stop-color="#000000" /></linearGradient><linearGradient id="grad_gneg" x1="0%" x2="0%" y1="0%" y2="100%"><stop offset="0.0" stop-color="#FFFFFF" /><stop offset="0.4" stop-color="#FFFFFF" /><stop offset="0.5" stop-color="#FFFFFF" /><stop offset="0.6" stop-color="#FFFFFF" /><stop offset="1.0" stop-color="#FFFFFF" /></linearGradient><linearGradient id="grad_acen" x1="0%" x2="0%" y1="0%" y2="100%"><stop offset="0.0" stop-color="#D92F27" /><stop offset="0.4" stop-color="#F7574F" /><stop offset="0.5" stop-color="#F7574F" /><stop offset="0.6" stop-color="#F7574F" /><stop offset="1.0" stop-color="#D92F27" /></linearGradient><linearGradient id="grad_gvar" x1="0%" x2="0%" y1="0%" y2="100%"><stop offset="0.0" stop-color="#AAAAFF" /><stop offset="0.4" stop-color="#CCCCFF" /><stop offset="0.5" stop-color="#CCCCFF" /><stop offset="0.6" stop-color="#CCCCFF" /><stop offset="1.0" stop-color="#AAAAFF" /></linearGradient><linearGradient id="grad_stalk" x1="0%" x2="0%" y1="0%" y2="100%"><stop offset="0.0" stop-color="#647FA4" /><stop offset="0.4" stop-color="#647FA4" /><stop offset="0.5" stop-color="#647FA4" /><stop offset="0.6" stop-color="#647FA4" /><stop offset="1.0" stop-color="#647FA4" /></linearGradient><clipPath id="rounded_clip_p22.3"><rect fill="none" height="100" rx="30" ry="30" stroke="black" stroke-width="2" width="601.0" x="0.0" y="0" /></clipPath><clipPath id="rounded_clip_p22.2"><rect fill="none" height="100" rx="30" ry="30" stroke="black" stroke-width="2" width="601.0" x="0.0" y="0" /></clipPath><clipPath id="rounded_clip_p22.1"><rect fill="none" height="100" rx="30" ry="30" stroke="black" stroke-width="2" width="601.0" x="0.0" y="0" /></clipPath><clipPath id="rounded_clip_p21.3"><rect fill="none" height="100" rx="30" ry="30" stroke="black" stroke-width="2" width="601.0" x="0.0" y="0" /></clipPath><clipPath id="rounded_clip_p21.2"><rect fill="none" height="100" rx="30" ry="30" stroke="black" stroke-width="2" width="601.0" x="0.0" y="0" /></clipPath><clipPath id="rounded_clip_p21.1"><rect fill="none" height="100" rx="30" ry="30" stroke="black" stroke-width="2" width="601.0" x="0.0" y="0" /></clipPath><clipPath id="rounded_clip_p15.3"><rect fill="none" height="100" rx="30" ry="30" stroke="black" stroke-width="2" width="601.0" x="0.0" y="0" /></clipPath><clipPath id="rounded_clip_p15.2"><rect fill="none" height="100" rx="30" ry="30" stroke="black" stroke-width="2" width="601.0" x="0.0" y="0" /></clipPath><clipPath id="rounded_clip_p15.1"><rect fill="none" height="100" rx="30" ry="30" stroke="black" stroke-width="2" width="601.0" x="0.0" y="0" /></clipPath><clipPath id="rounded_clip_p14.3"><rect fill="none" height="100" rx="30" ry="30" stroke="black" stroke-width="2" width="601.0" x="0.0" y="0" /></clipPath><clipPath id="rounded_clip_p14.2"><rect fill="none" height="100" rx="30" ry="30" stroke="black" stroke-width="2" width="601.0" x="0.0" y="0" /></clipPath><clipPath id="rounded_clip_p14.1"><rect fill="none" height="100" rx="30" ry="30" stroke="black" stroke-width="2" width="601.0" x="0.0" y="0" /></clipPath><clipPath id="rounded_clip_p13"><rect fill="none" height="100" rx="30" ry="30" stroke="black" stroke-width="2" width="601.0" x="0.0" y="0" /></clipPath><clipPath id="rounded_clip_p12.3"><rect fill="none" height="100" rx="30" ry="30" stroke="black" stroke-width="2" width="601.0" x="0.0" y="0" /></clipPath><clipPath id="rounded_clip_p12.2"><rect fill="none" height="100" rx="30" ry="30" stroke="black" stroke-width="2" width="601.0" x="0.0" y="0" /></clipPath><clipPath id="rounded_clip_p12.1"><rect fill="none" height="100" rx="30" ry="30" stroke="black" stroke-width="2" width="601.0" x="0.0" y="0" /></clipPath><clipPath id="rounded_clip_p11.2"><rect fill="none" height="100" rx="30" ry="30" stroke="black" stroke-width="2" width="601.0" x="0.0" y="0" /></clipPath><clipPath id="rounded_clip_p11.1"><rect fill="none" height="100" rx="30" ry="30" stroke="black" stroke-width="2" width="601.0" x="0.0" y="0" /></clipPath><clipPath id="rounded_clip_q11.1"><rect fill="none" height="100" rx="30" ry="30" stroke="black" stroke-width="2" width="992.45973" x="601.0" y="0" /></clipPath><clipPath id="rounded_clip_q11.21"><rect fill="none" height="100" rx="30" ry="30" stroke="black" stroke-width="2" width="992.45973" x="601.0" y="0" /></clipPath><clipPath id="rounded_clip_q11.22"><rect fill="none" height="100" rx="30" ry="30" stroke="black" stroke-width="2" width="992.45973" x="601.0" y="0" /></clipPath><clipPath id="rounded_clip_q11.23"><rect fill="none" height="100" rx="30" ry="30" stroke="black" stroke-width="2" width="992.45973" x="601.0" y="0" /></clipPath><clipPath id="rounded_clip_q21.11"><rect fill="none" height="100" rx="30" ry="30" stroke="black" stroke-width="2" width="992.45973" x="601.0" y="0" /></clipPath><clipPath id="rounded_clip_q21.12"><rect fill="none" height="100" rx="30" ry="30" stroke="black" stroke-width="2" width="992.45973" x="601.0" y="0" /></clipPath><clipPath id="rounded_clip_q21.13"><rect fill="none" height="100" rx="30" ry="30" stroke="black" stroke-width="2" width="992.45973" x="601.0" y="0" /></clipPath><clipPath id="rounded_clip_q21.2"><rect fill="none" height="100" rx="30" ry="30" stroke="black" stroke-width="2" width="992.45973" x="601.0" y="0" /></clipPath><clipPath id="rounded_clip_q21.3"><rect fill="none" height="100" rx="30" ry="30" stroke="black" stroke-width="2" width="992.45973" x="601.0" y="0" /></clipPath><clipPath id="rounded_clip_q22.1"><rect fill="none" height="100" rx="30" ry="30" stroke="black" stroke-width="2" width="992.45973" x="601.0" y="0" /></clipPath><clipPath id="rounded_clip_q22.2"><rect fill="none" height="100" rx="30" ry="30" stroke="black" stroke-width="2" width="992.45973" x="601.0" y="0" /></clipPath><clipPath id="rounded_clip_q22.3"><rect fill="none" height="100" rx="30" ry="30" stroke="black" stroke-width="2" width="992.45973" x="601.0" y="0" /></clipPath><clipPath id="rounded_clip_q31.1"><rect fill="none" height="100" rx="30" ry="30" stroke="black" stroke-width="2" width="992.45973" x="601.0" y="0" /></clipPath><clipPath id="rounded_clip_q31.2"><rect fill="none" height="100" rx="30" ry="30" stroke="black" stroke-width="2" width="992.45973" x="601.0" y="0" /></clipPath><clipPath id="rounded_clip_q31.31"><rect fill="none" height="100" rx="30" ry="30" stroke="black" stroke-width="2" width="992.45973" x="601.0" y="0" /></clipPath><clipPath id="rounded_clip_q31.32"><rect fill="none" height="100" rx="30" ry="30" stroke="black" stroke-width="2" width="992.45973" x="601.0" y="0" /></clipPath><clipPath id="rounded_clip_q31.33"><rect fill="none" height="100" rx="30" ry="30" stroke="black" stroke-width="2" width="992.45973" x="601.0" y="0" /></clipPath><clipPath id="rounded_clip_q32.1"><rect fill="none" height="100" rx="30" ry="30" stroke="black" stroke-width="2" width="992.45973" x="601.0" y="0" /></clipPath><clipPath id="rounded_clip_q32.2"><rect fill="none" height="100" rx="30" ry="30" stroke="black" stroke-width="2" width="992.45973" x="601.0" y="0" /></clipPath><clipPath id="rounded_clip_q32.3"><rect fill="none" height="100" rx="30" ry="30" stroke="black" stroke-width="2" width="992.45973" x="601.0" y="0" /></clipPath><clipPath id="rounded_clip_q33"><rect fill="none" height="100" rx="30" ry="30" stroke="black" stroke-width="2" width="992.45973" x="601.0" y="0" /></clipPath><clipPath id="rounded_clip_q34"><rect fill="none" height="100" rx="30" ry="30" stroke="black" stroke-width="2" width="992.45973" x="601.0" y="0" /></clipPath><clipPath id="rounded_clip_q35"><rect fill="none" height="100" rx="30" ry="30" stroke="black" stroke-width="2" width="992.45973" x="601.0" y="0" /></clipPath><clipPath id="rounded_clip_q36.1"><rect fill="none" height="100" rx="30" ry="30" stroke="black" stroke-width="2" width="992.45973" x="601.0" y="0" /></clipPath><clipPath id="rounded_clip_q36.2"><rect fill="none" height="100" rx="30" ry="30" stroke="black" stroke-width="2" width="992.45973" x="601.0" y="0" /></clipPath><clipPath id="rounded_clip_q36.3"><rect fill="none" height="100" rx="30" ry="30" stroke="black" stroke-width="2" width="992.45973" x="601.0" y="0" /></clipPath></defs><rect clip-path="url(#rounded_clip_p22.3)" fill="url(#grad_gneg)" height="100" id="p22.3" width="28.0" x="0.0" y="0" /><rect clip-path="url(#rounded_clip_p22.2)" fill="url(#grad_gpos25)" height="100" id="p22.2" width="17.0" x="28.0" y="0" /><rect clip-path="url(#rounded_clip_p22.1)" fill="url(#grad_gneg)" height="100" id="p22.1" width="27.0" x="45.0" y="0" /><rect clip-path="url(#rounded_clip_p21.3)" fill="url(#grad_gpos100)" height="100" id="p21.3" width="65.0" x="72.0" y="0" /><rect clip-path="url(#rounded_clip_p21.2)" fill="url(#grad_gneg)" height="100" id="p21.2" width="28.0" x="137.0" y="0" /><rect clip-path="url(#rounded_clip_p21.1)" fill="url(#grad_gpos100)" height="100" id="p21.1" width="44.0" x="165.0" y="0" /><rect clip-path="url(#rounded_clip_p15.3)" fill="url(#grad_gneg)" height="100" id="p15.3" width="46.0" x="209.0" y="0" /><rect clip-path="url(#rounded_clip_p15.2)" fill="url(#grad_gpos50)" height="100" id="p15.2" width="24.0" x="255.0" y="0" /><rect clip-path="url(#rounded_clip_p15.1)" fill="url(#grad_gneg)" height="100" id="p15.1" width="9.0" x="279.0" y="0" /><rect clip-path="url(#rounded_clip_p14.3)" fill="url(#grad_gpos75)" height="100" id="p14.3" width="61.0" x="288.0" y="0" /><rect clip-path="url(#rounded_clip_p14.2)" fill="url(#grad_gneg)" height="100" id="p14.2" width="22.0" x="349.0" y="0" /><rect clip-path="url(#rounded_clip_p14.1)" fill="url(#grad_gpos75)" height="100" id="p14.1" width="62.0" x="371.0" y="0" /><rect clip-path="url(#rounded_clip_p13)" fill="url(#grad_gneg)" height="100" id="p13" width="21.0" x="433.0" y="0" /><rect clip-path="url(#rounded_clip_p12.3)" fill="url(#grad_gpos75)" height="100" id="p12.3" width="36.0" x="454.0" y="0" /><rect clip-path="url(#rounded_clip_p12.2)" fill="url(#grad_gneg)" height="100" id="p12.2" width="15.0" x="490.0" y="0" /><rect clip-path="url(#rounded_clip_p12.1)" fill="url(#grad_gpos75)" height="100" id="p12.1" width="34.0" x="505.0" y="0" /><rect clip-path="url(#rounded_clip_p11.2)" fill="url(#grad_gneg)" height="100" id="p11.2" width="42.0" x="539.0" y="0" /><rect clip-path="url(#rounded_clip_p11.1)" fill="url(#grad_acen)" height="100" id="p11.1" width="20.0" x="581.0" y="0" /><rect clip-path="url(#rounded_clip_q11.1)" fill="url(#grad_acen)" height="100" id="q11.1" width="20.0" x="601.0" y="0" /><rect clip-path="url(#rounded_clip_q11.21)" fill="url(#grad_gneg)" height="100" id="q11.21" width="54.0" x="621.0" y="0" /><rect clip-path="url(#rounded_clip_q11.22)" fill="url(#grad_gpos50)" height="100" id="q11.22" width="52.0" x="675.0" y="0" /><rect clip-path="url(#rounded_clip_q11.23)" fill="url(#grad_gneg)" height="100" id="q11.23" width="52.0" x="727.0" y="0" /><rect clip-path="url(#rounded_clip_q21.11)" fill="url(#grad_gpos100)" height="100" id="q21.11" width="88.0" x="779.0" y="0" /><rect clip-path="url(#rounded_clip_q21.12)" fill="url(#grad_gneg)" height="100" id="q21.12" width="18.0" x="867.0" y="0" /><rect clip-path="url(#rounded_clip_q21.13)" fill="url(#grad_gpos75)" height="100" id="q21.13" width="30.0" x="885.0" y="0" /><rect clip-path="url(#rounded_clip_q21.2)" fill="url(#grad_gneg)" height="100" id="q21.2" width="18.0" x="915.0" y="0" /><rect clip-path="url(#rounded_clip_q21.3)" fill="url(#grad_gpos75)" height="100" id="q21.3" width="51.0" x="933.0" y="0" /><rect clip-path="url(#rounded_clip_q22.1)" fill="url(#grad_gneg)" height="100" id="q22.1" width="58.0" x="984.0" y="0" /><rect clip-path="url(#rounded_clip_q22.2)" fill="url(#grad_gpos50)" height="100" id="q22.2" width="7.0" x="1042.0" y="0" /><rect clip-path="url(#rounded_clip_q22.3)" fill="url(#grad_gneg)" height="100" id="q22.3" width="29.0" x="1049.0" y="0" /><rect clip-path="url(#rounded_clip_q31.1)" fill="url(#grad_gpos75)" height="100" id="q31.1" width="72.0" x="1078.0" y="0" /><rect clip-path="url(#rounded_clip_q31.2)" fill="url(#grad_gneg)" height="100" id="q31.2" width="27.0" x="1150.0" y="0" /><rect clip-path="url(#rounded_clip_q31.31)" fill="url(#grad_gpos75)" height="100" id="q31.31" width="37.0" x="1177.0" y="0" /><rect clip-path="url(#rounded_clip_q31.32)" fill="url(#grad_gneg)" height="100" id="q31.32" width="27.0" x="1214.0" y="0" /><rect clip-path="url(#rounded_clip_q31.33)" fill="url(#grad_gpos75)" height="100" id="q31.33" width="34.0" x="1241.0" y="0" /><rect clip-path="url(#rounded_clip_q32.1)" fill="url(#grad_gneg)" height="100" id="q32.1" width="21.0" x="1275.0" y="0" /><rect clip-path="url(#rounded_clip_q32.2)" fill="url(#grad_gpos25)" height="100" id="q32.2" width="12.0" x="1296.0" y="0" /><rect clip-path="url(#rounded_clip_q32.3)" fill="url(#grad_gneg)" height="100" id="q32.3" width="21.0" x="1308.0" y="0" /><rect clip-path="url(#rounded_clip_q33)" fill="url(#grad_gpos50)" height="100" id="q33" width="56.0" x="1329.0" y="0" /><rect clip-path="url(#rounded_clip_q34)" fill="url(#grad_gneg)" height="100" id="q34" width="49.0" x="1385.0" y="0" /><rect clip-path="url(#rounded_clip_q35)" fill="url(#grad_gpos75)" height="100" id="q35" width="48.0" x="1434.0" y="0" /><rect clip-path="url(#rounded_clip_q36.1)" fill="url(#grad_gneg)" height="100" id="q36.1" width="46.0" x="1482.0" y="0" /><rect clip-path="url(#rounded_clip_q36.2)" fill="url(#grad_gpos25)" height="100" id="q36.2" width="24.0" x="1528.0" y="0" /><rect clip-path="url(#rounded_clip_q36.3)" fill="url(#grad_gneg)" height="100" id="q36.3" width="41.45973" x="1552.0" y="0" /><rect fill="none" height="100" rx="30" ry="30" stroke="black" stroke-width="2" width="601.0" x="0.0" y="0" /><rect fill="none" height="100" rx="30" ry="30" stroke="black" stroke-width="2" width="992.45973" x="601.0" y="0" /></svg>