<?xml version="1.0" encoding="utf-8" ?>
<svg baseProfile="full" height="100" version="1.1" width="1451.38636" xmlns="http://www.w3.org/2000/svg" xmlns:ev="http://www.w3.org/2001/xml-events" xmlns:xlink="http://www.w3.org/1999/xlink"><defs><linearGradient id="grad_gpos25" x1="0%" x2="0%" y1="0%" y2="100%"><stop offset="0.0" stop-color="#C8C8C8" /><stop offset="0.4" stop-color="#DCDCDC" /><stop offset="0.5" stop-color="#DCDCDC" /><stop offset="0.6" stop-color="#DCDCDC" /><stop offset="1.0" stop-color="#C8C8C8" /></linearGradient><linearGradient id="grad_gpos50" x1="0%" x2="0%" y1="0%" y2="100%"><stop offset="0.0" stop-color="#C8C8C8" /><stop offset="0.4" stop-color="#DCDCDC" /><stop offset="0.5" stop-color="#DCDCDC" /><stop offset="0.6" stop-color="#DCDCDC" /><stop offset="1.0" stop-color="#C8C8C8" /></linearGradient><linearGradient id="grad_gpos75" x1="0%" x2="0%" y1="0%" y2="100%"><stop offset="0.0" stop-color="#828282" /><stop offset="0.4" stop-color="#C6C6C6" /><stop offset="0.5" stop-color="#C6C6C6" /><stop offset="0.6" stop-color="#C6C6C6" /><stop offset="1.0" stop-color="#828282" /></linearGradient><linearGradient id="grad_gpos100" x1="0%" x2="0%" y1="0%" y2="100%"><stop offset="0.0" stop-color="#000000" /><stop offset="0.4" stop-color="#444444" /><stop offset="0.5" stop-color="#444444" /><stop offset="0.6" stop-color="#444444" /><stop offset="1.0" stop-color="#000000" /></linearGradient><linearGradient id="grad_gneg" x1="0%" x2="0%" y1="0%" y2="100%"><stop offset="0.0" stop-color="#FFFFFF" /><stop offset="0.4" stop-color="#FFFFFF" /><stop offset="0.5" stop-color="#FFFFFF" /><stop offset="0.6" stop-color="#FFFFFF" /><stop offset="1.0" stop-color="#FFFFFF" /></linearGradient><linearGradient id="grad_acen" x1="0%" x2="0%" y1="0%" y2="100%"><stop offset="0.0" stop-color="#D92F27" /><stop offset="0.4" stop-color="#F7574F" /><stop offset="0.5" stop-color="#F7574F" /><stop offset="0.6" stop-color="#F7574F" /><stop offset="1.0" stop-color="#D92F27" /></linearGradient><linearGradient id="grad_gvar" x1="0%" x2="0%" y1="0%" y2="100%"><stop offset="0.0" stop-color="#AAAAFF" /><stop offset="0.4" stop-color="#CCCCFF" /><stop offset="0.5" stop-color="#CCCCFF" /><stop offset="0.6" stop-color="#CCCCFF" /><stop offset="1.0" stop-color="#AAAAFF" /></linearGradient><linearGradient id="grad_stalk" x1="0%" x2="0%" y1="0%" y2="100%"><stop offset="0.0" stop-color="#647FA4" /><stop offset="0.4" stop-color="#647FA4" /><stop offset="0.5" stop-color="#647FA4" /><stop offset="0.6" stop-color="#647FA4" /><stop offset="1.0" stop-color="#647FA4" /></linearGradient><clipPath id="rounded_clip_p23.3"><rect fill="none" height="100" rx="30" ry="30" stroke="black" stroke-width="2" width="452.0" x="0.0" y="0" /></clipPath><clipPath id="rounded_clip_p23.2"><rect fill="none" height="100" rx="30" ry="30" stroke="black" stroke-width="2" width="452.0" x="0.0" y="0" /></clipPath><clipPath id="rounded_clip_p23.1"><rect fill="none" height="100" rx="30" ry="30" stroke="black" stroke-width="2" width="452.0" x="0.0" y="0" /></clipPath><clipPath id="rounded_clip_p22"><rect fill="none" height="100" rx="30" ry="30" stroke="black" stroke-width="2" width="452.0" x="0.0" y="0" /></clipPath><clipPath id="rounded_clip_p21.3"><rect fill="none" height="100" rx="30" ry="30" stroke="black" stroke-width="2" width="452.0" x="0.0" y="0" /></clipPath><clipPath id="rounded_clip_p21.2"><rect fill="none" height="100" rx="30" ry="30" stroke="black" stroke-width="2" width="452.0" x="0.0" y="0" /></clipPath><clipPath id="rounded_clip_p21.1"><rect fill="none" height="100" rx="30" ry="30" stroke="black" stroke-width="2" width="452.0" x="0.0" y="0" /></clipPath><clipPath id="rounded_clip_p12"><rect fill="none" height="100" rx="30" ry="30" stroke="black" stroke-width="2" width="452.0" x="0.0" y="0" /></clipPath><clipPath id="rounded_clip_p11.23"><rect fill="none" height="100" rx="30" ry="30" stroke="black" stroke-width="2" width="452.0" x="0.0" y="0" /></clipPath><clipPath id="rounded_clip_p11.22"><rect fill="none" height="100" rx="30" ry="30" stroke="black" stroke-width="2" width="452.0" x="0.0" y="0" /></clipPath><clipPath id="rounded_clip_p11.21"><rect fill="none" height="100" rx="30" ry="30" stroke="black" stroke-width="2" width="452.0" x="0.0" y="0" /></clipPath><clipPath id="rounded_clip_p11.1"><rect fill="none" height="100" rx="30" ry="30" stroke="black" stroke-width="2" width="452.0" x="0.0" y="0" /></clipPath><clipPath id="rounded_clip_q11.1"><rect fill="none" height="100" rx="30" ry="30" stroke="black" stroke-width="2" width="999.38636" x="452.0" y="0" /></clipPath><clipPath id="rounded_clip_q11.21"><rect fill="none" height="100" rx="30" ry="30" stroke="black" stroke-width="2" width="999.38636" x="452.0" y="0" /></clipPath><clipPath id="rounded_clip_q11.22"><rect fill="none" height="100" rx="30" ry="30" stroke="black" stroke-width="2" width="999.38636" x="452.0" y="0" /></clipPath><clipPath id="rounded_clip_q11.23"><rect fill="none" height="100" rx="30" ry="30" stroke="black" stroke-width="2" width="999.38636" x="452.0" y="0" /></clipPath><clipPath id="rounded_clip_q12.1"><rect fill="none" height="100" rx="30" ry="30" stroke="black" stroke-width="2" width="999.38636" x="452.0" y="0" /></clipPath><clipPath id="rounded_clip_q12.2"><rect fill="none" height="100" rx="30" ry="30" stroke="black" stroke-width="2" width="999.38636" x="452.0" y="0" /></clipPath><clipPath id="rounded_clip_q12.3"><rect fill="none" height="100" rx="30" ry="30" stroke="black" stroke-width="2" width="999.38636" x="452.0" y="0" /></clipPath><clipPath id="rounded_clip_q13.1"><rect fill="none" height="100" rx="30" ry="30" stroke="black" stroke-width="2" width="999.38636" x="452.0" y="0" /></clipPath><clipPath id="rounded_clip_q13.2"><rect fill="none" height="100" rx="30" ry="30" stroke="black" stroke-width="2" width="999.38636" x="452.0" y="0" /></clipPath><clipPath id="rounded_clip_q13.3"><rect fill="none" height="100" rx="30" ry="30" stroke="black" stroke-width="2" width="999.38636" x="452.0" y="0" /></clipPath><clipPath id="rounded_clip_q21.11"><rect fill="none" height="100" rx="30" ry="30" stroke="black" stroke-width="2" width="999.38636" x="452.0" y="0" /></clipPath><clipPath id="rounded_clip_q21.12"><rect fill="none" height="100" rx="30" ry="30" stroke="black" stroke-width="2" width="999.38636" x="452.0" y="0" /></clipPath><clipPath id="rounded_clip_q21.13"><rect fill="none" height="100" rx="30" ry="30" stroke="black" stroke-width="2" width="999.38636" x="452.0" y="0" /></clipPath><clipPath id="rounded_clip_q21.2"><rect fill="none" height="100" rx="30" ry="30" stroke="black" stroke-width="2" width="999.38636" x="452.0" y="0" /></clipPath><clipPath id="rounded_clip_q21.3"><rect fill="none" height="100" rx="30" ry="30" stroke="black" stroke-width="2" width="999.38636" x="452.0" y="0" /></clipPath><clipPath id="rounded_clip_q22.1"><rect fill="none" height="100" rx="30" ry="30" stroke="black" stroke-width="2" width="999.38636" x="452.0" y="0" /></clipPath><clipPath id="rounded_clip_q22.2"><rect fill="none" height="100" rx="30" ry="30" stroke="black" stroke-width="2" width="999.38636" x="452.0" y="0" /></clipPath><clipPath id="rounded_clip_q22.3"><rect fill="none" height="100" rx="30" ry="30" stroke="black" stroke-width="2" width="999.38636" x="452.0" y="0" /></clipPath><clipPath id="rounded_clip_q23.1"><rect fill="none" height="100" rx="30" ry="30" stroke="black" stroke-width="2" width="999.38636" x="452.0" y="0" /></clipPath><clipPath id="rounded_clip_q23.2"><rect fill="none" height="100" rx="30" ry="30" stroke="black" stroke-width="2" width="999.38636" x="452.0" y="0" /></clipPath><clipPath id="rounded_clip_q23.3"><rect fill="none" height="100" rx="30" ry="30" stroke="black" stroke-width="2" width="999.38636" x="452.0" y="0" /></clipPath><clipPath id="rounded_clip_q24.11"><rect fill="none" height="100" rx="30" ry="30" stroke="black" stroke-width="2" width="999.38636" x="452.0" y="0" /></clipPath><clipPath id="rounded_clip_q24.12"><rect fill="none" height="100" rx="30" ry="30" stroke="black" stroke-width="2" width="999.38636" x="452.0" y="0" /></clipPath><clipPath id="rounded_clip_q24.13"><rect fill="none" height="100" rx="30" ry="30" stroke="black" stroke-width="2" width="999.38636" x="452.0" y="0" /></clipPath><clipPath id="rounded_clip_q24.21"><rect fill="none" height="100" rx="30" ry="30" stroke="black" stroke-width="2" width="999.38636" x="452.0" y="0" /></clipPath><clipPath id="rounded_clip_q24.22"><rect fill="none" height="100" rx="30" ry="30" stroke="black" stroke-width="2" width="999.38636" x="452.0" y="0" /></clipPath><clipPath id="rounded_clip_q24.23"><rect fill="none" height="100" rx="30" ry="30" stroke="black" stroke-width="2" width="999.38636" x="452.0" y="0" /></clipPath><clipPath id="rounded_clip_q24.3"><rect fill="none" height="100" rx="30" ry="30" stroke="black" stroke-width="2" width="999.38636" x="452.0" y="0" /></clipPath></defs><rect clip-path="url(#rounded_clip_p23.3)" fill="url(#grad_gneg)" height="100" id="p23.3" width="23.0" x="0.0" y="0" /><rect clip-path="url(#rounded_clip_p23.2)" fill="url(#grad_gpos75)" height="100" id="p23.2" width="40.0" x="23.0" y="0" /><rect clip-path="url(#rounded_clip_p23.1)" fill="url(#grad_gneg)" height="100" id="p23.1" width="65.0" x="63.0" y="0" /><rect clip-path="url(#rounded_clip_p22)" fill="url(#grad_gpos100)" height="100" id="p22" width="64.0" x="128.0" y="0" /><rect clip-path="url(#rounded_clip_p21.3)" fill="url(#grad_gneg)" height="100" id="p21.3" width="43.0" x="192.0" y="0" /><rect clip-path="url(#rounded_clip_p21.2)" fill="url(#grad_gpos50)" height="100" id="p21.2" width="40.0" x="235.0" y="0" /><rect clip-path="url(#rounded_clip_p21.1)" fill="url(#grad_gneg)" height="100" id="p21.1" width="15.0" x="275.0" y="0" /><rect clip-path="url(#rounded_clip_p12)" fill="url(#grad_gpos75)" height="100" id="p12" width="77.0" x="290.0" y="0" /><rect clip-path="url(#rounded_clip_p11.23)" fill="url(#grad_gneg)" height="100" id="p11.23" width="18.0" x="367.0" y="0" /><rect clip-path="url(#rounded_clip_p11.22)" fill="url(#grad_gpos25)" height="100" id="p11.22" width="14.0" x="385.0" y="0" /><rect clip-path="url(#rounded_clip_p11.21)" fill="url(#grad_gneg)" height="100" id="p11.21" width="33.0" x="399.0" y="0" /><rect clip-path="url(#rounded_clip_p11.1)" fill="url(#grad_acen)" height="100" id="p11.1" width="20.0" x="432.0" y="0" /><rect clip-path="url(#rounded_clip_q11.1)" fill="url(#grad_acen)" height="100" id="q11.1" width="20.0" x="452.0" y="0" /><rect clip-path="url(#rounded_clip_q11.21)" fill="url(#grad_gneg)" height="100" id="q11.21" width="41.0" x="472.0" y="0" /><rect clip-path="url(#rounded_clip_q11.22)" fill="url(#grad_gpos75)" height="100" id="q11.22" width="4.0" x="513.0" y="0" /><rect clip-path="url(#rounded_clip_q11.23)" fill="url(#grad_gneg)" height="100" id="q11.23" width="29.0" x="517.0" y="0" /><rect clip-path="url(#rounded_clip_q12.1)" fill="url(#grad_gpos50)" height="100" id="q12.1" width="60.0" x="546.0" y="0" /><rect clip-path="url(#rounded_clip_q12.2)" fill="url(#grad_gneg)" height="100" id="q12.2" width="7.0" x="606.0" y="0" /><rect clip-path="url(#rounded_clip_q12.3)" fill="url(#grad_gpos50)" height="100" id="q12.3" width="38.0" x="613.0" y="0" /><rect clip-path="url(#rounded_clip_q13.1)" fill="url(#grad_gneg)" height="100" id="q13.1" width="20.0" x="651.0" y="0" /><rect clip-path="url(#rounded_clip_q13.2)" fill="url(#grad_gpos50)" height="100" id="q13.2" width="25.0" x="671.0" y="0" /><rect clip-path="url(#rounded_clip_q13.3)" fill="url(#grad_gneg)" height="100" id="q13.3" width="24.0" x="696.0" y="0" /><rect clip-path="url(#rounded_clip_q21.11)" fill="url(#grad_gpos100)" height="100" id="q21.11" width="26.0" x="720.0" y="0" /><rect clip-path="url(#rounded_clip_q21.12)" fill="url(#grad_gneg)" height="100" id="q21.12" width="1.0" x="746.0" y="0" /><rect clip-path="url(#rounded_clip_q21.13)" fill="url(#grad_gpos75)" height="100" id="q21.13" width="88.0" x="747.0" y="0" /><rect clip-path="url(#rounded_clip_q21.2)" fill="url(#grad_gneg)" height="100" id="q21.2" width="24.0" x="835.0" y="0" /><rect clip-path="url(#rounded_clip_q21.3)" fill="url(#grad_gpos100)" height="100" id="q21.3" width="64.0" x="859.0" y="0" /><rect clip-path="url(#rounded_clip_q22.1)" fill="url(#grad_gneg)" height="100" id="q22.1" width="56.0" x="923.0" y="0" /><rect clip-path="url(#rounded_clip_q22.2)" fill="url(#grad_gpos25)" height="100" id="q22.2" width="26.0" x="979.0" y="0" /><rect clip-path="url(#rounded_clip_q22.3)" fill="url(#grad_gneg)" height="100" id="q22.3" width="46.0" x="1005.0" y="0" /><rect clip-path="url(#rounded_clip_q23.1)" fill="url(#grad_gpos75)" height="100" id="q23.1" width="44.0" x="1051.0" y="0" /><rect clip-path="url(#rounded_clip_q23.2)" fill="url(#grad_gneg)" height="100" id="q23.2" width="16.0" x="1095.0" y="0" /><rect clip-path="url(#rounded_clip_q23.3)" fill="url(#grad_gpos100)" height="100" id="q23.3" width="56.0" x="1111.0" y="0" /><rect clip-path="url(#rounded_clip_q24.11)" fill="url(#grad_gneg)" height="100" id="q24.11" width="16.0" x="1167.0" y="0" /><rect clip-path="url(#rounded_clip_q24.12)" fill="url(#grad_gpos50)" height="100" id="q24.12" width="32.0" x="1183.0" y="0" /><rect clip-path="url(#rounded_clip_q24.13)" fill="url(#grad_gneg)" height="100" id="q24.13" width="48.0" x="1215.0" y="0" /><rect clip-path="url(#rounded_clip_q24.21)" fill="url(#grad_gpos50)" height="100" id="q24.21" width="41.0" x="1263.0" y="0" /><rect clip-path="url(#rounded_clip_q24.22)" fill="url(#grad_gneg)" height="100" id="q24.22" width="50.0" x="1304.0" y="0" /><rect clip-path="url(#rounded_clip_q24.23)" fill="url(#grad_gpos75)" height="100" id="q24.23" width="35.0" x="1354.0" y="0" /><rect clip-path="url(#rounded_clip_q24.3)" fill="url(#grad_gneg)" height="100" id="q24.3" width="62.38636" x="1389.0" y="0" /><rect fill="none" height="100" rx="30" ry="30" stroke="black" stroke-width="2" width="452.0" x="0.0" y="0" /><rect fill="none" height="100" rx="30" ry="30" stroke="black" stroke-width="2" width="999.38636" x="452.0" y="0" /></svg>