<?xml version="1.0" encoding="utf-8" ?>
<svg baseProfile="full" height="100" version="1.1" width="1383.94717" xmlns="http://www.w3.org/2000/svg" xmlns:ev="http://www.w3.org/2001/xml-events" xmlns:xlink="http://www.w3.org/1999/xlink"><defs><linearGradient id="grad_gpos25" x1="0%" x2="0%" y1="0%" y2="100%"><stop offset="0.0" stop-color="#C8C8C8" /><stop offset="0.4" stop-color="#DCDCDC" /><stop offset="0.5" stop-color="#DCDCDC" /><stop offset="0.6" stop-color="#DCDCDC" /><stop offset="1.0" stop-color="#C8C8C8" /></linearGradient><linearGradient id="grad_gpos50" x1="0%" x2="0%" y1="0%" y2="100%"><stop offset="0.0" stop-color="#C8C8C8" /><stop offset="0.4" stop-color="#DCDCDC" /><stop offset="0.5" stop-color="#DCDCDC" /><stop offset="0.6" stop-color="#DCDCDC" /><stop offset="1.0" stop-color="#C8C8C8" /></linearGradient><linearGradient id="grad_gpos75" x1="0%" x2="0%" y1="0%" y2="100%"><stop offset="0.0" stop-color="#828282" /><stop offset="0.4" stop-color="#C6C6C6" /><stop offset="0.5" stop-color="#C6C6C6" /><stop offset="0.6" stop-color="#C6C6C6" /><stop offset="1.0" stop-color="#828282" /></linearGradient><linearGradient id="grad_gpos100" x1="0%" x2="0%" y1="0%" y2="100%"><stop offset="0.0" stop-color="#000000" /><stop offset="0.4" stop-color="#444444" /><stop offset="0.5" stop-color="#444444" /><stop offset="0.6" stop-color="#444444" /><stop offset="1.0" stop-color="#000000" /></linearGradient><linearGradient id="grad_gneg" x1="0%" x2="0%" y1="0%" y2="100%"><stop offset="0.0" stop-color="#FFFFFF" /><stop offset="0.4" stop-color="#FFFFFF" /><stop offset="0.5" stop-color="#FFFFFF" /><stop offset="0.6" stop-color="#FFFFFF" /><stop offset="1.0" stop-color="#FFFFFF" /></linearGradient><linearGradient id="grad_acen" x1="0%" x2="0%" y1="0%" y2="100%"><stop offset="0.0" stop-color="#D92F27" /><stop offset="0.4" stop-color="#F7574F" /><stop offset="0.5" stop-color="#F7574F" /><stop offset="0.6" stop-color="#F7574F" /><stop offset="1.0" stop-color="#D92F27" /></linearGradient><linearGradient id="grad_gvar" x1="0%" x2="0%" y1="0%" y2="100%"><stop offset="0.0" stop-color="#AAAAFF" /><stop offset="0.4" stop-color="#CCCCFF" /><stop offset="0.5" stop-color="#CCCCFF" /><stop offset="0.6" stop-color="#CCCCFF" /><stop offset="1.0" stop-color="#AAAAFF" /></linearGradient><linearGradient id="grad_stalk" x1="0%" x2="0%" y1="0%" y2="100%"><stop offset="0.0" stop-color="#647FA4" /><stop offset="0.4" stop-color="#647FA4" /><stop offset="0.5" stop-color="#647FA4" /><stop offset="0.6" stop-color="#647FA4" /><stop offset="1.0" stop-color="#647FA4" /></linearGradient><clipPath id="rounded_clip_p24.3"><rect fill="none" height="100" rx="30" ry="30" stroke="black" stroke-width="2" width="430.0" x="0.0" y="0" /></clipPath><clipPath id="rounded_clip_p24.2"><rect fill="none" height="100" rx="30" ry="30" stroke="black" stroke-width="2" width="430.0" x="0.0" y="0" /></clipPath><clipPath id="rounded_clip_p24.1"><rect fill="none" height="100" rx="30" ry="30" stroke="black" stroke-width="2" width="430.0" x="0.0" y="0" /></clipPath><clipPath id="rounded_clip_p23"><rect fill="none" height="100" rx="30" ry="30" stroke="black" stroke-width="2" width="430.0" x="0.0" y="0" /></clipPath><clipPath id="rounded_clip_p22.3"><rect fill="none" height="100" rx="30" ry="30" stroke="black" stroke-width="2" width="430.0" x="0.0" y="0" /></clipPath><clipPath id="rounded_clip_p22.2"><rect fill="none" height="100" rx="30" ry="30" stroke="black" stroke-width="2" width="430.0" x="0.0" y="0" /></clipPath><clipPath id="rounded_clip_p22.1"><rect fill="none" height="100" rx="30" ry="30" stroke="black" stroke-width="2" width="430.0" x="0.0" y="0" /></clipPath><clipPath id="rounded_clip_p21.3"><rect fill="none" height="100" rx="30" ry="30" stroke="black" stroke-width="2" width="430.0" x="0.0" y="0" /></clipPath><clipPath id="rounded_clip_p21.2"><rect fill="none" height="100" rx="30" ry="30" stroke="black" stroke-width="2" width="430.0" x="0.0" y="0" /></clipPath><clipPath id="rounded_clip_p21.1"><rect fill="none" height="100" rx="30" ry="30" stroke="black" stroke-width="2" width="430.0" x="0.0" y="0" /></clipPath><clipPath id="rounded_clip_p13.3"><rect fill="none" height="100" rx="30" ry="30" stroke="black" stroke-width="2" width="430.0" x="0.0" y="0" /></clipPath><clipPath id="rounded_clip_p13.2"><rect fill="none" height="100" rx="30" ry="30" stroke="black" stroke-width="2" width="430.0" x="0.0" y="0" /></clipPath><clipPath id="rounded_clip_p13.1"><rect fill="none" height="100" rx="30" ry="30" stroke="black" stroke-width="2" width="430.0" x="0.0" y="0" /></clipPath><clipPath id="rounded_clip_p12"><rect fill="none" height="100" rx="30" ry="30" stroke="black" stroke-width="2" width="430.0" x="0.0" y="0" /></clipPath><clipPath id="rounded_clip_p11.2"><rect fill="none" height="100" rx="30" ry="30" stroke="black" stroke-width="2" width="430.0" x="0.0" y="0" /></clipPath><clipPath id="rounded_clip_p11.1"><rect fill="none" height="100" rx="30" ry="30" stroke="black" stroke-width="2" width="430.0" x="0.0" y="0" /></clipPath><clipPath id="rounded_clip_q11"><rect fill="none" height="100" rx="30" ry="30" stroke="black" stroke-width="2" width="953.94717" x="430.0" y="0" /></clipPath><clipPath id="rounded_clip_q12"><rect fill="none" height="100" rx="30" ry="30" stroke="black" stroke-width="2" width="953.94717" x="430.0" y="0" /></clipPath><clipPath id="rounded_clip_q13"><rect fill="none" height="100" rx="30" ry="30" stroke="black" stroke-width="2" width="953.94717" x="430.0" y="0" /></clipPath><clipPath id="rounded_clip_q21.11"><rect fill="none" height="100" rx="30" ry="30" stroke="black" stroke-width="2" width="953.94717" x="430.0" y="0" /></clipPath><clipPath id="rounded_clip_q21.12"><rect fill="none" height="100" rx="30" ry="30" stroke="black" stroke-width="2" width="953.94717" x="430.0" y="0" /></clipPath><clipPath id="rounded_clip_q21.13"><rect fill="none" height="100" rx="30" ry="30" stroke="black" stroke-width="2" width="953.94717" x="430.0" y="0" /></clipPath><clipPath id="rounded_clip_q21.2"><rect fill="none" height="100" rx="30" ry="30" stroke="black" stroke-width="2" width="953.94717" x="430.0" y="0" /></clipPath><clipPath id="rounded_clip_q21.31"><rect fill="none" height="100" rx="30" ry="30" stroke="black" stroke-width="2" width="953.94717" x="430.0" y="0" /></clipPath><clipPath id="rounded_clip_q21.32"><rect fill="none" height="100" rx="30" ry="30" stroke="black" stroke-width="2" width="953.94717" x="430.0" y="0" /></clipPath><clipPath id="rounded_clip_q21.33"><rect fill="none" height="100" rx="30" ry="30" stroke="black" stroke-width="2" width="953.94717" x="430.0" y="0" /></clipPath><clipPath id="rounded_clip_q22.1"><rect fill="none" height="100" rx="30" ry="30" stroke="black" stroke-width="2" width="953.94717" x="430.0" y="0" /></clipPath><clipPath id="rounded_clip_q22.2"><rect fill="none" height="100" rx="30" ry="30" stroke="black" stroke-width="2" width="953.94717" x="430.0" y="0" /></clipPath><clipPath id="rounded_clip_q22.31"><rect fill="none" height="100" rx="30" ry="30" stroke="black" stroke-width="2" width="953.94717" x="430.0" y="0" /></clipPath><clipPath id="rounded_clip_q22.32"><rect fill="none" height="100" rx="30" ry="30" stroke="black" stroke-width="2" width="953.94717" x="430.0" y="0" /></clipPath><clipPath id="rounded_clip_q22.33"><rect fill="none" height="100" rx="30" ry="30" stroke="black" stroke-width="2" width="953.94717" x="430.0" y="0" /></clipPath><clipPath id="rounded_clip_q31.1"><rect fill="none" height="100" rx="30" ry="30" stroke="black" stroke-width="2" width="953.94717" x="430.0" y="0" /></clipPath><clipPath id="rounded_clip_q31.2"><rect fill="none" height="100" rx="30" ry="30" stroke="black" stroke-width="2" width="953.94717" x="430.0" y="0" /></clipPath><clipPath id="rounded_clip_q31.3"><rect fill="none" height="100" rx="30" ry="30" stroke="black" stroke-width="2" width="953.94717" x="430.0" y="0" /></clipPath><clipPath id="rounded_clip_q32"><rect fill="none" height="100" rx="30" ry="30" stroke="black" stroke-width="2" width="953.94717" x="430.0" y="0" /></clipPath><clipPath id="rounded_clip_q33.1"><rect fill="none" height="100" rx="30" ry="30" stroke="black" stroke-width="2" width="953.94717" x="430.0" y="0" /></clipPath><clipPath id="rounded_clip_q33.2"><rect fill="none" height="100" rx="30" ry="30" stroke="black" stroke-width="2" width="953.94717" x="430.0" y="0" /></clipPath><clipPath id="rounded_clip_q33.3"><rect fill="none" height="100" rx="30" ry="30" stroke="black" stroke-width="2" width="953.94717" x="430.0" y="0" /></clipPath><clipPath id="rounded_clip_q34.11"><rect fill="none" height="100" rx="30" ry="30" stroke="black" stroke-width="2" width="953.94717" x="430.0" y="0" /></clipPath><clipPath id="rounded_clip_q34.12"><rect fill="none" height="100" rx="30" ry="30" stroke="black" stroke-width="2" width="953.94717" x="430.0" y="0" /></clipPath><clipPath id="rounded_clip_q34.13"><rect fill="none" height="100" rx="30" ry="30" stroke="black" stroke-width="2" width="953.94717" x="430.0" y="0" /></clipPath><clipPath id="rounded_clip_q34.2"><rect fill="none" height="100" rx="30" ry="30" stroke="black" stroke-width="2" width="953.94717" x="430.0" y="0" /></clipPath><clipPath id="rounded_clip_q34.3"><rect fill="none" height="100" rx="30" ry="30" stroke="black" stroke-width="2" width="953.94717" x="430.0" y="0" /></clipPath></defs><rect clip-path="url(#rounded_clip_p24.3)" fill="url(#grad_gneg)" height="100" id="p24.3" width="22.0" x="0.0" y="0" /><rect clip-path="url(#rounded_clip_p24.2)" fill="url(#grad_gpos25)" height="100" id="p24.2" width="24.0" x="22.0" y="0" /><rect clip-path="url(#rounded_clip_p24.1)" fill="url(#grad_gneg)" height="100" id="p24.1" width="44.0" x="46.0" y="0" /><rect clip-path="url(#rounded_clip_p23)" fill="url(#grad_gpos75)" height="100" id="p23" width="52.0" x="90.0" y="0" /><rect clip-path="url(#rounded_clip_p22.3)" fill="url(#grad_gneg)" height="100" id="p22.3" width="24.0" x="142.0" y="0" /><rect clip-path="url(#rounded_clip_p22.2)" fill="url(#grad_gpos25)" height="100" id="p22.2" width="19.0" x="166.0" y="0" /><rect clip-path="url(#rounded_clip_p22.1)" fill="url(#grad_gneg)" height="100" id="p22.1" width="14.0" x="185.0" y="0" /><rect clip-path="url(#rounded_clip_p21.3)" fill="url(#grad_gpos100)" height="100" id="p21.3" width="57.0" x="199.0" y="0" /><rect clip-path="url(#rounded_clip_p21.2)" fill="url(#grad_gneg)" height="100" id="p21.2" width="24.0" x="256.0" y="0" /><rect clip-path="url(#rounded_clip_p21.1)" fill="url(#grad_gpos100)" height="100" id="p21.1" width="52.0" x="280.0" y="0" /><rect clip-path="url(#rounded_clip_p13.3)" fill="url(#grad_gneg)" height="100" id="p13.3" width="31.0" x="332.0" y="0" /><rect clip-path="url(#rounded_clip_p13.2)" fill="url(#grad_gpos25)" height="100" id="p13.2" width="16.0" x="363.0" y="0" /><rect clip-path="url(#rounded_clip_p13.1)" fill="url(#grad_gneg)" height="100" id="p13.1" width="11.0" x="379.0" y="0" /><rect clip-path="url(#rounded_clip_p12)" fill="url(#grad_gpos50)" height="100" id="p12" width="10.0" x="390.0" y="0" /><rect clip-path="url(#rounded_clip_p11.2)" fill="url(#grad_gneg)" height="100" id="p11.2" width="22.0" x="400.0" y="0" /><rect clip-path="url(#rounded_clip_p11.1)" fill="url(#grad_acen)" height="100" id="p11.1" width="8.0" x="422.0" y="0" /><rect clip-path="url(#rounded_clip_q11)" fill="url(#grad_acen)" height="100" id="q11" width="25.0" x="430.0" y="0" /><rect clip-path="url(#rounded_clip_q12)" fill="url(#grad_gvar)" height="100" id="q12" width="160.0" x="455.0" y="0" /><rect clip-path="url(#rounded_clip_q13)" fill="url(#grad_gneg)" height="100" id="q13" width="35.0" x="615.0" y="0" /><rect clip-path="url(#rounded_clip_q21.11)" fill="url(#grad_gpos25)" height="100" id="q21.11" width="43.0" x="650.0" y="0" /><rect clip-path="url(#rounded_clip_q21.12)" fill="url(#grad_gneg)" height="100" id="q21.12" width="20.0" x="693.0" y="0" /><rect clip-path="url(#rounded_clip_q21.13)" fill="url(#grad_gpos50)" height="100" id="q21.13" width="53.0" x="713.0" y="0" /><rect clip-path="url(#rounded_clip_q21.2)" fill="url(#grad_gneg)" height="100" id="q21.2" width="19.0" x="766.0" y="0" /><rect clip-path="url(#rounded_clip_q21.31)" fill="url(#grad_gpos50)" height="100" id="q21.31" width="30.0" x="785.0" y="0" /><rect clip-path="url(#rounded_clip_q21.32)" fill="url(#grad_gneg)" height="100" id="q21.32" width="28.0" x="815.0" y="0" /><rect clip-path="url(#rounded_clip_q21.33)" fill="url(#grad_gpos50)" height="100" id="q21.33" width="35.0" x="843.0" y="0" /><rect clip-path="url(#rounded_clip_q22.1)" fill="url(#grad_gneg)" height="100" id="q22.1" width="14.0" x="878.0" y="0" /><rect clip-path="url(#rounded_clip_q22.2)" fill="url(#grad_gpos25)" height="100" id="q22.2" width="20.0" x="892.0" y="0" /><rect clip-path="url(#rounded_clip_q22.31)" fill="url(#grad_gneg)" height="100" id="q22.31" width="27.0" x="912.0" y="0" /><rect clip-path="url(#rounded_clip_q22.32)" fill="url(#grad_gpos25)" height="100" id="q22.32" width="26.0" x="939.0" y="0" /><rect clip-path="url(#rounded_clip_q22.33)" fill="url(#grad_gneg)" height="100" id="q22.33" width="33.0" x="965.0" y="0" /><rect clip-path="url(#rounded_clip_q31.1)" fill="url(#grad_gpos100)" height="100" id="q31.1" width="56.0" x="998.0" y="0" /><rect clip-path="url(#rounded_clip_q31.2)" fill="url(#grad_gneg)" height="100" id="q31.2" width="31.0" x="1054.0" y="0" /><rect clip-path="url(#rounded_clip_q31.3)" fill="url(#grad_gpos25)" height="100" id="q31.3" width="36.0" x="1085.0" y="0" /><rect clip-path="url(#rounded_clip_q32)" fill="url(#grad_gneg)" height="100" id="q32" width="28.0" x="1121.0" y="0" /><rect clip-path="url(#rounded_clip_q33.1)" fill="url(#grad_gpos75)" height="100" id="q33.1" width="49.0" x="1149.0" y="0" /><rect clip-path="url(#rounded_clip_q33.2)" fill="url(#grad_gneg)" height="100" id="q33.2" width="33.0" x="1198.0" y="0" /><rect clip-path="url(#rounded_clip_q33.3)" fill="url(#grad_gpos25)" height="100" id="q33.3" width="44.0" x="1231.0" y="0" /><rect clip-path="url(#rounded_clip_q34.11)" fill="url(#grad_gneg)" height="100" id="q34.11" width="31.0" x="1275.0" y="0" /><rect clip-path="url(#rounded_clip_q34.12)" fill="url(#grad_gpos25)" height="100" id="q34.12" width="5.0" x="1306.0" y="0" /><rect clip-path="url(#rounded_clip_q34.13)" fill="url(#grad_gneg)" height="100" id="q34.13" width="20.0" x="1311.0" y="0" /><rect clip-path="url(#rounded_clip_q34.2)" fill="url(#grad_gpos25)" height="100" id="q34.2" width="14.0" x="1331.0" y="0" /><rect clip-path="url(#rounded_clip_q34.3)" fill="url(#grad_gneg)" height="100" id="q34.3" width="38.94717" x="1345.0" y="0" /><rect fill="none" height="100" rx="30" ry="30" stroke="black" stroke-width="2" width="430.0" x="0.0" y="0" /><rect fill="none" height="100" rx="30" ry="30" stroke="black" stroke-width="2" width="953.94717" x="430.0" y="0" /></svg>