<?xml version="1.0" encoding="utf-8" ?>
<svg baseProfile="full" height="100" version="1.1" width="1560.40895" xmlns="http://www.w3.org/2000/svg" xmlns:ev="http://www.w3.org/2001/xml-events" xmlns:xlink="http://www.w3.org/1999/xlink"><defs><linearGradient id="grad_gpos25" x1="0%" x2="0%" y1="0%" y2="100%"><stop offset="0.0" stop-color="#C8C8C8" /><stop offset="0.4" stop-color="#DCDCDC" /><stop offset="0.5" stop-color="#DCDCDC" /><stop offset="0.6" stop-color="#DCDCDC" /><stop offset="1.0" stop-color="#C8C8C8" /></linearGradient><linearGradient id="grad_gpos50" x1="0%" x2="0%" y1="0%" y2="100%"><stop offset="0.0" stop-color="#C8C8C8" /><stop offset="0.4" stop-color="#DCDCDC" /><stop offset="0.5" stop-color="#DCDCDC" /><stop offset="0.6" stop-color="#DCDCDC" /><stop offset="1.0" stop-color="#C8C8C8" /></linearGradient><linearGradient id="grad_gpos75" x1="0%" x2="0%" y1="0%" y2="100%"><stop offset="0.0" stop-color="#828282" /><stop offset="0.4" stop-color="#C6C6C6" /><stop offset="0.5" stop-color="#C6C6C6" /><stop offset="0.6" stop-color="#C6C6C6" /><stop offset="1.0" stop-color="#828282" /></linearGradient><linearGradient id="grad_gpos100" x1="0%" x2="0%" y1="0%" y2="100%"><stop offset="0.0" stop-color="#000000" /><stop offset="0.4" stop-color="#444444" /><stop offset="0.5" stop-color="#444444" /><stop offset="0.6" stop-color="#444444" /><stop offset="1.0" stop-color="#000000" /></linearGradient><linearGradient id="grad_gneg" x1="0%" x2="0%" y1="0%" y2="100%"><stop offset="0.0" stop-color="#FFFFFF" /><stop offset="0.4" stop-color="#FFFFFF" /><stop offset="0.5" stop-color="#FFFFFF" /><stop offset="0.6" stop-color="#FFFFFF" /><stop offset="1.0" stop-color="#FFFFFF" /></linearGradient><linearGradient id="grad_acen" x1="0%" x2="0%" y1="0%" y2="100%"><stop offset="0.0" stop-color="#D92F27" /><stop offset="0.4" stop-color="#F7574F" /><stop offset="0.5" stop-color="#F7574F" /><stop offset="0.6" stop-color="#F7574F" /><stop offset="1.0" stop-color="#D92F27" /></linearGradient><linearGradient id="grad_gvar" x1="0%" x2="0%" y1="0%" y2="100%"><stop offset="0.0" stop-color="#AAAAFF" /><stop offset="0.4" stop-color="#CCCCFF" /><stop offset="0.5" stop-color="#CCCCFF" /><stop offset="0.6" stop-color="#CCCCFF" /><stop offset="1.0" stop-color="#AAAAFF" /></linearGradient><linearGradient id="grad_stalk" x1="0%" x2="0%" y1="0%" y2="100%"><stop offset="0.0" stop-color="#647FA4" /><stop offset="0.4" stop-color="#647FA4" /><stop offset="0.5" stop-color="#647FA4" /><stop offset="0.6" stop-color="#647FA4" /><stop offset="1.0" stop-color="#647FA4" /></linearGradient><clipPath id="rounded_clip_p22.33"><rect fill="none" height="100" rx="30" ry="30" stroke="black" stroke-width="2" width="610.0" x="0.0" y="0" /></clipPath><clipPath id="rounded_clip_p22.32"><rect fill="none" height="100" rx="30" ry="30" stroke="black" stroke-width="2" width="610.0" x="0.0" y="0" /></clipPath><clipPath id="rounded_clip_p22.31"><rect fill="none" height="100" rx="30" ry="30" stroke="black" stroke-width="2" width="610.0" x="0.0" y="0" /></clipPath><clipPath id="rounded_clip_p22.2"><rect fill="none" height="100" rx="30" ry="30" stroke="black" stroke-width="2" width="610.0" x="0.0" y="0" /></clipPath><clipPath id="rounded_clip_p22.13"><rect fill="none" height="100" rx="30" ry="30" stroke="black" stroke-width="2" width="610.0" x="0.0" y="0" /></clipPath><clipPath id="rounded_clip_p22.12"><rect fill="none" height="100" rx="30" ry="30" stroke="black" stroke-width="2" width="610.0" x="0.0" y="0" /></clipPath><clipPath id="rounded_clip_p22.11"><rect fill="none" height="100" rx="30" ry="30" stroke="black" stroke-width="2" width="610.0" x="0.0" y="0" /></clipPath><clipPath id="rounded_clip_p21.3"><rect fill="none" height="100" rx="30" ry="30" stroke="black" stroke-width="2" width="610.0" x="0.0" y="0" /></clipPath><clipPath id="rounded_clip_p21.2"><rect fill="none" height="100" rx="30" ry="30" stroke="black" stroke-width="2" width="610.0" x="0.0" y="0" /></clipPath><clipPath id="rounded_clip_p21.1"><rect fill="none" height="100" rx="30" ry="30" stroke="black" stroke-width="2" width="610.0" x="0.0" y="0" /></clipPath><clipPath id="rounded_clip_p11.4"><rect fill="none" height="100" rx="30" ry="30" stroke="black" stroke-width="2" width="610.0" x="0.0" y="0" /></clipPath><clipPath id="rounded_clip_p11.3"><rect fill="none" height="100" rx="30" ry="30" stroke="black" stroke-width="2" width="610.0" x="0.0" y="0" /></clipPath><clipPath id="rounded_clip_p11.23"><rect fill="none" height="100" rx="30" ry="30" stroke="black" stroke-width="2" width="610.0" x="0.0" y="0" /></clipPath><clipPath id="rounded_clip_p11.22"><rect fill="none" height="100" rx="30" ry="30" stroke="black" stroke-width="2" width="610.0" x="0.0" y="0" /></clipPath><clipPath id="rounded_clip_p11.21"><rect fill="none" height="100" rx="30" ry="30" stroke="black" stroke-width="2" width="610.0" x="0.0" y="0" /></clipPath><clipPath id="rounded_clip_p11.1"><rect fill="none" height="100" rx="30" ry="30" stroke="black" stroke-width="2" width="610.0" x="0.0" y="0" /></clipPath><clipPath id="rounded_clip_q11.1"><rect fill="none" height="100" rx="30" ry="30" stroke="black" stroke-width="2" width="950.40895" x="610.0" y="0" /></clipPath><clipPath id="rounded_clip_q11.2"><rect fill="none" height="100" rx="30" ry="30" stroke="black" stroke-width="2" width="950.40895" x="610.0" y="0" /></clipPath><clipPath id="rounded_clip_q12"><rect fill="none" height="100" rx="30" ry="30" stroke="black" stroke-width="2" width="950.40895" x="610.0" y="0" /></clipPath><clipPath id="rounded_clip_q13.1"><rect fill="none" height="100" rx="30" ry="30" stroke="black" stroke-width="2" width="950.40895" x="610.0" y="0" /></clipPath><clipPath id="rounded_clip_q13.2"><rect fill="none" height="100" rx="30" ry="30" stroke="black" stroke-width="2" width="950.40895" x="610.0" y="0" /></clipPath><clipPath id="rounded_clip_q13.3"><rect fill="none" height="100" rx="30" ry="30" stroke="black" stroke-width="2" width="950.40895" x="610.0" y="0" /></clipPath><clipPath id="rounded_clip_q21.1"><rect fill="none" height="100" rx="30" ry="30" stroke="black" stroke-width="2" width="950.40895" x="610.0" y="0" /></clipPath><clipPath id="rounded_clip_q21.2"><rect fill="none" height="100" rx="30" ry="30" stroke="black" stroke-width="2" width="950.40895" x="610.0" y="0" /></clipPath><clipPath id="rounded_clip_q21.31"><rect fill="none" height="100" rx="30" ry="30" stroke="black" stroke-width="2" width="950.40895" x="610.0" y="0" /></clipPath><clipPath id="rounded_clip_q21.32"><rect fill="none" height="100" rx="30" ry="30" stroke="black" stroke-width="2" width="950.40895" x="610.0" y="0" /></clipPath><clipPath id="rounded_clip_q21.33"><rect fill="none" height="100" rx="30" ry="30" stroke="black" stroke-width="2" width="950.40895" x="610.0" y="0" /></clipPath><clipPath id="rounded_clip_q22.1"><rect fill="none" height="100" rx="30" ry="30" stroke="black" stroke-width="2" width="950.40895" x="610.0" y="0" /></clipPath><clipPath id="rounded_clip_q22.2"><rect fill="none" height="100" rx="30" ry="30" stroke="black" stroke-width="2" width="950.40895" x="610.0" y="0" /></clipPath><clipPath id="rounded_clip_q22.3"><rect fill="none" height="100" rx="30" ry="30" stroke="black" stroke-width="2" width="950.40895" x="610.0" y="0" /></clipPath><clipPath id="rounded_clip_q23"><rect fill="none" height="100" rx="30" ry="30" stroke="black" stroke-width="2" width="950.40895" x="610.0" y="0" /></clipPath><clipPath id="rounded_clip_q24"><rect fill="none" height="100" rx="30" ry="30" stroke="black" stroke-width="2" width="950.40895" x="610.0" y="0" /></clipPath><clipPath id="rounded_clip_q25"><rect fill="none" height="100" rx="30" ry="30" stroke="black" stroke-width="2" width="950.40895" x="610.0" y="0" /></clipPath><clipPath id="rounded_clip_q26.1"><rect fill="none" height="100" rx="30" ry="30" stroke="black" stroke-width="2" width="950.40895" x="610.0" y="0" /></clipPath><clipPath id="rounded_clip_q26.2"><rect fill="none" height="100" rx="30" ry="30" stroke="black" stroke-width="2" width="950.40895" x="610.0" y="0" /></clipPath><clipPath id="rounded_clip_q26.3"><rect fill="none" height="100" rx="30" ry="30" stroke="black" stroke-width="2" width="950.40895" x="610.0" y="0" /></clipPath><clipPath id="rounded_clip_q27.1"><rect fill="none" height="100" rx="30" ry="30" stroke="black" stroke-width="2" width="950.40895" x="610.0" y="0" /></clipPath><clipPath id="rounded_clip_q27.2"><rect fill="none" height="100" rx="30" ry="30" stroke="black" stroke-width="2" width="950.40895" x="610.0" y="0" /></clipPath><clipPath id="rounded_clip_q27.3"><rect fill="none" height="100" rx="30" ry="30" stroke="black" stroke-width="2" width="950.40895" x="610.0" y="0" /></clipPath><clipPath id="rounded_clip_q28"><rect fill="none" height="100" rx="30" ry="30" stroke="black" stroke-width="2" width="950.40895" x="610.0" y="0" /></clipPath></defs><rect clip-path="url(#rounded_clip_p22.33)" fill="url(#grad_gneg)" height="100" id="p22.33" width="44.0" x="0.0" y="0" /><rect clip-path="url(#rounded_clip_p22.32)" fill="url(#grad_gpos50)" height="100" id="p22.32" width="17.0" x="44.0" y="0" /><rect clip-path="url(#rounded_clip_p22.31)" fill="url(#grad_gneg)" height="100" id="p22.31" width="35.0" x="61.0" y="0" /><rect clip-path="url(#rounded_clip_p22.2)" fill="url(#grad_gpos50)" height="100" id="p22.2" width="78.0" x="96.0" y="0" /><rect clip-path="url(#rounded_clip_p22.13)" fill="url(#grad_gneg)" height="100" id="p22.13" width="18.0" x="174.0" y="0" /><rect clip-path="url(#rounded_clip_p22.12)" fill="url(#grad_gpos50)" height="100" id="p22.12" width="27.0" x="192.0" y="0" /><rect clip-path="url(#rounded_clip_p22.11)" fill="url(#grad_gneg)" height="100" id="p22.11" width="30.0" x="219.0" y="0" /><rect clip-path="url(#rounded_clip_p21.3)" fill="url(#grad_gpos100)" height="100" id="p21.3" width="44.0" x="249.0" y="0" /><rect clip-path="url(#rounded_clip_p21.2)" fill="url(#grad_gneg)" height="100" id="p21.2" width="22.0" x="293.0" y="0" /><rect clip-path="url(#rounded_clip_p21.1)" fill="url(#grad_gpos100)" height="100" id="p21.1" width="63.0" x="315.0" y="0" /><rect clip-path="url(#rounded_clip_p11.4)" fill="url(#grad_gneg)" height="100" id="p11.4" width="47.0" x="378.0" y="0" /><rect clip-path="url(#rounded_clip_p11.3)" fill="url(#grad_gpos75)" height="100" id="p11.3" width="51.0" x="425.0" y="0" /><rect clip-path="url(#rounded_clip_p11.23)" fill="url(#grad_gneg)" height="100" id="p11.23" width="25.0" x="476.0" y="0" /><rect clip-path="url(#rounded_clip_p11.22)" fill="url(#grad_gpos25)" height="100" id="p11.22" width="47.0" x="501.0" y="0" /><rect clip-path="url(#rounded_clip_p11.21)" fill="url(#grad_gneg)" height="100" id="p11.21" width="33.0" x="548.0" y="0" /><rect clip-path="url(#rounded_clip_p11.1)" fill="url(#grad_acen)" height="100" id="p11.1" width="29.0" x="581.0" y="0" /><rect clip-path="url(#rounded_clip_q11.1)" fill="url(#grad_acen)" height="100" id="q11.1" width="28.0" x="610.0" y="0" /><rect clip-path="url(#rounded_clip_q11.2)" fill="url(#grad_gneg)" height="100" id="q11.2" width="16.0" x="638.0" y="0" /><rect clip-path="url(#rounded_clip_q12)" fill="url(#grad_gpos50)" height="100" id="q12" width="31.0" x="654.0" y="0" /><rect clip-path="url(#rounded_clip_q13.1)" fill="url(#grad_gneg)" height="100" id="q13.1" width="45.0" x="685.0" y="0" /><rect clip-path="url(#rounded_clip_q13.2)" fill="url(#grad_gpos50)" height="100" id="q13.2" width="17.0" x="730.0" y="0" /><rect clip-path="url(#rounded_clip_q13.3)" fill="url(#grad_gneg)" height="100" id="q13.3" width="21.0" x="747.0" y="0" /><rect clip-path="url(#rounded_clip_q21.1)" fill="url(#grad_gpos100)" height="100" id="q21.1" width="86.0" x="768.0" y="0" /><rect clip-path="url(#rounded_clip_q21.2)" fill="url(#grad_gneg)" height="100" id="q21.2" width="16.0" x="854.0" y="0" /><rect clip-path="url(#rounded_clip_q21.31)" fill="url(#grad_gpos100)" height="100" id="q21.31" width="57.0" x="870.0" y="0" /><rect clip-path="url(#rounded_clip_q21.32)" fill="url(#grad_gneg)" height="100" id="q21.32" width="16.0" x="927.0" y="0" /><rect clip-path="url(#rounded_clip_q21.33)" fill="url(#grad_gpos75)" height="100" id="q21.33" width="48.0" x="943.0" y="0" /><rect clip-path="url(#rounded_clip_q22.1)" fill="url(#grad_gneg)" height="100" id="q22.1" width="42.0" x="991.0" y="0" /><rect clip-path="url(#rounded_clip_q22.2)" fill="url(#grad_gpos50)" height="100" id="q22.2" width="12.0" x="1033.0" y="0" /><rect clip-path="url(#rounded_clip_q22.3)" fill="url(#grad_gneg)" height="100" id="q22.3" width="49.0" x="1045.0" y="0" /><rect clip-path="url(#rounded_clip_q23)" fill="url(#grad_gpos75)" height="100" id="q23" width="80.0" x="1094.0" y="0" /><rect clip-path="url(#rounded_clip_q24)" fill="url(#grad_gneg)" height="100" id="q24" width="44.0" x="1174.0" y="0" /><rect clip-path="url(#rounded_clip_q25)" fill="url(#grad_gpos100)" height="100" id="q25" width="77.0" x="1218.0" y="0" /><rect clip-path="url(#rounded_clip_q26.1)" fill="url(#grad_gneg)" height="100" id="q26.1" width="18.0" x="1295.0" y="0" /><rect clip-path="url(#rounded_clip_q26.2)" fill="url(#grad_gpos25)" height="100" id="q26.2" width="32.0" x="1313.0" y="0" /><rect clip-path="url(#rounded_clip_q26.3)" fill="url(#grad_gneg)" height="100" id="q26.3" width="44.0" x="1345.0" y="0" /><rect clip-path="url(#rounded_clip_q27.1)" fill="url(#grad_gpos75)" height="100" id="q27.1" width="23.0" x="1389.0" y="0" /><rect clip-path="url(#rounded_clip_q27.2)" fill="url(#grad_gneg)" height="100" id="q27.2" width="18.0" x="1412.0" y="0" /><rect clip-path="url(#rounded_clip_q27.3)" fill="url(#grad_gpos100)" height="100" id="q27.3" width="50.0" x="1430.0" y="0" /><rect clip-path="url(#rounded_clip_q28)" fill="url(#grad_gneg)" height="100" id="q28" width="80.40895" x="1480.0" y="0" /><rect fill="none" height="100" rx="30" ry="30" stroke="black" stroke-width="2" width="610.0" x="0.0" y="0" /><rect fill="none" height="100" rx="30" ry="30" stroke="black" stroke-width="2" width="950.40895" x="610.0" y="0" /></svg>