<?xml version="1.0" encoding="utf-8" ?>
<svg baseProfile="full" height="100" version="1.1" width="572.27415" xmlns="http://www.w3.org/2000/svg" xmlns:ev="http://www.w3.org/2001/xml-events" xmlns:xlink="http://www.w3.org/1999/xlink"><defs><linearGradient id="grad_gpos25" x1="0%" x2="0%" y1="0%" y2="100%"><stop offset="0.0" stop-color="#C8C8C8" /><stop offset="0.4" stop-color="#DCDCDC" /><stop offset="0.5" stop-color="#DCDCDC" /><stop offset="0.6" stop-color="#DCDCDC" /><stop offset="1.0" stop-color="#C8C8C8" /></linearGradient><linearGradient id="grad_gpos50" x1="0%" x2="0%" y1="0%" y2="100%"><stop offset="0.0" stop-color="#C8C8C8" /><stop offset="0.4" stop-color="#DCDCDC" /><stop offset="0.5" stop-color="#DCDCDC" /><stop offset="0.6" stop-color="#DCDCDC" /><stop offset="1.0" stop-color="#C8C8C8" /></linearGradient><linearGradient id="grad_gpos75" x1="0%" x2="0%" y1="0%" y2="100%"><stop offset="0.0" stop-color="#828282" /><stop offset="0.4" stop-color="#C6C6C6" /><stop offset="0.5" stop-color="#C6C6C6" /><stop offset="0.6" stop-color="#C6C6C6" /><stop offset="1.0" stop-color="#828282" /></linearGradient><linearGradient id="grad_gpos100" x1="0%" x2="0%" y1="0%" y2="100%"><stop offset="0.0" stop-color="#000000" /><stop offset="0.4" stop-color="#444444" /><stop offset="0.5" stop-color="#444444" /><stop offset="0.6" stop-color="#444444" /><stop offset="1.0" stop-color="#000000" /></linearGradient><linearGradient id="grad_gneg" x1="0%" x2="0%" y1="0%" y2="100%"><stop offset="0.0" stop-color="#FFFFFF" /><stop offset="0.4" stop-color="#FFFFFF" /><stop offset="0.5" stop-color="#FFFFFF" /><stop offset="0.6" stop-color="#FFFFFF" /><stop offset="1.0" stop-color="#FFFFFF" /></linearGradient><linearGradient id="grad_acen" x1="0%" x2="0%" y1="0%" y2="100%"><stop offset="0.0" stop-color="#D92F27" /><stop offset="0.4" stop-color="#F7574F" /><stop offset="0.5" stop-color="#F7574F" /><stop offset="0.6" stop-color="#F7574F" /><stop offset="1.0" stop-color="#D92F27" /></linearGradient><linearGradient id="grad_gvar" x1="0%" x2="0%" y1="0%" y2="100%"><stop offset="0.0" stop-color="#AAAAFF" /><stop offset="0.4" stop-color="#CCCCFF" /><stop offset="0.5" stop-color="#CCCCFF" /><stop offset="0.6" stop-color="#CCCCFF" /><stop offset="1.0" stop-color="#AAAAFF" /></linearGradient><linearGradient id="grad_stalk" x1="0%" x2="0%" y1="0%" y2="100%"><stop offset="0.0" stop-color="#647FA4" /><stop offset="0.4" stop-color="#647FA4" /><stop offset="0.5" stop-color="#647FA4" /><stop offset="0.6" stop-color="#647FA4" /><stop offset="1.0" stop-color="#647FA4" /></linearGradient><clipPath id="rounded_clip_p11.32"><rect fill="none" height="100" rx="30" ry="30" stroke="black" stroke-width="2" width="104.0" x="0.0" y="0" /></clipPath><clipPath id="rounded_clip_p11.31"><rect fill="none" height="100" rx="30" ry="30" stroke="black" stroke-width="2" width="104.0" x="0.0" y="0" /></clipPath><clipPath id="rounded_clip_p11.2"><rect fill="none" height="100" rx="30" ry="30" stroke="black" stroke-width="2" width="104.0" x="0.0" y="0" /></clipPath><clipPath id="rounded_clip_p11.1"><rect fill="none" height="100" rx="30" ry="30" stroke="black" stroke-width="2" width="104.0" x="0.0" y="0" /></clipPath><clipPath id="rounded_clip_q11.1"><rect fill="none" height="100" rx="30" ry="30" stroke="black" stroke-width="2" width="468.27415" x="104.0" y="0" /></clipPath><clipPath id="rounded_clip_q11.21"><rect fill="none" height="100" rx="30" ry="30" stroke="black" stroke-width="2" width="468.27415" x="104.0" y="0" /></clipPath><clipPath id="rounded_clip_q11.221"><rect fill="none" height="100" rx="30" ry="30" stroke="black" stroke-width="2" width="468.27415" x="104.0" y="0" /></clipPath><clipPath id="rounded_clip_q11.222"><rect fill="none" height="100" rx="30" ry="30" stroke="black" stroke-width="2" width="468.27415" x="104.0" y="0" /></clipPath><clipPath id="rounded_clip_q11.223"><rect fill="none" height="100" rx="30" ry="30" stroke="black" stroke-width="2" width="468.27415" x="104.0" y="0" /></clipPath><clipPath id="rounded_clip_q11.23"><rect fill="none" height="100" rx="30" ry="30" stroke="black" stroke-width="2" width="468.27415" x="104.0" y="0" /></clipPath><clipPath id="rounded_clip_q12"><rect fill="none" height="100" rx="30" ry="30" stroke="black" stroke-width="2" width="468.27415" x="104.0" y="0" /></clipPath></defs><rect clip-path="url(#rounded_clip_p11.32)" fill="url(#grad_gneg)" height="100" id="p11.32" width="3.0" x="0.0" y="0" /><rect clip-path="url(#rounded_clip_p11.31)" fill="url(#grad_gpos50)" height="100" id="p11.31" width="3.0" x="3.0" y="0" /><rect clip-path="url(#rounded_clip_p11.2)" fill="url(#grad_gneg)" height="100" id="p11.2" width="97.0" x="6.0" y="0" /><rect clip-path="url(#rounded_clip_p11.1)" fill="url(#grad_acen)" height="100" id="p11.1" width="1.0" x="103.0" y="0" /><rect clip-path="url(#rounded_clip_q11.1)" fill="url(#grad_acen)" height="100" id="q11.1" width="2.0" x="104.0" y="0" /><rect clip-path="url(#rounded_clip_q11.21)" fill="url(#grad_gneg)" height="100" id="q11.21" width="18.0" x="106.0" y="0" /><rect clip-path="url(#rounded_clip_q11.221)" fill="url(#grad_gpos50)" height="100" id="q11.221" width="47.0" x="124.0" y="0" /><rect clip-path="url(#rounded_clip_q11.222)" fill="url(#grad_gneg)" height="100" id="q11.222" width="25.0" x="171.0" y="0" /><rect clip-path="url(#rounded_clip_q11.223)" fill="url(#grad_gpos50)" height="100" id="q11.223" width="42.0" x="196.0" y="0" /><rect clip-path="url(#rounded_clip_q11.23)" fill="url(#grad_gneg)" height="100" id="q11.23" width="28.0" x="238.0" y="0" /><rect clip-path="url(#rounded_clip_q12)" fill="url(#grad_gvar)" height="100" id="q12" width="306.27415" x="266.0" y="0" /><rect fill="none" height="100" rx="30" ry="30" stroke="black" stroke-width="2" width="104.0" x="0.0" y="0" /><rect fill="none" height="100" rx="30" ry="30" stroke="black" stroke-width="2" width="468.27415" x="104.0" y="0" /></svg>